<?xml version="1.0" encoding="utf-8"?>
<!-- Generator: Adobe Illustrator 26.2.1, SVG Export Plug-In . SVG Version: 6.00 Build 0)  -->
<svg version="1.1" id="Layer_1" xmlns="http://www.w3.org/2000/svg" xmlns:xlink="http://www.w3.org/1999/xlink" x="0px" y="0px"
	 viewBox="0 0 500 500" style="enable-background:new 0 0 500 500;" xml:space="preserve">
<style type="text/css">
	.st0{fill:#1E69AA;}
</style>
<g>
	<rect x="1" y="191.2" class="st0" width="45" height="26.8"/>
	<rect x="142.7" y="49.6" class="st0" width="26.8" height="45"/>
	
		<rect x="229.5" y="93.9" transform="matrix(0.7071 -0.7071 0.7071 0.7071 -2.0267 209.6176)" class="st0" width="45" height="26.8"/>
	
		<rect x="49.4" y="88.3" transform="matrix(0.7071 -0.7071 0.7071 0.7071 -59.9657 76.8351)" class="st0" width="26.8" height="45"/>
	
		<rect x="38.5" y="283.2" transform="matrix(0.7071 -0.7071 0.7071 0.7071 -191.8544 130.0316)" class="st0" width="45" height="26.8"/>
	<path class="st0" d="M171.5,240c0.6,9.5,2.2,17.7,1.3,25.5c-0.4,3.8-4.9,8.2-8.7,10.3c-29,16.2-44.6,46.8-39.7,79.1
		c4.6,30.5,28.4,55.2,60,61.9c4.9,1,10.1,1.4,15.2,1.4c64.2,0.1,128.4,0.3,192.5-0.1c36.6-0.2,67.4-26.5,73.9-61.9
		c6.3-34.3-12.3-69.8-45.6-82.3c-14.3-5.4-30.4-5.8-47.8-8.9c0-4.1,0.1-9.8,0-15.6c-0.5-41.2-34-74.5-74.9-74.5
		c-41,0-75.1,33.1-75.5,74.1c-0.3,27.6,4.5,54.1,17.6,78.8c1.2,2.2,2.3,4.5,3.3,6.9c0.3,0.6-0.2,1.5-0.7,4.2
		c-29.6-20.5-49-46.3-51.6-82c-4.1-55.2,35.1-103.5,89.8-112.3c54.6-8.9,106.6,24.8,120.3,78.6c2.4,9.4,6.4,13.7,16.1,16.1
		c54.2,13.3,88,62.6,81.2,117.5c-6.4,52.8-51.7,93-105.8,93.3c-65.4,0.4-130.9,0.5-196.4-0.1c-51.5-0.5-95.1-39.4-103.1-90.6
		C85,309,115.1,258.6,162.7,242.3C164.9,241.3,167.4,241,171.5,240z"/>
	<path class="st0" d="M226.6,149.3c-5.8,5.1-11.8,10.3-18.8,16.5c-16.9-17.8-37.1-28.9-61.3-23.2c-12.9,3.1-26.7,10-36.1,19.2
		c-25.1,24.4-23.3,53.9,3.1,92.3c-5,5.9-10.1,12-15.1,18c-21.5-10.6-36.2-46.3-32.4-77.9c4.7-39.2,33.3-70.4,72.8-78.6
		C177.7,107.3,215.5,128.3,226.6,149.3z"/>
</g>
</svg>
