<?xml version="1.0" encoding="utf-8"?>
<!-- Generator: Adobe Illustrator 26.2.1, SVG Export Plug-In . SVG Version: 6.00 Build 0)  -->
<svg version="1.1" id="Layer_1" xmlns="http://www.w3.org/2000/svg" xmlns:xlink="http://www.w3.org/1999/xlink" x="0px" y="0px"
	 viewBox="0 0 500 500" style="enable-background:new 0 0 500 500;" xml:space="preserve">
<style type="text/css">
	.st0{fill:#6AC4EF;}
	.st1{fill:#FCCB0A;}
	.st2{fill:#A5D9EB;}
	.st3{fill:#A4D9ED;}
</style>
<path class="st0" d="M488.4,309.8c17.5,43.2,15,82.9-20.7,116.4c-16.2,15.2-35.6,24.2-58,24.2c-106.8,0.3-213.6,0.2-320.5,0.4
	c-13.4,0-25.2-5.4-37.4-9.5c-15.2-10.7-30-21.6-38.5-38.9c0.2-0.4,0.6-0.8,0.5-1.1c-0.3-0.7-0.8-1.3-1.2-1.9c0,0,0.1,0.3,0.1,0.3
	c0-3,0.4-6,0.1-9c-4.4-48.4,13.7-84.5,58.3-105.9c5.7-2.7,7.1-7.2,7.8-13.2c8.4-66.9,74.8-104.8,136.6-77.7c9.3,4.1,13.9,3.5,18.5-6
	c20.5-41.9,73.8-67.5,117.6-58.5c10.2,2.1,20.4,4.2,30.6,6.2c20,10.7,29.8,29.8,40.7,48.2c7.5,23.2,10,46.7,4.3,70.7
	c-1.5,6.4,0.8,9,6.6,10.9C457.8,273.1,475,289.2,488.4,309.8z M409.6,255.1c-6.9-7.8-12.4-8.9-17.5-10.2c-32.2-8.3-66.6,4.1-85.3,32
	c-6.7,10.1-12.6,12.5-24.4,8.6c-35.3-11.5-73.4,6.3-83,40.8c-4.7,16.8-13.3,26.5-26.6,36c-22,15.7-29.2,49.9-16.4,73
	c-1-33.7,12.6-57.9,41.5-73c3.8-2,5.6-5,6.6-9.2c12.3-50.9,44.1-69.2,95.3-55c5.3,1.5,9.4,2.2,12.8-3.4
	C333.9,259.2,365.5,246.7,409.6,255.1z"/>
<path class="st1" d="M58.6,267.1C23.8,219.5,16,168.8,45.3,116.3c24.4-43.7,63.2-66.8,113.6-67.2c53.6-0.5,92.8,24.8,119.2,70.8
	c-12.4,7.6-24.8,15.1-37.2,22.7c-1.7-4.1-2.9-8.6-5.3-12.2C197.2,73.2,110.9,79,79.4,140.3c-13.6,26.6-10.4,53-2.8,80
	c-5.1,12.2-10.1,24.4-10.8,37.9C65.6,262.6,65.1,267.5,58.6,267.1z"/>
<path class="st2" d="M58.6,267.1c6.5,0.4,7-4.5,7.2-8.9c0.7-13.5,5.7-25.7,10.8-37.9c9.9-16,23.2-28.6,38.6-39
	c30.3-14.6,60.7-14.4,91.2-0.6c3.9,4.3,6.6,3.1,8.7-1.7c6.2-13.8,16.5-24.7,25.8-36.3c12.4-7.6,24.8-15.1,37.2-22.7
	c33.2-8.6,65.6-8.8,96.1,9.5c2.9,1.7,5.4,4.1,8.1,6.2c-10.2-2.1-20.4-4.1-30.6-6.2c-43.8-9-97.1,16.6-117.6,58.5
	c-4.7,9.5-9.2,10.1-18.5,6C153.8,166.9,87.4,204.8,79,271.7c-0.7,6-2.1,10.4-7.8,13.2c-44.6,21.4-62.7,57.5-58.3,105.9
	c0.3,3-0.1,6-0.1,9c-23.5-38.9-10.8-92.7,28.5-121.2C46.9,274.5,52.8,270.9,58.6,267.1z"/>
<path class="st2" d="M12.7,399.5c0.4,0.6,0.9,1.2,1.2,1.9c0.1,0.3-0.3,0.7-0.5,1.1C13.1,401.5,12.9,400.5,12.7,399.5z"/>
<path class="st3" d="M409.6,255.1c-44.1-8.4-75.7,4.1-97,39.5c-3.4,5.6-7.5,4.8-12.8,3.4c-51.2-14.2-83,4.2-95.3,55
	c-1,4.3-2.8,7.3-6.6,9.2c-28.9,15.1-42.5,39.3-41.5,73c-12.8-23.1-5.6-57.2,16.4-73c13.3-9.5,21.9-19.1,26.6-36
	c9.5-34.5,47.7-52.3,83-40.8c11.8,3.8,17.7,1.4,24.4-8.6c18.7-27.9,53.1-40.2,85.3-32C397.2,246.2,402.7,247.3,409.6,255.1z"/>
<path class="st1" d="M115.2,181.3c-15.4,10.5-28.8,23-38.6,39c-7.5-27-10.8-53.4,2.8-80c31.5-61.4,117.7-67.1,156.2-9.9
	c2.4,3.6,3.6,8.1,5.3,12.2c-9.3,11.6-19.6,22.5-25.8,36.3c-2.2,4.8-4.9,6-8.7,1.7c-4.3-29.8-22.4-46.3-49.2-44.9
	C133.1,137,116.3,155.3,115.2,181.3z"/>
<path class="st1" d="M115.2,181.3c1-26,17.9-44.2,42-45.5c26.8-1.4,44.9,15.1,49.2,44.9C175.9,166.8,145.5,166.7,115.2,181.3z"/>
</svg>
