<?xml version="1.0" encoding="utf-8"?>
<!-- Generator: Adobe Illustrator 26.2.1, SVG Export Plug-In . SVG Version: 6.00 Build 0)  -->
<svg version="1.1" id="Layer_1" xmlns="http://www.w3.org/2000/svg" xmlns:xlink="http://www.w3.org/1999/xlink" x="0px" y="0px"
	 viewBox="0 0 500 500" style="enable-background:new 0 0 500 500;" xml:space="preserve">
<style type="text/css">
	.st0{fill:#FAF6D6;}
	.st1{fill:#FAE4F5;}
	.st2{fill:#E8D332;}
	.st3{fill:#F6EDAD;}
	.st4{fill:#F1E584;}
	.st5{fill:#EDDC5B;}
	.st6{fill:#F4C5DE;}
	.st7{fill:#CE4C84;}
	.st8{fill:#EEA0C7;}
	.st9{fill:#E868AB;}
</style>
<g>
	<circle class="st0" cx="249.8" cy="250" r="176.3"/>
	<path class="st1" d="M205.2,400.4c0.1,0,0.1,0.1,0.2,0.1c0,0,0,0,0.1,0v-0.1C205.3,400.4,205.2,400.4,205.2,400.4z"/>
	<path class="st2" d="M176.9,381.3l-0.3,0.3c-4.1-0.2-8.3-0.5-12.4-0.7c-13-3.4-24.5-9.6-34.1-19.1c-3-12.7-10.4-23.7-15.4-36
		C147.3,325.5,165.2,341.7,176.9,381.3z"/>
	<path class="st3" d="M370.2,146.7c3.3,8.2,6.5,16.3,10.8,27.1c-12-2.9-21.8-5.1-31.6-7.7c-9.2-2.5-15.8-6.7-14.4-18.5
		c1.5-12.7-16.1-15.7-15.8-29.1c10.6-0.5,19,7.1,28.9,8.9C359.4,129.4,363.4,139.8,370.2,146.7z"/>
	<path class="st4" d="M129.4,172.8c-5.2-1.4-8.4,4.1-14.3,4.2c-0.1-13.5,12.8-21.3,14.2-33.5c4.5-13.9,19.1-14.6,28.6-21.9
		c10.6-1.6,13-3.7,11.9,10.4c0.2,2.4-4.8,29.7-4.6,32.2L129.4,172.8z"/>
	<path class="st5" d="M75.7,244.8c1.2-7.3,3.9-13.7,12.9-12c8.8,1.7,3.7,9.3,5,14.2c0.5,2,0.6,4.3,0,6.2c-1.6,5.3,4.5,14.2-4.8,15.6
		c-9.4,1.5-11.2-7.2-13.1-14.3C75.7,251.3,75.7,248.1,75.7,244.8z"/>
	<path class="st4" d="M420.7,266.6c-5-1.3-13.4,5.6-14.6-1.9c-1.6-9.9-3.9-21.4,1.6-30.7c2.5-4.2,8.6,1.6,13.2,1.6
		C420.8,246,420.8,256.3,420.7,266.6z"/>
	<path class="st3" d="M259.2,80c0.2,1,0.4,2,0.5,3.1c0.2,5.1,9.1,11.4,2.1,14.5c-6.9,3-16.2,1.1-24.4,0.4c-3.3-0.3-2.3-3.9-1.3-6.4
		c1.4-3.9,2.8-7.8,4.2-11.6C246.6,77.2,252.9,74.1,259.2,80z"/>
	<path class="st2" d="M88.2,314.9c15.5,1.2,28.5,21.4,25.1,38.9C99.5,344.3,95.8,328.4,88.2,314.9z"/>
	<path class="st4" d="M164,390.6c16.3,2,31.3,5.9,34.9,25.4c-17.1-5.8-33.5-12.6-44.3-28.2c0,0-0.1,0.1-0.1,0.1
		C157.7,388.8,160.8,389.7,164,390.6z"/>
	<path class="st3" d="M297.4,416.1c6.6-19.9,23.8-24.3,41.2-28.4C332.2,407.9,314,410.8,297.4,416.1z"/>
	<path class="st3" d="M237.4,422.4c-0.6-6.2-1.1-12.3-1.8-19.9c9.4,5.4,29.7-9.2,26.7,16.9C254.6,425.9,245.7,421.7,237.4,422.4z"/>
	<path class="st2" d="M195.8,89.3c-4,21.3-22.9,20.7-38,25.5c-1.9-4.1,1.7-6.4,3.2-9.4c6.7,0.2,9.2-5.7,13.2-9.3
		c1.1-0.7,2.1-1.4,3.2-2.1c5-1.9,10-3.8,15-5.7C193.6,88.7,194.7,89,195.8,89.3z"/>
	<path class="st4" d="M78.4,279.9c14.4-5.5,18.2-1,20.4,21.2c1.1,10.8-5.4,2-7.6,3.8C80,300.1,81.7,288.7,78.4,279.9z"/>
	<path class="st2" d="M419.7,227.3c-6.5-1.9-16.5,0.4-16.6-9.9c-0.1-6.6-9.9-14.8-0.9-19.1c8.1-3.9,10.9,7.1,15.7,11.9
		C418.5,215.9,419.1,221.6,419.7,227.3z"/>
	<path class="st3" d="M90.4,190.1c15.1,4.6,7.2,15.7,5.8,23.9c-1.2,7.3-5.8,13.7-15.3,8.6c-1.6-11.9,6.7-21.4,8.3-32.5
		C89.2,190,90.4,190.1,90.4,190.1z"/>
	<path class="st5" d="M335.4,108.5c-16.4,5.5-24.2,1-36.1-21.5c14.5,0,23.3,9.8,33.1,17.8C333.4,106,334.4,107.2,335.4,108.5z"/>
	<path class="st5" d="M90.4,190.1c0,0-1.2,0-1.2,0c-0.2-1.6-0.5-3.2-0.7-4.8c3.3-3.8,5.3-8.2,5.9-13.2c0,0,0,0,0,0
		c0.8-1.1,1.5-2.1,2.3-3.2c2.4-4.3,4.8-8.5,7.2-12.8c2.7,1.8,11.1-5.6,8.4,2.5C108.1,170.5,107.9,186.8,90.4,190.1z"/>
	<path class="st3" d="M411.6,302c-4.2-0.2-8.2,0.5-11.8,3.6c5-11.4-4.4-32.9,21.2-28.8C418.5,285.5,417.1,294.5,411.6,302z"/>
	<path class="st4" d="M408.6,188.6c-18.5-3.4-17.8-21.1-25.6-33.2c6.7-3.9,8.7,3.2,12.8,3.9C402,168.2,408.1,177.2,408.6,188.6z"/>
	<path class="st4" d="M278,80.3c5.3,6.9,14.6,10.1,17.7,19.1c-19,5.2-22.9,2.3-27-19.4C271.7,80.1,274.8,80.2,278,80.3z"/>
	<path class="st2" d="M389.4,350.2c-8.9-12.2,1.8-21.3,6.3-30.4c2.4-4.8,9.1-2.6,10.3,4.6c-0.7,0.8-1,1.7-0.9,2.7
		c-0.7,1.2-1.5,2.3-2.2,3.5c-0.7,0.7-1.1,1.6-1.1,2.6c-0.8,1.3-1.7,2.5-2.5,3.8C396,341.4,392.7,345.8,389.4,350.2z"/>
	<path class="st5" d="M205.3,400.5c18.1-3.9,23.3,6.9,24.9,21.8c-1.9,0.3-3.9,0.6-5.8,0.9C218.2,415.6,205.4,413.3,205.3,400.5
		L205.3,400.5z"/>
	<path class="st4" d="M224.3,80.8c4.2,5.7,5,11.6-0.7,16.6c-3.3,2.9-8.2,3-11.8,1c-6.1-3.4-2.4-9.1-1.9-14
		C214.6,82.8,218.8,79.4,224.3,80.8z"/>
	<path class="st2" d="M266.1,419.4c0.8-1.3,1.5-2.7,2.5-3.9c2.7-3.4,1.4-10,7.4-10.5c1.7-0.1,4.8,2.8,5.2,4.7
		c1.5,6.2-2.9,9.3-7.8,11.7c-1.4,0.7-3,0.9-4.5,1.3C267.9,421.6,267,420.5,266.1,419.4z"/>
	<path class="st1" d="M402.9,330.6c0.7-1.2,1.5-2.3,2.2-3.5C404.4,328.3,403.6,329.4,402.9,330.6z"/>
	<path class="st5" d="M96.6,168.8c-0.8,1.1-1.5,2.1-2.3,3.2C95.1,171,95.8,169.9,96.6,168.8z"/>
	<path class="st6" d="M338.6,387.8c1-1,2-2.1,3-3.1C340.6,385.7,339.6,386.7,338.6,387.8z"/>
	<path class="st1" d="M399.3,337c0.8-1.3,1.7-2.5,2.5-3.8C401,334.5,400.2,335.7,399.3,337z"/>
	<path class="st2" d="M232.5,283c-4.7-0.1-9.5-0.3-14.2-0.4c-1.9-0.1-2.8-1.1-2.7-3c0-5.1-0.1-10.2-0.1-15.4v-3.6
		c0-8.3-0.1-16.7-0.1-25c0-1.2,0.1-2.4,0.1-3.6c-1.4-9.2,1.5-13.7,11.8-13.3c14.7,0.6,29.5,0.4,44.2,0c8.4-0.2,10.4,3.5,10.8,11.3
		C285.2,283.8,285.4,283.8,232.5,283z"/>
	<path class="st5" d="M208.5,251.7c0,30.3,0,29.1-29.7,29c-16.8,0-23.2-5.6-20.8-21.8c0.1-0.5,0-1.1,0-1.6
		c-0.2-37.4-0.2-36.8,36.3-38.2c12.5-0.5,15.9,3.7,14.4,15.1C207.9,240.1,208.5,246,208.5,251.7z"/>
	<path class="st4" d="M224.3,162.3c13.7,0.1,27.3,0.5,41,0.1c8.9-0.3,12.5,2,13.7,12c4.3,35.9,4.9,35.9-30.5,35.8
		c-37.5-0.1-29.7,2.8-30.4-38.2C217.9,167.4,221.6,165.1,224.3,162.3z"/>
	<path class="st3" d="M291.5,251.8c-0.5-34-0.5-34,33.2-29.1c1,0.1,2.3-0.2,3.1,0.2c20.9,9.7,7.5,28.7,11.1,43
		c2.4,9.6-3,16-14.4,14.1c-2.1-0.3-4.3,0.3-6.3-0.1c-8.9-1.9-20.7,5.9-25.9-1.8C288.2,271.9,291.5,260.7,291.5,251.8z"/>
	<path class="st3" d="M285.6,291.9c-6.2,7.8-7,17.6-6.8,26.5c0.3,11.8-5.9,15.7-15.4,17.9c-13,3-25.8-2-38.9-0.2
		c-3.9,0.5-6-3.9-6.1-7.9c-0.2-10.5-0.2-21-0.2-31.5c0-4.3,2.4-8.2,6.6-6.7c20.4,7.2,40.6-2.9,60.8,0.2
		C285.4,290.7,285.4,291.3,285.6,291.9z"/>
	<path class="st2" d="M348.1,251.5c-0.1-31.3,0-31.7,29.8-24.8c5.9,1.4,15.7-1,17.5,7.1c2.6,11.7,2.2,24-0.3,35.8
		c-0.3,1.6-4,3-6.4,3.6c-4,1-8.3,1.3-12.4,2C348.2,280.1,348.2,280.1,348.1,251.5z"/>
	<path class="st5" d="M221.8,140.9c0.8-2.4,2-4.8,2.4-7.3c3.8-26,3.8-25,29.7-25.9c16.1-0.5,16.8,8.6,18.8,20.4
		c4.8,27.4,5.4,27.2-21.6,27.2c-8.9,0-17.8,0.6-26.7,0.9C214.9,152.6,223.6,145.9,221.8,140.9z"/>
	<path class="st4" d="M253.7,345.9c8,3.6,22.3-6.6,21.6,12.4c-1,28.1-6.2,35.7-26.4,35.7c-19.7,0-26.1-6.6-25.2-33.4
		C224.5,339.7,243.4,350.1,253.7,345.9z"/>
	<path class="st3" d="M133.8,276.2c-4.6-0.9-13.2-3.5-22.3-2.9c-5.2,0.4-7.7-2.5-7.8-7.7c-0.1-3.2,0-6.3-0.4-9.4
		c-2.9-23.9,0.4-28.1,23.9-30.2c20.9-1.9,20.8-1.9,21,18.9c0.1,6.3-0.2,12.8,1.6,18.7C153.6,275.6,147.7,277.6,133.8,276.2z"/>
	<path class="st5" d="M314.7,212.7c-4.8,0-9.5-0.2-14.2,0c-8.5,0.5-12.9-2.9-12.4-11.9c0.3-5.3-1.5-11.1,0.2-15.7
		c2.4-6.5-10.3-17.8,5.4-19.8c21.2-2.7,36.6,4.5,39.7,17.4c0.5,2,1.3,4.1,1.6,6.1C337.9,217.1,344.3,213.3,314.7,212.7z"/>
	<path class="st4" d="M211.4,323.3c1.3,10.1-0.6,16.2-12.6,11.4c-2.3-0.9-5.2-0.5-7.8-0.7c-21.3-1.3-35.1-20.4-29.9-41.4
		c0.4-1.5,1.1-4.1,1.7-4.1c8.7,0.1,17.4,0.5,26.1,0.8c8.1,0.3,17.1-2.2,17.3,11.5C206.3,308.4,213,315.1,211.4,323.3z"/>
	<path class="st5" d="M285.6,291.9c-0.2-0.6-0.2-1.1,0-1.7c14.5-1.1,29-2.1,43.5-3.4c8.2-0.8,10.2,2.9,8.5,10.2
		c-2.6,11.4-10.7,20-15.4,30.3c-4.1,2-8.3,4-12.4,6c-3.5,1-6.9,2.2-10.4,3c-10.5,2.3-15.5,0.2-13-12.6
		C288.4,313.3,291.1,302.3,285.6,291.9z"/>
	<path class="st2" d="M157,182.5c-6.3,32.2-6.5,31.5-39,37.5c-13.1,2.4-14.1-0.5-13.5-12.8c0.9-17.3,11.4-23.3,24.9-28.1
		c8.3,0.7,16.3-8.6,24.8-0.8c1,1.3,1.9,2.6,2.9,3.9L157,182.5z"/>
	<path class="st2" d="M149.2,327.1c-27.3-0.9-42.1-13.9-44.8-38.1c-0.8-7.2,1.2-9.9,8.4-8.3c3.6,0.8,7.2,1.5,10.8,2
		c30,3.9,30.8,5,33.7,35.9C158.1,326.3,155,327.8,149.2,327.1z"/>
	<path class="st4" d="M212.2,171.8c-1.2,10.9-2.6,21.9-3.5,32.8c-0.5,5.9-3.1,9.5-8.9,7.7c-6.5-2-15.7,0.6-17.6,0.7
		c-22.7,1.1-22.6,1-18.3-21.8c0.4-2.1,0.3-4.2,0.4-6.3c5.3-10.6,14.9-16.3,25.5-18.3C197.1,165.2,207.3,159.7,212.2,171.8z"/>
	<path class="st4" d="M341.9,324.2c1.1-10.4,2.3-20.9,3.3-31.3c0.4-4.5,2.7-6.4,7-6.9c7.3-0.8,14.7-3.1,21.8-2.6
		c6.1,0.4,15.4-8.7,17.6,1.3c2.3,10.6,1.9,24-10.2,30.5c-9.6,5.1-20.3,8.1-30.5,12C347.9,326.2,344.9,325.2,341.9,324.2z"/>
	<path class="st2" d="M312.9,159.4c-6.7-1-14-2.3-21.4-2.9c-5.4-0.5-6.6-3.5-7.7-8.2c-2.1-9.7-5-19.2-7.7-28.7c-2-7.1-0.9-11,8-10.5
		c18.6,1.1,41.5,25,41,43.7C324.9,161.1,318.5,159.3,312.9,159.4z"/>
	<path class="st4" d="M384.8,219.8c-11.1-1.2-21.5-2.6-31.9-3.5c-5.1-0.4-7.7-2.6-7.7-7.8c0-2.6-0.8-5.4-0.2-7.8
		c1.8-8.4-10.9-18.9,2-25c9.4-4.4,40,13.2,42.6,22.7c1.1,4,2,8.1,3.2,12.1C395,218.6,393.9,223.3,384.8,219.8z"/>
	<path class="st2" d="M322.9,346.5c-2.8,10.5-4.1,21.3-9.6,31.1c-4,7-9,11.1-16.9,12.5c-17,3.1-18,0.5-16.8-16.8
		c1.4-20.6,8.3-33.1,30.7-32.3C315.4,340.8,320.1,341.5,322.9,346.5z"/>
	<path class="st3" d="M185.3,123.4c2.7-6,6.9-10.4,13.1-12.8c7.1-2.7,15.6-4.8,20.7,0.4c4.5,4.5-0.9,11.7-3.5,17.1
		c-1.6,3.2-10.9,24.5-10.9,24.5s-17.7,6.5-20.7,6.2c-9.8-0.9-6.5-10.3-7.3-16.5L185.3,123.4z"/>
	<path class="st3" d="M188,343.1c8.7,1.4,20.8,0,24.4,7.6c5.1,11,5.9,24.2,7,36.6c0.5,4.9-5.6,3.4-8.9,3.4
		c-17.5-0.1-38.9-25.8-35.6-42.9C176.5,339.8,183.6,344.9,188,343.1z"/>
	<path class="st5" d="M358.2,330.9c2.6-0.4,5.1-0.9,7.7-1.2c5.3-0.7,10.7-9.1,15.2-2.9c3,4.3-3.5,10.2-5.3,15.6
		c-8.9,26-31.8,32.8-54.6,41.4c-1.5-13.9,13.4-16.8,14.7-27.5c4.4-8.1,10.9-14.2,19-18.6c5.5-0.2,4.4-3.5,3.2-6.9
		C358.1,330.9,358.2,330.9,358.2,330.9z"/>
	<path class="st1" d="M154.2,178.3c1,1.3,2,2.6,2.9,3.9C156.2,180.9,155.2,179.6,154.2,178.3z"/>
	<path class="st5" d="M354.9,337.8c-0.3-2.9,0-5.6,3.2-6.9C359.3,334.2,360.4,337.5,354.9,337.8z"/>
</g>
<circle class="st1" cx="386.2" cy="-279.4" r="55.5"/>
<path class="st1" d="M372.1-232.1C372.1-232.1,372.1-232.1,372.1-232.1C372.2-232.1,372.2-232.1,372.1-232.1L372.1-232.1
	C372.2-232.1,372.1-232.1,372.1-232.1z"/>
<path class="st7" d="M363.2-238.1l-0.1,0.1c-1.3-0.1-2.6-0.2-3.9-0.2c-4.1-1.1-7.7-3-10.8-6c-1-4-3.3-7.5-4.9-11.3
	C353.9-255.7,359.5-250.6,363.2-238.1z"/>
<path class="st6" d="M424.1-312c1,2.6,2.1,5.1,3.4,8.5c-3.8-0.9-6.9-1.6-9.9-2.4c-2.9-0.8-5-2.1-4.5-5.8c0.5-4-5.1-4.9-5-9.2
	c3.3-0.1,6,2.2,9.1,2.8C420.7-317.4,421.9-314.2,424.1-312z"/>
<path class="st8" d="M348.2-303.8c-1.7-0.4-2.6,1.3-4.5,1.3c0-4.2,4-6.7,4.5-10.6c1.4-4.4,6-4.6,9-6.9c3.3-0.5,4.1-1.2,3.7,3.3
	c0.1,0.8-1.5,9.4-1.4,10.1L348.2-303.8z"/>
<path class="st9" d="M331.3-281.1c0.4-2.3,1.2-4.3,4.1-3.8c2.8,0.5,1.2,2.9,1.6,4.5c0.2,0.6,0.2,1.4,0,2c-0.5,1.7,1.4,4.5-1.5,4.9
	c-3,0.5-3.5-2.3-4.1-4.5C331.4-279,331.4-280,331.3-281.1z"/>
<path class="st8" d="M440-274.2c-1.6-0.4-4.2,1.8-4.6-0.6c-0.5-3.1-1.2-6.7,0.5-9.7c0.8-1.3,2.7,0.5,4.2,0.5
	C440-280.7,440-277.5,440-274.2z"/>
<path class="st6" d="M389.1-333c0.1,0.3,0.1,0.6,0.1,1c0.1,1.6,2.9,3.6,0.7,4.6c-2.2,1-5.1,0.4-7.7,0.1c-1-0.1-0.7-1.2-0.4-2
	c0.5-1.2,0.9-2.4,1.3-3.7C385.1-333.9,387.1-334.8,389.1-333z"/>
<path class="st7" d="M335.3-259c4.9,0.4,9,6.7,7.9,12.2C338.9-249.8,337.7-254.8,335.3-259z"/>
<path class="st8" d="M359.1-235.2c5.1,0.6,9.9,1.8,11,8c-5.4-1.8-10.5-4-13.9-8.9c0,0,0,0,0,0C357.2-235.8,358.1-235.5,359.1-235.2z
	"/>
<path class="st6" d="M401.1-227.1c2.1-6.3,7.5-7.7,13-8.9C412.1-229.7,406.4-228.8,401.1-227.1z"/>
<path class="st6" d="M382.2-225.2c-0.2-1.9-0.4-3.9-0.6-6.3c3,1.7,9.3-2.9,8.4,5.3C387.7-224.1,384.9-225.4,382.2-225.2z"/>
<path class="st7" d="M369.2-330c-1.3,6.7-7.2,6.5-12,8c-0.6-1.3,0.5-2,1-3c2.1,0,2.9-1.8,4.2-2.9c0.3-0.2,0.7-0.4,1-0.7
	c1.6-0.6,3.2-1.2,4.7-1.8C368.4-330.2,368.8-330.1,369.2-330z"/>
<path class="st8" d="M332.2-270c4.5-1.7,5.7-0.3,6.4,6.7c0.3,3.4-1.7,0.6-2.4,1.2C332.7-263.7,333.2-267.3,332.2-270z"/>
<path class="st7" d="M439.6-286.6c-2.1-0.6-5.2,0.1-5.2-3.1c0-2.1-3.1-4.6-0.3-6c2.5-1.2,3.4,2.2,4.9,3.8
	C439.3-290.2,439.4-288.4,439.6-286.6z"/>
<path class="st6" d="M336-298.3c4.8,1.4,2.3,4.9,1.8,7.5c-0.4,2.3-1.8,4.3-4.8,2.7c-0.5-3.8,2.1-6.7,2.6-10.2
	C335.6-298.3,336-298.3,336-298.3z"/>
<path class="st9" d="M413.1-324c-5.2,1.7-7.6,0.3-11.4-6.8c4.6,0,7.3,3.1,10.4,5.6C412.5-324.8,412.8-324.4,413.1-324z"/>
<path class="st9" d="M336-298.3c0,0-0.4,0-0.4,0c-0.1-0.5-0.2-1-0.2-1.5c1-1.2,1.7-2.6,1.8-4.2c0,0,0,0,0,0c0.2-0.3,0.5-0.7,0.7-1
	c0.8-1.3,1.5-2.7,2.3-4c0.9,0.6,3.5-1.8,2.6,0.8C341.5-304.5,341.5-299.3,336-298.3z"/>
<path class="st6" d="M437.1-263.1c-1.3-0.1-2.6,0.1-3.7,1.1c1.6-3.6-1.4-10.4,6.7-9.1C439.3-268.3,438.8-265.4,437.1-263.1z"/>
<path class="st8" d="M436.1-298.8c-5.8-1.1-5.6-6.6-8.1-10.5c2.1-1.2,2.7,1,4,1.2C434.1-305.2,436-302.4,436.1-298.8z"/>
<path class="st8" d="M395-332.9c1.7,2.2,4.6,3.2,5.6,6c-6,1.6-7.2,0.7-8.5-6.1C393.1-332.9,394-332.9,395-332.9z"/>
<path class="st7" d="M430.1-247.9c-2.8-3.8,0.6-6.7,2-9.6c0.7-1.5,2.9-0.8,3.2,1.4c-0.2,0.2-0.3,0.5-0.3,0.9
	c-0.2,0.4-0.5,0.7-0.7,1.1c-0.2,0.2-0.3,0.5-0.3,0.8c-0.3,0.4-0.5,0.8-0.8,1.2C432.2-250.7,431.1-249.3,430.1-247.9z"/>
<path class="st9" d="M372.1-232.1c5.7-1.2,7.3,2.2,7.8,6.9c-0.6,0.1-1.2,0.2-1.8,0.3C376.2-227.3,372.2-228,372.1-232.1L372.1-232.1
	z"/>
<path class="st8" d="M378.1-332.7c1.3,1.8,1.6,3.6-0.2,5.2c-1.1,0.9-2.6,0.9-3.7,0.3c-1.9-1.1-0.8-2.9-0.6-4.4
	C375.1-332.1,376.4-333.2,378.1-332.7z"/>
<path class="st7" d="M391.3-226.1c0.3-0.4,0.5-0.9,0.8-1.2c0.9-1.1,0.4-3.1,2.3-3.3c0.5,0,1.5,0.9,1.6,1.5c0.5,2-0.9,2.9-2.5,3.7
	c-0.4,0.2-0.9,0.3-1.4,0.4C391.9-225.4,391.6-225.8,391.3-226.1z"/>
<path class="st1" d="M362.4-327.9"/>
<path class="st1" d="M358.2-325"/>
<path class="st1" d="M337.2-304c-0.2,1.6-0.8,3-1.8,4.2"/>
<path class="st1" d="M434.4-254.1c0.2-0.4,0.5-0.7,0.7-1.1C434.8-254.8,434.6-254.4,434.4-254.1z"/>
<path class="st1" d="M337.9-305c-0.2,0.3-0.5,0.7-0.7,1C337.4-304.3,337.7-304.7,337.9-305z"/>
<path class="st6" d="M414.1-236.1c0.3-0.3,0.6-0.7,1-1C414.8-236.7,414.4-236.4,414.1-236.1z"/>
<path class="st1" d="M433.2-252.1c0.3-0.4,0.5-0.8,0.8-1.2C433.8-252.9,433.5-252.5,433.2-252.1z"/>
<path class="st9" d="M375.3-276.1c0-2.6,0-5.2,0-7.9c0.1-0.1,0.3-0.2,0.3-0.3c0-0.3-0.2-0.5-0.3-0.8c-0.4-2.9,0.5-4.3,3.7-4.2
	c4.6,0.2,9.3,0.1,13.9,0c2.6-0.1,3.3,1.1,3.4,3.6c0.9,16.9,1,16.9-15.7,16.6c-1.5,0-3-0.1-4.5-0.1c-0.3-0.3-0.6-0.6-0.9-0.9
	c0-1.6,0-3.2,0-4.8c0.1-0.1,0.3-0.2,0.3-0.3C375.6-275.6,375.4-275.8,375.3-276.1z"/>
<path class="st9" d="M373.2-278.9c0,9.5,0,9.1-9.4,9.1c-5.3,0-7.3-1.8-6.6-6.9c0-0.2,0-0.3,0-0.5c-0.1-11.8-0.1-11.6,11.4-12
	c3.9-0.1,5,1.2,4.5,4.8C373-282.6,373.2-280.7,373.2-278.9z"/>
<path class="st8" d="M378.1-307.1c4.3,0,8.6,0.2,12.9,0c2.8-0.1,3.9,0.6,4.3,3.8c1.4,11.3,1.5,11.3-9.6,11.3c-11.8,0-9.4,0.9-9.6-12
	C376.1-305.5,377.3-306.2,378.1-307.1z"/>
<path class="st6" d="M399.3-278.9c-0.2-10.7-0.2-10.7,10.5-9.2c0.3,0,0.7-0.1,1,0.1c6.6,3.1,2.4,9,3.5,13.5c0.8,3-1,5-4.5,4.4
	c-0.6-0.1-1.4,0.1-2,0c-2.8-0.6-6.5,1.9-8.2-0.6C398.2-272.6,399.3-276.1,399.3-278.9z"/>
<path class="st6" d="M397.4-266.3c-1.9,2.5-2.2,5.5-2.1,8.3c0.1,3.7-1.8,4.9-4.9,5.6c-4.1,0.9-8.1-0.6-12.2-0.1
	c-1.2,0.2-1.9-1.2-1.9-2.5c-0.1-3.3-0.1-6.6-0.1-9.9c0-1.3,0.8-2.6,2.1-2.1c6.4,2.3,12.8-0.9,19.1,0.1
	C397.4-266.6,397.4-266.4,397.4-266.3z"/>
<path class="st7" d="M417.1-279c0-9.8,0-10,9.4-7.8c1.9,0.4,4.9-0.3,5.5,2.2c0.8,3.7,0.7,7.5-0.1,11.3c-0.1,0.5-1.3,0.9-2,1.1
	c-1.3,0.3-2.6,0.4-3.9,0.6C417.1-270,417.1-270,417.1-279z"/>
<path class="st9" d="M377.3-313.8c0.3-0.8,0.6-1.5,0.8-2.3c1.2-8.2,1.2-7.9,9.3-8.1c5.1-0.2,5.3,2.7,5.9,6.4
	c1.5,8.6,1.7,8.6-6.8,8.6c-2.8,0-5.6,0.2-8.4,0.3C375.2-310.1,377.9-312.2,377.3-313.8z"/>
<path class="st8" d="M387.4-249.2c2.5,1.1,7-2.1,6.8,3.9c-0.3,8.9-1.9,11.2-8.3,11.2c-6.2,0-8.2-2.1-7.9-10.5
	C378.2-251.2,384.1-247.9,387.4-249.2z"/>
<path class="st6" d="M349.6-271.2c-1.5-0.3-4.2-1.1-7-0.9c-1.6,0.1-2.4-0.8-2.4-2.4c0-1,0-2-0.1-3c-0.9-7.5,0.1-8.9,7.5-9.5
	c6.6-0.6,6.6-0.6,6.6,6c0,2-0.1,4,0.5,5.9C355.9-271.4,354-270.8,349.6-271.2z"/>
<path class="st9" d="M406.6-291.2c-1.5,0-3-0.1-4.5,0c-2.7,0.2-4.1-0.9-3.9-3.7c0.1-1.7-0.5-3.5,0.1-4.9c0.8-2.1-3.2-5.6,1.7-6.2
	c6.7-0.9,11.5,1.4,12.5,5.5c0.2,0.6,0.4,1.3,0.5,1.9C413.9-289.8,415.9-291,406.6-291.2z"/>
<path class="st8" d="M374.1-256.4c0.4,3.2-0.2,5.1-4,3.6c-0.7-0.3-1.6-0.2-2.5-0.2c-6.7-0.4-11.1-6.4-9.4-13
	c0.1-0.5,0.3-1.3,0.5-1.3c2.7,0,5.5,0.2,8.2,0.3c2.6,0.1,5.4-0.7,5.5,3.6C372.5-261.1,374.6-259,374.1-256.4z"/>
<path class="st9" d="M397.4-266.3c-0.1-0.2-0.1-0.4,0-0.5c4.6-0.4,9.1-0.7,13.7-1.1c2.6-0.2,3.2,0.9,2.7,3.2
	c-0.8,3.6-3.4,6.3-4.8,9.5c-1.3,0.6-2.6,1.3-3.9,1.9c-1.1,0.3-2.2,0.7-3.3,0.9c-3.3,0.7-4.9,0-4.1-4
	C398.3-259.5,399.2-263,397.4-266.3z"/>
<path class="st7" d="M356.9-300.7c-2,10.1-2,9.9-12.3,11.8c-4.1,0.8-4.4-0.2-4.2-4c0.3-5.4,3.6-7.3,7.8-8.8c2.6,0.2,5.1-2.7,7.8-0.3
	C356.4-301.6,356.7-301.2,356.9-300.7L356.9-300.7z"/>
<path class="st7" d="M354.5-255.2c-8.6-0.3-13.3-4.4-14.1-12c-0.3-2.3,0.4-3.1,2.6-2.6c1.1,0.3,2.3,0.5,3.4,0.6
	c9.5,1.2,9.7,1.6,10.6,11.3C357.3-255.4,356.3-254.9,354.5-255.2z"/>
<path class="st8" d="M374.3-304.1c-0.4,3.4-0.8,6.9-1.1,10.3c-0.1,1.9-1,3-2.8,2.4c-2-0.6-5,0.2-5.5,0.2c-7.1,0.3-7.1,0.3-5.8-6.9
	c0.1-0.6,0.1-1.3,0.1-2c1.7-3.3,4.7-5.1,8-5.8C369.6-306.1,372.8-307.9,374.3-304.1z"/>
<path class="st8" d="M415.2-256.1c0.4-3.3,0.7-6.6,1-9.9c0.1-1.4,0.8-2,2.2-2.2c2.3-0.2,4.6-1,6.9-0.8c1.9,0.1,4.8-2.7,5.5,0.4
	c0.7,3.4,0.6,7.6-3.2,9.6c-3,1.6-6.4,2.6-9.6,3.8C417.1-255.5,416.1-255.8,415.2-256.1z"/>
<path class="st7" d="M406-308c-2.1-0.3-4.4-0.7-6.7-0.9c-1.7-0.2-2.1-1.1-2.4-2.6c-0.7-3-1.6-6-2.4-9c-0.6-2.2-0.3-3.5,2.5-3.3
	c5.8,0.3,13.1,7.9,12.9,13.8C409.8-307.4,407.8-308,406-308z"/>
<path class="st8" d="M428.6-289c-3.5-0.4-6.8-0.8-10-1.1c-1.6-0.1-2.4-0.8-2.4-2.5c0-0.8-0.2-1.7-0.1-2.5c0.6-2.6-3.4-5.9,0.6-7.9
	c2.9-1.4,12.6,4.2,13.4,7.2c0.4,1.3,0.6,2.6,1,3.8C431.9-289.3,431.5-287.8,428.6-289z"/>
<path class="st7" d="M409.2-249.1c-0.9,3.3-1.3,6.7-3,9.8c-1.2,2.2-2.8,3.5-5.3,3.9c-5.3,1-5.7,0.2-5.3-5.3
	c0.4-6.5,2.6-10.4,9.7-10.2C406.8-250.9,408.3-250.6,409.2-249.1z"/>
<path class="st6" d="M365.8-319.3c0.9-1.9,2.2-3.3,4.1-4c2.2-0.8,4.9-1.5,6.5,0.1c1.4,1.4-0.3,3.7-1.1,5.4c-0.5,1-3.4,7.7-3.4,7.7
	s-5.6,2-6.5,2c-3.1-0.3-2-3.2-2.3-5.2L365.8-319.3z"/>
<path class="st6" d="M366.7-250.1c2.7,0.4,6.6,0,7.7,2.4c1.6,3.4,1.8,7.6,2.2,11.5c0.1,1.5-1.8,1.1-2.8,1.1
	c-5.5,0-12.3-8.1-11.2-13.5C363.1-251.2,365.3-249.6,366.7-250.1z"/>
<path class="st9" d="M420.3-254c0.8-0.1,1.6-0.3,2.4-0.4c1.7-0.2,3.4-2.9,4.8-0.9c1,1.3-1.1,3.2-1.7,4.9c-2.8,8.2-10,10.3-17.2,13
	c-0.5-4.4,4.2-5.3,4.6-8.7c1.4-2.6,3.4-4.5,6-5.8C421-251.9,420.6-252.9,420.3-254C420.2-254,420.3-254,420.3-254z"/>
<path class="st8" d="M375.3-276.1c0.1,0.3,0.2,0.5,0.3,0.8c0,0.1-0.2,0.2-0.3,0.3C375.3-275.3,375.3-275.7,375.3-276.1z"/>
<path class="st8" d="M375.4-270.1c0.3,0.3,0.6,0.6,0.9,0.9C375.6-269.2,375.3-269.5,375.4-270.1z"/>
<path class="st8" d="M375.3-285.1c0.1,0.3,0.2,0.5,0.3,0.8c0,0.1-0.2,0.2-0.3,0.3C375.3-284.3,375.3-284.7,375.3-285.1z"/>
<path class="st1" d="M356.1-302c0.3,0.4,0.6,0.8,0.9,1.2C356.7-301.2,356.4-301.6,356.1-302z"/>
<path class="st1" d="M419.2-251.8c-0.1-0.9,0-1.8,1-2.2C420.6-252.9,421-251.9,419.2-251.8z"/>
<g>
	<polygon class="st5" points="247,3.9 207.4,60.7 288.8,60.7 	"/>
	<polygon class="st5" points="376,38.3 312.8,66.2 382.3,108.4 	"/>
	<polygon class="st5" points="461.8,115.5 392.7,119.4 442.9,183.4 	"/>
	<polygon class="st5" points="123.7,29.5 187,57.5 117.4,99.7 	"/>
	<polygon class="st5" points="39,112.2 108,116.1 57.8,180.1 	"/>
	<polygon class="st5" points="109.5,461.4 172.7,433.4 103.2,391.2 	"/>
	<polygon class="st5" points="19.5,363.5 87,378.7 56.2,303.4 	"/>
	<polygon class="st5" points="378.3,465 317,432.9 389.3,395.4 	"/>
	<polygon class="st5" points="475.7,367 407.7,379.7 441.2,305.5 	"/>
	<polygon class="st5" points="498.8,239.2 442.1,199.7 442.1,281 	"/>
	<polygon class="st5" points="0.8,239.2 57.5,199.7 57.5,281 	"/>
	<polygon class="st5" points="247,496.1 288.8,439.3 207.4,439.3 	"/>
</g>
</svg>
