<?xml version="1.0" encoding="utf-8"?>
<!-- Generator: Adobe Illustrator 26.2.1, SVG Export Plug-In . SVG Version: 6.00 Build 0)  -->
<svg version="1.1" id="Layer_1" xmlns="http://www.w3.org/2000/svg" xmlns:xlink="http://www.w3.org/1999/xlink" x="0px" y="0px"
	 viewBox="0 0 500 500" style="enable-background:new 0 0 500 500;" xml:space="preserve">
<style type="text/css">
	.st0{fill:#717171;}
</style>
<rect x="66.2" y="128.5" transform="matrix(1 -7.182148e-03 7.182148e-03 1 -1.0065 0.6231)" class="st0" width="40.1" height="23.9"/>
<rect x="191.9" y="1.3" transform="matrix(1 -7.182148e-03 7.182148e-03 1 -0.1481 1.4647)" class="st0" width="23.9" height="40.1"/>
<rect x="193.6" y="234.1" transform="matrix(1 -7.182148e-03 7.182148e-03 1 -1.8201 1.4829)" class="st0" width="23.9" height="40.1"/>
<rect x="108.8" y="36.4" transform="matrix(0.702 -0.7122 0.7122 0.702 -4.2164 102.8063)" class="st0" width="23.9" height="40.1"/>
<rect x="100.3" y="210.4" transform="matrix(0.702 -0.7122 0.7122 0.702 -122.494 151.9779)" class="st0" width="40.1" height="23.9"/>
<path class="st0" d="M278.1,96c-5.5,3.7-10.9,7.5-16.4,11.2c-3.4-4.1-21.9-25.4-50.9-26.3c-5-0.2-18.7-0.4-32.6,8
	c-14.6,8.7-21,21.6-23,25.7c-0.4,0.8-0.7,1.5-0.9,1.9c-2.2,4.8-6.4,14.8-5,27.5c2.4,22.4,20.6,35.7,25.1,38.9
	c25.1,18.2,54.6,11.5,59.5,10.2c0.2,7.8,0.3,15.5,0.5,23.3c-5.1,1.3-44.5,10.9-77-14.1c-22.2-17.2-28.8-40.9-29.7-44.6
	c-1.8-7.1-4.3-20.6-0.9-36.9c7-33,32.8-49.9,36.2-52c23.9-15.1,53.6-16.5,77.9-5.6C262.4,72.7,273.8,89,278.1,96z"/>
<rect x="270.5" y="38.7" transform="matrix(0.7122 -0.702 0.702 0.7122 48.0691 218.5587)" class="st0" width="40.1" height="23.9"/>
<path class="st0" d="M312.5,129.9L312.5,129.9h0.2C312.7,129.9,312.6,129.9,312.5,129.9z"/>
<path class="st0" d="M382.4,397.1c0.2,1.5,0.3,2.9,0.5,4.4C382.8,400,382.7,398.5,382.4,397.1z M378.3,300.7v-0.1h-15.6
	c-1.4,0-2.6-0.5-3.6-1.3c1,0.9,2.3,1.4,3.7,1.4H378.3z M360.8,255.6c0.1,0,0.2,0.1,0.3,0.1c0.2,0.1,0.4,0.1,0.6,0.2
	c0.2,0,0.3,0.1,0.5,0.1s0.4,0,0.6,0h15.5v-0.2h-15.6c-2.1,0-4-1.2-5-2.9c-0.1-0.1-0.1-0.2-0.2-0.3c-0.3-0.5-0.4-1.1-0.5-1.7
	c0.2,2.1,1.6,3.9,3.4,4.7C360.6,255.5,360.7,255.6,360.8,255.6z M359.1,210c1,0.9,2.3,1.4,3.7,1.4h15.5V211h-15.6
	c-2.5,0-4.7-1.7-5.4-4c0-0.1,0-0.1,0-0.2c-0.1-0.4-0.2-0.7-0.2-1.1c0,1.4,0.5,2.7,1.4,3.6C358.6,209.6,358.8,209.8,359.1,210z
	 M378.6,430c-0.7,1.8-1.4,3.6-2.2,5.4C377.2,433.6,377.9,431.8,378.6,430z M365.1,361.4c-1.2-1.2-2.2-2.4-3.1-3.7
	C362.9,359,363.9,360.3,365.1,361.4c8.8,9.3,14.1,19.9,16.5,30.9C379.3,381.3,373.9,370.6,365.1,361.4z M357,250.3
	c0,0.1,0,0.2,0,0.3c0-0.2,0-0.3,0-0.5V250.3z M357,205.3v0.3v0.1C357,205.6,357,205.4,357,205.3z M336,137.6c-7.2-5.7-15-8.2-23-7.8
	h-3.5c-2,0.1-4,0.4-6,0.9c2-0.5,4-0.7,6-0.8h3.1c0.1,0,0.2,0,0.2,0c0.1,0,0.2,0,0.2,0C321,129.5,328.7,132,336,137.6
	c10.8,8.5,18.1,19.1,19.3,32.9C354.1,156.7,346.8,146,336,137.6z"/>
<path class="st0" d="M357,205.7c0,0.4,0.1,0.8,0.2,1.1c0,0.1,0,0.1,0,0.2c0.7,2.3,2.9,4,5.4,4h15.6v0.4h49.9c3.2,0,5.7-2.6,5.7-5.7
	v-16.8c0-3.2-2.6-5.7-5.7-5.7l-49.9-0.4V180c0,0-0.9-14.4-2.1-21.3c-4.9-29.4-34.1-52.3-63.3-52.3h-0.4c-29.3,0-58.5,22.9-63.3,52.3
	c-1.1,6.8-1.7,13.7-2.3,21.3h0.3v149.9H247c-0.1,8-3.9,14.2-8.6,20.7c-40.7,56.2-11.9,131.3,55.8,146.3c6,1.3,12.2,2,18.4,1.9h0.4
	c6.1,0.1,12.3-0.6,18.4-1.9c67.6-14.5,96.5-89.7,55.7-145.9c-4.7-6.5-8.5-12.7-8.6-20.7h-0.2v-29.6h-15.5c-1.4,0-2.7-0.5-3.7-1.4
	c-0.2-0.2-0.5-0.4-0.7-0.7c-0.9-1-1.4-2.3-1.4-3.8V278c0-3.1,2.5-5.7,5.7-5.7h15.6V256h-15.5c-0.2,0-0.4,0-0.6,0s-0.4,0-0.5-0.1
	c-0.2,0-0.4-0.1-0.6-0.2c-0.1,0-0.2-0.1-0.3-0.1c-0.1,0-0.2-0.1-0.3-0.1c-1.9-0.8-3.2-2.5-3.4-4.7l0,0c0,0,0,0,0-0.1
	c0,0,0-0.1,0-0.2c0-0.1,0-0.2,0-0.3v-17c0-3.1,2.5-5.7,5.7-5.7h15.6v-16.2h-15.5 M361.4,357c0.2,0.2,0.4,0.5,0.6,0.8
	c0.9,1.2,2,2.5,3.1,3.7c8.8,9.2,14.2,19.9,16.5,30.9c0.1,0.4,0.2,0.8,0.2,1.2c0.2,0.8,0.3,1.6,0.4,2.4c0.1,0.4,0.1,0.8,0.2,1.2l0,0
	c0.2,1.5,0.3,2.9,0.5,4.4c0.2,2.7,0.2,5.3,0,8c0,0.5,0,0.9-0.1,1.4c0,0.4-0.1,0.8-0.1,1.2c-0.1,1-0.2,2-0.3,3.1c-0.1,1-0.3,2-0.5,3
	c-0.1,0.5-0.2,1-0.3,1.5c-0.1,0.5-0.2,1-0.3,1.5c-0.2,0.8-0.4,1.5-0.6,2.2s-0.3,1.3-0.5,2c0,0.2-0.1,0.3-0.1,0.5
	c-0.2,0.7-0.4,1.3-0.6,2s-0.5,1.4-0.8,2.2l0,0c-0.7,1.8-1.4,3.6-2.2,5.4l0,0c-0.3,0.7-0.6,1.3-1,2c-0.3,0.7-0.7,1.3-1,1.9
	c-0.7,1.2-1.4,2.4-2.1,3.6c-0.4,0.6-0.8,1.2-1.1,1.8c-0.4,0.6-0.8,1.2-1.2,1.7c-0.5,0.7-1,1.4-1.5,2.1c-0.2,0.3-0.4,0.6-0.7,0.9
	c-0.3,0.4-0.6,0.8-0.9,1.1c-0.3,0.4-0.6,0.7-0.9,1.1c-1.9,2.2-3.9,4.3-6,6.2c-0.7,0.7-1.5,1.3-2.2,2l0,0c-0.8,0.6-1.5,1.2-2.3,1.9
	c-0.4,0.3-0.8,0.6-1.2,0.9c-0.4,0.3-0.8,0.6-1.2,0.9c-0.4,0.3-0.8,0.6-1.2,0.9c-0.8,0.6-1.7,1.1-2.5,1.6c-6.5,4-13.8,7-21.8,8.8
	c-4.7,1-9.5,1.5-14.3,1.4h-3.1c-4.1-0.1-8.1-0.6-12.1-1.4c-51.2-11.2-74.6-74.8-37.8-113.3c7.9-8.2,10.2-16.8,9.9-27.7
	c-0.6-25.4-0.2-50.9-0.2-76.4c0-15.6,0.1-31.2,0.1-46.8c0-11.7,0-23.4-0.2-35.2c-0.2-16.2,7.5-28.3,19.5-37.7c4.5-3.5,9.2-5.8,14-7
	c0.1,0,0.3-0.1,0.4-0.1c2-0.5,4-0.8,6-0.9h3.5c8-0.4,15.8,2.1,23,7.8c10.8,8.5,18.1,19.1,19.3,32.9v0.1c0,0.2,0,0.4,0,0.7
	c0,0,0,0,0,0.1s0,0.3,0,0.5c0.1,1.1,0.1,2.3,0.1,3.4c-0.1,11.7-0.2,23.5-0.2,35.2c0,15.6,0.1,31.2,0.1,46.8c0,25.5,0.4,51-0.2,76.4
	v0.1C355,342.7,356.5,350.1,361.4,357z"/>
<path class="st0" d="M357,205.3c0,0.1,0,0.3,0,0.4v-0.1V205.3z"/>
<path class="st0" d="M359.1,210c-0.2-0.2-0.5-0.4-0.7-0.7"/>
<path class="st0" d="M357,205.7c0,0.4,0.1,0.8,0.2,1.1c0,0.1,0,0.1,0,0.2c0.7,2.3,2.9,4,5.4,4h15.6v0.3"/>
<path class="st0" d="M378.3,255.8v0.2h-15.5c-0.2,0-0.4,0-0.6,0s-0.4,0-0.5-0.1c-0.1,0-0.2,0-0.2-0.1c-0.1,0-0.2-0.1-0.4-0.1
	c-0.1,0-0.2-0.1-0.3-0.1c-0.1,0-0.2-0.1-0.3-0.1c-1.9-0.8-3.2-2.5-3.4-4.7l0,0c0,0,0,0,0-0.1c0,0,0-0.1,0-0.2c0-0.1,0-0.2,0-0.3
	v-16.8c0-1.1,0.4-2.2,1-3c-0.6,0.9-0.9,1.9-0.9,3v16.8c0,0.8,0.2,1.6,0.5,2.2c0,0.1,0.1,0.2,0.2,0.3c1,1.8,2.9,2.9,5,2.9h15.4
	L378.3,255.8L378.3,255.8z"/>
<path class="st0" d="M357.1,278.2V295c0,1.4,0.5,2.7,1.3,3.7c-0.9-1-1.4-2.3-1.4-3.8v-16.8c0.1-1.8,1-3.5,2.4-4.5
	C358,274.7,357.1,276.3,357.1,278.2z"/>
<path class="st0" d="M361.1,272.8c-0.4,0.1-0.7,0.3-1,0.4C360.4,273,360.7,272.9,361.1,272.8z"/>
<path class="st0" d="M312.7,130h0.2l0,0C312.9,129.9,312.8,129.9,312.7,130z"/>
<path class="st0" d="M331.8,370.9c-6.7-3.6-8.4-7.4-8.4-14.5c0.1-59.9-0.3-119.7-0.4-179.6c0-8-2.5-14.8-10.5-15.2
	c-8,0.4-10.5,7.2-10.5,15.2c-0.1,59.9-0.5,119.7-0.4,179.6c0,7.1-1.7,10.9-8.4,14.5c-17.1,9.1-23,24-20,45.2
	c1.9,13,13.6,25.6,27.2,29.2c4.2,1.1,8.2,1.6,12.2,1.7c3.9,0,8-0.6,12.2-1.7c13.6-3.6,25.3-16.1,27.2-29.2
	C354.9,394.9,348.9,380,331.8,370.9z M312.7,424.2h-0.4c-9.7-0.4-17.2-8.3-17-18c0.2-9.6,7.2-16.2,17.3-16.4
	c10.1,0.2,17.1,6.8,17.3,16.4C330,415.9,322.5,423.8,312.7,424.2z"/>
<path class="st0" d="M312.7,130h0.2l0,0C312.9,129.9,312.8,129.9,312.7,130z M298.2,474.8c-51.2-11.2-74.6-74.8-37.8-113.3
	c7.9-8.2,10.2-16.8,9.9-27.7c-0.6-25.4-0.2-50.9-0.2-76.4l0,0c0-27.3,0.2-54.6-0.1-82c-0.2-16.2,7.5-28.3,19.5-37.7
	c6.3-5,13-7.5,19.9-7.8c-7.1,0.2-14,2.7-20.4,7.8c-12,9.4-19.7,21.5-19.5,37.7c0.3,27.3,0.1,54.6,0.1,82l0,0c0,25.5-0.4,51,0.2,76.4
	c0.2,10.9-2.1,19.4-9.9,27.7c-36.8,38.5-13.4,102.2,37.8,113.3c4,0.9,8.1,1.4,12.1,1.4C305.9,476.1,302,475.6,298.2,474.8z"/>
<path class="st0" d="M378.3,211v0.4h-15.5c-1.4,0-2.7-0.5-3.7-1.4c-0.2-0.2-0.5-0.4-0.7-0.7c-0.6-0.7-1-1.5-1.2-2.3
	c0.7,2.3,2.9,4,5.4,4H378.3z"/>
<path class="st0" d="M433.9,232.8v17.3c0,3.2-2.5,5.9-5.8,5.9h-50.4v-0.2H362c-2.1,0-4-1.2-5-3c-0.1-0.1-0.1-0.2-0.2-0.3
	c-0.3-0.7-0.5-1.5-0.5-2.3v-17.3c0-1.1,0.3-2.2,0.9-3.1c0,0,0-0.1,0.1-0.1c1-1.6,2.8-2.6,4.8-2.6h66
	C431.3,227.1,433.9,229.6,433.9,232.8z"/>
<path class="st0" d="M433.9,277.6v17.3c0,3.2-2.5,5.9-5.8,5.9h-50.4v-0.1H362c-1.4,0-2.6-0.5-3.6-1.3c-0.2-0.2-0.5-0.4-0.7-0.7
	c-0.8-1-1.3-2.3-1.3-3.8v-17.3c0-1.9,0.9-3.6,2.3-4.7c0.2-0.1,0.4-0.3,0.6-0.4c0.3-0.2,0.7-0.3,1-0.5c0.5-0.2,1.1-0.3,1.7-0.3h66
	C431.3,271.7,433.9,274.4,433.9,277.6z"/>
<path class="st0" d="M378.3,300.6v0.1h-15.5c-1.4,0-2.7-0.5-3.7-1.4c1,0.8,2.2,1.3,3.6,1.3H378.3z"/>
</svg>
