<?xml version="1.0" encoding="utf-8"?>
<!-- Generator: Adobe Illustrator 26.2.1, SVG Export Plug-In . SVG Version: 6.00 Build 0)  -->
<svg version="1.1" id="Layer_1" xmlns="http://www.w3.org/2000/svg" xmlns:xlink="http://www.w3.org/1999/xlink" x="0px" y="0px"
	 viewBox="0 0 500 500" style="enable-background:new 0 0 500 500;" xml:space="preserve">
<style type="text/css">
	.st0{fill:#FCCB0A;}
	.st1{fill:#00FF00;}
	.st2{fill:#544B48;}
	.st3{fill:#DF3200;}
</style>
<g>
	<path class="st0" d="M280,200.9c0,10.4,0.1,20.8,0,31.1c0,1.5,0.5,1.9,2,1.9c4.5-0.1,9.1,0,13.6-0.1c1.4,0,2,0.3,2,1.9
		c-0.1,4.5-0.1,9.1,0,13.6c0,1.4-0.4,2-1.9,2c-4.5-0.1-8.9,0.1-13.4,0c-1.6,0-2.3,0.3-2.3,2.1c0.1,10.3,0.1,20.6,0,30.9
		c0,1.6,0.5,2.1,2.1,2.1c4.5-0.1,9.1,0,13.6-0.1c1.5,0,2,0.5,1.9,1.9c-0.1,4.5-0.1,9.1,0,13.6c0,1.5-0.5,1.9-2,1.9
		c-4.4-0.1-8.8,0.1-13.1-0.1c-2.1-0.1-2.5,0.6-2.5,2.6c0.1,10.8,0,21.6,0.1,32.4c0,1.4-0.3,2.3-1.7,3.1c-7.6,4.3-14.1,9.9-19.6,16.5
		c-10.1,12.1-15.9,25.6-17.5,40.7c-5.3,0.9-10.7,1.4-16.1,1.6c-1.6,0.1-3.3,0.1-4.9,0.1c-70.9,0-128.4-57.5-128.4-128.4
		c0-70.9,57.5-128.4,128.4-128.4c15.5,0,30.3,2.7,44,7.8c5.5,2,10.7,4.3,15.8,7c0,6.9,0,13.7-0.1,20.5c0,2.1,0.8,2.4,2.5,2.4
		c4.4-0.1,8.8,0,13.1-0.1c1.5,0,2,0.4,1.9,1.9c-0.1,4.5-0.1,9.1,0,13.6c0,1.5-0.5,1.9-2,1.9c-4.5-0.1-9.1,0-13.6-0.1
		C280.5,198.9,280,199.3,280,200.9z"/>
	<path class="st0" d="M329.8,205.4l-0.1,133.7c-13,21.3-32.1,38.6-54.9,49.3c5.5-10.4,14.8-18.7,26.8-22.8c1.3-0.4,1.9-1,2-2.5
		c0.3-5.7,0-11.5,0.1-17.2c0-1.1-0.2-2.3-0.2-3.4c0-56,0-112,0-168C313.8,183.4,322.7,193.8,329.8,205.4z"/>
	<path class="st0" d="M346.8,251.3c-3,0-5.9,0-8.9,0c-1.7,0-2.3-0.4-2.2-2.2c0.1-4.4,0.1-8.8,0-13.1c0-1.5,0.4-2.1,2.1-2.1
		c1.7,0,3.3,0,5,0C344.5,239.6,345.8,245.4,346.8,251.3z"/>
	<path class="st0" d="M347.8,286.3c-0.6,5.9-1.7,11.8-3.1,17.4c-2.3,0-4.7-0.1-7.1,0c-1.3,0-1.8-0.4-1.8-1.8c0.1-4.5,0.1-9.1,0-13.6
		c0-1.6,0.5-2.1,2.1-2C341.1,286.4,344.5,286.3,347.8,286.3z"/>
	<path class="st1" d="M366.8,158.2L366.8,158.2C366.9,158.3,366.9,158.3,366.8,158.2L366.8,158.2z M367.3,158.2L367.3,158.2
		C367.3,158.3,367.3,158.3,367.3,158.2L367.3,158.2L367.3,158.2z"/>
	<path class="st2" d="M407.7,397.5c-2.7-26.3-15.1-47.4-36-63.5c-2-1.5-2.7-3-2.7-5.4c0.1-46.2,0.1-92.5,0.1-138.7H369v-17.5
		c0-39.6,0.1-79.2,0.1-118.8c0-3.9-0.5-7.8-1.3-11.6c-8.4-38.6-56.1-54.2-85.6-28.1c-12.3,10.8-18.1,24.6-18,40.9v266.3c0,3,0,6,0,9
		c0,1.4-0.4,2.2-1.5,3c-5.7,4.2-11,8.8-15.5,14.3c-13.4,16-20.9,33.8-22.1,53.1c-0.5,7.4,0,15,1.3,22.9c7.3,42.1,43,73.5,85.4,75.4
		c27.6,1.3,51.5-8,70.8-28C402.3,450.5,410.7,425.7,407.7,397.5z M367.3,158.2L367.3,158.2L367.3,158.2
		C367.3,158.3,367.3,158.3,367.3,158.2L367.3,158.2z M366.9,158.2C366.9,158.3,366.9,158.3,366.9,158.2L366.9,158.2L366.9,158.2z
		 M334.1,481.3c-6.1,1.5-12.3,2-18.6,2.1c-8.3,0.1-16.5-1.6-24.3-4.5c-25.3-9.5-41.3-27.4-48.4-53.4c-0.6-2-2.1-13.9-2.2-15.8
		c-0.1-3.7,0.1-7.2,0.5-10.7c1.6-15,7.4-28.6,17.5-40.7c5.6-6.6,12.1-12.2,19.6-16.5c1.4-0.8,1.7-1.7,1.7-3.1
		c0-10.8,0-21.6-0.1-32.4c0-2,0.4-2.7,2.5-2.6c4.4,0.2,8.8,0,13.1,0.1c1.4,0,2-0.4,2-1.9c-0.1-4.5-0.1-9.1,0-13.6
		c0-1.5-0.4-2-1.9-1.9c-4.5,0.1-9.1,0-13.6,0.1c-1.6,0-2.1-0.5-2.1-2.1c0.1-10.3,0.1-20.6,0-30.9c0-1.8,0.7-2.1,2.3-2.1
		c4.5,0.1,8.9,0,13.4,0c1.5,0,1.9-0.5,1.9-2c-0.1-4.5-0.1-9.1,0-13.6c0-1.5-0.6-1.9-2-1.9c-4.5,0.1-9.1,0-13.6,0.1
		c-1.5,0-2-0.4-2-1.9c0.1-10.4,0-20.8,0-31.1c0-1.5,0.6-1.9,2-1.9c4.5,0.1,9.1,0,13.6,0.1c1.5,0,2-0.4,2-1.9
		c-0.1-4.5-0.1-9.1,0-13.6c0-1.5-0.5-2-1.9-1.9c-4.4,0.1-8.8,0-13.1,0.1c-1.8,0-2.6-0.3-2.5-2.4c0.1-6.8,0.1-13.7,0.1-20.5
		c0-3.3,0-6.6-0.1-9.9c0-1.9,0.6-2.3,2.3-2.3c4.4,0.1,8.8,0,13.2,0.1c1.5,0,2.1-0.3,2.1-2c-0.1-4.5-0.1-8.9,0-13.4
		c0-1.8-0.6-2.2-2.3-2.1c-4.4,0.1-8.8,0-13.1,0.1c-1.7,0-2.3-0.4-2.2-2.1c0.1-10.2,0.1-20.5,0-30.7c0-1.8,0.4-2.4,2.3-2.3
		c4.5,0.1,8.9,0,13.4,0.1c1.5,0,2-0.5,1.9-1.9c-0.1-4.5-0.1-9.1,0-13.6c0-1.5-0.4-2-1.9-1.9c-4.5,0.1-9.1,0-13.6,0
		c-1,0-2.1,0.2-2-1.3c0.3-9.5-0.9-19,0.7-28.4c4.4-26.8,37.3-39.2,58.5-22.3c9.2,7.4,14,17.1,14.1,28.9c0.1,6.9,0,13.8,0.1,20.7
		c0,1.9-0.4,2.6-2.4,2.5c-4.4-0.2-8.8,0-13.1-0.1c-1.6,0-2.1,0.5-2.1,2.1c0.1,4.5,0.1,9.1,0,13.6c0,1.4,0.5,1.8,1.8,1.8
		c4.5-0.1,9.1,0.1,13.6-0.1c1.8,0,2.2,0.6,2.1,2.2c-0.1,10.2-0.1,20.4,0,30.7c0,1.9-0.6,2.3-2.3,2.3c-4.3-0.1-8.6,0.1-12.9-0.1
		c-2-0.1-2.4,0.6-2.4,2.5c0.1,4.2,0.2,8.4,0,12.7c-0.1,2,0.6,2.4,2.5,2.4c4.4-0.1,8.8,0,13.2-0.1c1.4,0,2,0.3,2,1.9
		c-0.1,10.5-0.1,20.9,0,31.4c0,1.4-0.4,1.8-1.8,1.8c-4.6-0.1-9.2,0-13.9-0.1c-1.5,0-1.9,0.5-1.9,2c0.1,4.5,0.1,9.1,0,13.6
		c0,1.4,0.5,1.8,1.8,1.8c4.5-0.1,9.1,0,13.6-0.1c1.5,0,2.1,0.3,2.1,2c-0.1,10.4-0.1,20.8,0,31.2c0,1.7-0.7,2-2.1,2
		c-2.8-0.1-5.6,0-8.4,0c-1.7,0-3.3,0-5,0c-1.6,0-2.1,0.6-2.1,2.1c0.1,4.4,0.1,8.8,0,13.1c0,1.7,0.6,2.2,2.2,2.2c3-0.1,5.9,0,8.9,0
		c1.5,0,3,0,4.5,0c1.5,0,2,0.4,2,1.9c-0.1,10.5-0.1,20.9,0,31.4c0,1.4-0.5,1.8-1.8,1.8c-1.2,0-2.5,0-3.7,0c-3.3,0-6.6,0-9.9,0
		c-1.6,0-2.1,0.4-2.1,2c0.1,4.5,0.1,9.1,0,13.6c0,1.4,0.5,1.8,1.8,1.8c2.4,0,4.7,0,7.1,0c1.9,0,3.9,0,5.8-0.1c2.4-0.1,2.9,0.7,2.9,3
		c-0.1,10.6,0,21.3-0.1,31.9c0,1.6,0.4,2.4,1.8,3.2c22.3,13.7,35.1,33.5,37.2,59.7C395.2,439.1,370.8,472.3,334.1,481.3z"/>
	<path class="st1" d="M366.9,158.3L366.9,158.3L366.9,158.3C366.9,158.3,366.9,158.3,366.9,158.3z"/>
	<path class="st3" d="M361.9,423c-5.3,19.2-18.6,30.7-38.2,34c-24.2,4.1-47.2-11.8-53-35.8c-2.8-11.4-1-23,4.1-32.8
		c5.5-10.4,14.8-18.7,26.8-22.8c1.3-0.4,1.9-1,2-2.5c0.3-5.7,0-11.5,0.1-17.2c0-1.1-0.2-2.3-0.2-3.4c0-56,0-112,0-168
		c0-18.1,0-36.2,0-54.2c0-2,0.6-2.4,2.5-2.4c7,0.1,14.1,0.2,21.2,0c2.4-0.1,2.8,0.8,2.8,2.9c0,28.2-0.1,56.4,0,84.7l-0.1,133.7v3.6
		c0,6.9-0.4,13,0,19.9c0,0.2,12.2,7.4,15.9,10.5C361.4,386.3,367.4,403.1,361.9,423z"/>
	<path class="st1" d="M366.9,158.3L366.9,158.3L366.9,158.3C366.9,158.3,366.9,158.3,366.9,158.3z"/>
</g>
</svg>
