<?xml version="1.0" encoding="utf-8"?>
<!-- Generator: Adobe Illustrator 26.2.1, SVG Export Plug-In . SVG Version: 6.00 Build 0)  -->
<svg version="1.1" id="Layer_1" xmlns="http://www.w3.org/2000/svg" xmlns:xlink="http://www.w3.org/1999/xlink" x="0px" y="0px"
	 viewBox="0 0 500 500" style="enable-background:new 0 0 500 500;" xml:space="preserve">
<style type="text/css">
	.st0{fill:#005C2C;}
	.st1{fill:#020304;}
</style>
<g>
	<path class="st0" d="M213.5,495.9c-26.7-4.8-50.2-14.8-68-28.4C165.7,481.3,188.7,491.1,213.5,495.9z"/>
	<path d="M431.7,270.7c-11.4-44.5-36-81.9-62.9-118C333.6,105.5,295,60.7,264.5,10c-2.4-3.9-6.6-5.5-9.1-9h-11.1
		c-5.1,4.1-9.2,8.9-12.7,14.5c-13,21-27.1,41.3-41.9,61c-29.4,38.8-61.2,75.7-87,117.1c-27.1,43.3-44.9,89-38.3,141.8
		c6.7,54,37.4,102.2,81.1,132c20.2,13.8,43.3,23.7,68,28.4c0.1,0,0.2,0,0.3,0c0.1,0,0.2,0,0.3,0c0.1,0,0.2,0,0.3,0
		c11.1,2,22.8,3,34.8,3c8.2,0,16.1-0.5,23.9-1.4h0.1c0.6-0.1,1.2-0.1,1.7-0.2C381.6,485.8,458.4,375,431.7,270.7z M405.8,320
		c-1,24.6-8.1,48-19.8,68.6c-23.2,41-64.8,71.1-113.3,77.8c-68.2,9.4-130.2-24.5-160.1-79.4c-12.6-23.1-19.5-49.8-18.9-78.6
		c0.7-29.5,11.1-56.2,25.3-81.6c20.5-36.9,47.1-69.6,72.9-102.8c19.6-25.3,39.3-50.7,58-78.8c38.7,59.5,86.7,109.8,123,168.6
		C393,246.4,407.5,280.7,405.8,320z"/>
	<path class="st1" d="M343.1,233.7c-0.2,5.9-2.5,9.8-6.1,13.4c-50.9,50.8-101.7,101.7-152.6,152.4c-8,8-16.8,8.4-23.4,1.8
		c-6.5-6.5-6.2-15.7,1.6-23.5c50.7-50.9,101.6-101.7,152.4-152.6c5.5-5.5,11.8-7.7,19-4.7C340.1,223,342.9,228.1,343.1,233.7z"/>
	<path class="st1" d="M249.3,235.3c-0.5,26.1-20.9,45.8-47.1,45.4c-25.8-0.4-46.3-21.6-45.6-47.2c0.7-25.7,22.2-46.4,47.4-45.7
		C229.9,188.6,249.7,209.4,249.3,235.3z M203.5,218.6c-8-0.3-15.8,6.9-16.4,14.9c-0.5,8.1,6.4,15.7,14.7,16.2
		c9.1,0.6,16.7-6.2,16.8-15.1C218.8,226.3,211.8,219,203.5,218.6z"/>
	<path class="st1" d="M250.4,390.9c-0.1-26.6,20-46.7,46.6-46.7c25.7,0,46.2,20.6,46.1,46.3c-0.1,25.3-21.2,46.6-46.4,46.7
		C271.5,437.3,250.5,416.4,250.4,390.9z M297,374.9c-8.5-0.1-15.8,6.7-16.1,15c-0.3,8.6,7.5,16.5,16.1,16.3
		c8-0.2,15.6-7.8,15.6-15.8C312.6,382.4,305.2,375,297,374.9z"/>
</g>
</svg>
