<?xml version="1.0" encoding="utf-8"?>
<!-- Generator: Adobe Illustrator 26.2.1, SVG Export Plug-In . SVG Version: 6.00 Build 0)  -->
<svg version="1.1" id="Layer_1" xmlns="http://www.w3.org/2000/svg" xmlns:xlink="http://www.w3.org/1999/xlink" x="0px" y="0px"
	 viewBox="0 0 500 500" style="enable-background:new 0 0 500 500;" xml:space="preserve">
<style type="text/css">
	.st0{fill:#F0F0F2;}
	.st1{fill:#F7F7F7;}
	.st2{fill:#E6E6EA;}
	.st3{fill:#DBDBE0;}
	.st4{fill:#D0D1D7;}
	.st5{fill:#4D4D4C;}
	.st6{fill:#FDE06C;}
	.st7{fill:#FCCB0A;}
	.st8{fill:#FEDF83;}
	.st9{fill:#FDD44F;}
	.st10{fill:#FCD553;}
</style>
<path class="st0" d="M790.7-286.8c3.3,0.2,3.6,3.5,5.3,5.3c21.4,22.6,35.8,49.3,43.2,79.3c5.9,23.9,6.3,48.4,2.1,72.7
	c-3,17-8.6,33.2-16.2,48.7c-5.2,10.7-12,20.3-19,29.7c-5.8,7.8-12.6,14.7-19.7,21.4c-4.2,4-8.8,7.3-13.4,10.6
	c-0.2-1.6-0.4-3.3-2.3-4c5.6-5.4,11.5-10.6,16.8-16.3c2.6-2.8,7.1-3.7,8.5-7.1c1.6-3.6,3.9-6.4,5.8-9.7c4.1-7.2,10.3-12.8,13.2-20.9
	c1.3-3.7,7.2-5.2,5.3-10.8c-0.3-0.8,1.4-2.2,2-3.3c1.3-2.5,3.7-4.4,4.1-7.3c1-7.2,3.7-14,5-21.2c0.4-2.4,2.9-3.3,3-6.1
	c0.2-7.4,0.9-14.9,1.8-22.3c1.4-10.9,1.3-21.9-1.4-32c-4.4-16.4-6.1-33.7-16.3-48.7c-10.3-15.1-18.3-31.9-32.7-43.7
	c-12.2-9.9-24.6-19.6-40.4-23.1c-3.1-0.7-6.8-1.7-8.6,1.7c-2.5,4.5-4.8,9-10.8,11.2c3.8,1,6.7,1.2,9.3-0.1c3.8-1.8,4.8-0.2,4.6,3.3
	c0,0.8,0,1.7,0,2.5c-8.6-3.8-17.3-5.7-26.6-2.4c-2,0.7-4.2,1-6.3,1.4c-4.2-0.1-6.8,2.5-8.8,5.6c-1.4,2.3-3.3,1.6-5.2,1.8
	c-2.2,0.1-2.5-1.6-2.6-3c-0.8-6.6-6-7.8-11-9.6c-3.7-1.3-8,0.9-11.4-1.9c-0.7-3.3,1.8-7.3-2-10c-1.3-4.7-5.2-4.8-9-5
	c-4.6-0.3-6.7,2.8-8.4,6.4c-0.7,1.5-0.3,3.3-1.5,4.6c-0.5,0.2-1.2,0.2-1.3,0.6c-3.2,7.2-9,5.2-14.8,4.5c-7.4-0.9-14.8-0.1-20.1,5.9
	c-2,2.3-4,3.2-6.8,3c-0.3-7.1-6-12.2-13.5-12c-6.9,0.2-11.4,5-11.6,12.1c0,2.7,0.2,5.3,1,7.8c-0.6,4.2-4.4,6.6-6,10.2
	c-1.3,1.3-2.7,2.6-4,3.9c-2,0-3,1-2.9,3l0,0c-1.1,0.2-1.7,0.9-2.2,1.9c-2.2,4.2-3,9.3-9.4,10.2c-3,0.4-2.9,5.4,0.1,6.6
	c3.4,1.4,4.9,3.4,4.2,6.8c-0.7,3.4-3.1,5.1-6.3,5.5c-5.1,0.6-8.7,4.8-8.7,8.3c0,5.5-1.6,10.3-2.4,15.5c-0.9,5.7-3.8,7.2-8.8,7.3
	c-2,0-4.5-0.8-5.6,2c-1.2,0.8-2.5,1.6-3.7,2.4c-12,7.8-9.7,23.9-3.3,29.5c0.7,1.4,1.6,2.3,3.1,3c4.7,2.4,9.7,3.4,14.9,2.9
	c0.6,2.2,2.3,3.3,4.3,3.7c3.5,0.8,4.1,2.8,3.4,5.9c-0.3,1.4-0.4,2.9-0.6,4.4c0,0,0,0,0,0c-2.2,0.9-2.6,1.8-0.2,2.9
	c-2.9,11.6,0,21.1,10.2,28c-3.2,2.9-6.3,2.7-9.7-0.7c-2.4-2.5-4.6-5.3-7.1-7.6c-2.5-2.3-5.8-3.8-9-3.1c-3.3,0.7-1.8,4.1-2.3,6.4
	c-0.2,0.8-0.4,1.6-0.8,2.3c-4.5,9.7-1.7,23.5,6.3,30.7c0.8,0.8,1.6,1.9,3,1.5c1.3-0.4,1.4-1.7,1.6-2.8c1-5.9,1.6-6.5,7.7-5
	c9.6,2.4,16.8-1.7,23.4-7.7c2.9-2.7,2.4-6.4-1.1-8.7c-0.9-0.6-1.7-1-2-2.1c1.4,0,2.9,0.1,4-1c0.7,0,1.4,0,2,0c1,0,1.9,0,2.9,0
	c2.8,0,4.5-2.3,7-3c1.6,3.3,0.4,7.7,4.1,10.1c-0.4,1.1-0.8,2.1-1.2,3.2c-1.9,4.4-0.9,11.7,2.2,14.7c3.8,8.7,11.8,9.6,19.8,6.8
	c8.2-2.8,10.9-9.7,10.3-17.9c1.6,0,3.3,0,4.9,0c6.7,6.8,14.6,11.2,23.9,13c-1.4,4.8-6,6.6-9,10c-14.6-2.6-20.9,0-27.1,11
	c-1.3-0.4-1.9-1.3-1.9-2.6c0-3-2-3.9-4.3-3.1c-5.9,2.1-9.8-0.2-13.8-4.6c-5.2-5.8-9.8-6.2-16.9-2.6c-2.5,1.3-4.9,2.8-7.4,4.1
	c-0.8,0.5-2,1.1-2.7,0c-0.4-0.5-0.2-1.6,0-2.3c2.5-5.9,0.2-9.9-4.9-12.9c-4.3-1-8.3-1.5-11.9,2.2c-2.9,3-1.9,6.4-2.1,9.8
	c1.6,4.7,5.3,6.5,9.9,7c1,0.1,2.3,0,2.2,1.3c-0.1,1.4-1.5,1.6-2.7,1.4c-1.3-0.1-2.6-0.6-3.9-0.7c-1.6,0-3,1.1-1.8,2.5
	c2.6,2.9,2.9,7.1,5.6,9.9c15.4,15.2,32.4,28,52.1,37.5C619.9,1.1,635.3,4.3,651,7c7.3,1.3,14.7,2.4,22.2,1.7
	C679,8.1,684.7,7,690.5,7c6.8,0,13.4-1.5,19.8-3.8c2.4-0.9,5.9-2.3,8.3,0.8c-6.2,2-12.5,3.9-18.6,6.2c-4.4,1.7-8.7-0.9-12.8,0.3
	c-5.9,1.7-12.2,0-18,2.4c-3,1.3-5.6-1.6-8.6-1.8c-11.3-0.6-22.6-0.5-33.4-4.9c-2.8-1.1-5.5-2.4-8.4-3c-8.6-1.6-17-4.7-23.8-9.5
	c-7.6-5.3-16.8-7.8-23.5-14.3c-5.7-5.6-13.4-7.9-19.4-12.9c-6.2-5.3-9.9-13.4-17.9-16.9c-0.5-0.2-1.1-1-1.1-1.6
	c-0.1-5.2-3.4-9-6.1-12.7c-9.4-12.8-13.6-28.2-21.4-41.7c-0.6-1.1-1.2-2.7-0.9-3.8c1.6-7.5,0.4-14.6-2-21.8
	c-3.3-9.8,1-20.6-2.9-30.6c-0.2-0.5,0-1.4,0.3-1.9c2-3.7,1.1-7.8,1.6-11.7c1-7.2-0.3-14.5,0.8-21.7c0.6-3.7,3.3-7.4,0.8-11.5
	c-0.6-1,0.6-2.8,2.2-3.5c1.5-0.6,2.3-1.9,2.7-3.4c2.5-9.2,8.9-16.7,12-25.7c0.8-2.2,2.3-4,3.8-5.8c6.2-7.8,12.1-15.8,18.3-23.5
	c3.2-4,7.2-6.7,12.2-8.9c4.5-2,9.2-4.1,13.2-7.8c5.6-5.1,12-9.5,19-12.5c4.1-1.7,7.7-4.3,11.8-5.9c4.8-1.9,7-8.5,14.2-7.2
	c2.3,0.4,6.8-0.6,9-3.3c3.2-3.8,7.2-4.2,11.7-4c3,0.2,6-0.5,8.9-0.5c5.9-0.1,10.8-3.8,16.9-3.6c11.6,0.4,23.1,1.5,34.6,2.7
	c11.4,1.2,22.4,2.6,33.2,7c11,4.5,22.5,7.9,32.2,15c6.5,4.8,14.2,7.9,19.8,13.9C784.9-280.6,785.3-280.7,790.7-286.8z M809.6-257.2
	c-1.3-1.7-2.5-3.3-4.5-5.9C805.1-259.2,806-257.3,809.6-257.2z M800.4-265.5c0.9-0.1,1.1-0.7,1.1-1.4c0-1.4-0.9-2.1-2.2-2.3
	c-0.9-0.1-1.2,0.5-1,1.3C798.6-266.8,799.1-265.8,800.4-265.5z M524.3-118.9c-0.1-0.9-0.6-1.6-1.6-1.4c-0.5,0.1-1.2,0.7-1.3,1.2
	c-0.3,0.9,0.3,1.6,1.3,1.7C523.6-117.3,524.1-117.9,524.3-118.9z M791.3-277.9c0.2,0.1,0.3,0.3,0.5,0.4c0.1-0.1,0.2-0.3,0.2-0.3
	c-0.1-0.2-0.3-0.3-0.5-0.5C791.4-278.1,791.4-278,791.3-277.9z M792.3-281.9c0.2,0.1,0.3,0.3,0.5,0.4c0.1-0.1,0.2-0.3,0.2-0.3
	c-0.1-0.2-0.3-0.3-0.5-0.5C792.4-282.1,792.4-282,792.3-281.9z M721.5-283.5c-0.1,0-0.3-0.1-0.4-0.1c-0.4,0.1-0.5,0.3-0.1,0.5
	c0.1,0,0.3,0,0.4-0.1C721.6-283.2,721.5-283.4,721.5-283.5z"/>
<path class="st1" d="M770.7-22.9c1.9,0.6,2.1,2.3,2.3,4c-22.5,17.9-48.4,27.9-76.4,33c-19.2,3.5-38.5,3.2-57.6,0.5
	c-11.7-1.7-23.1-5.1-34.3-9.3c-18-6.7-34.1-16.4-49.1-28.2c-9.4-7.4-18.3-15.5-25.6-24.8c-17.5-22.5-30.3-47.6-36.2-75.9
	c-6.8-32.2-4.5-63.7,6-94.8c6.8-20.3,17.5-38.4,30.8-55c8-10,17.6-18.1,27.2-26.4c7.6-6.6,16.2-11.4,24.8-16.2
	c31.2-17.2,64.7-23.8,100-20.7c41.9,3.7,77.9,20.5,108,49.9c-5.3,6.1-5.8,6.2-11.3,0.4c-5.7-6-13.3-9.1-19.8-13.9
	c-9.7-7.1-21.2-10.5-32.2-15c-10.7-4.4-21.7-5.8-33.2-7c-11.5-1.2-23-2.3-34.6-2.7c-6.1-0.2-11,3.5-16.9,3.6c-2.9,0-5.9,0.7-8.9,0.5
	c-4.5-0.2-8.5,0.2-11.7,4c-2.2,2.7-6.8,3.7-9,3.3c-7.1-1.3-9.3,5.2-14.2,7.2c-4.1,1.7-7.7,4.2-11.8,5.9c-7,3-13.5,7.4-19,12.5
	c-4,3.7-8.7,5.8-13.2,7.8c-5,2.2-9,4.9-12.2,8.9c-6.3,7.7-12.2,15.7-18.3,23.5c-1.5,1.8-3,3.6-3.8,5.8c-3.1,9-9.5,16.4-12,25.7
	c-0.4,1.5-1.2,2.7-2.7,3.4c-1.6,0.7-2.8,2.5-2.2,3.5c2.6,4.2-0.2,7.8-0.8,11.5c-1.2,7.2,0.2,14.5-0.8,21.7c-0.5,3.9,0.4,8-1.6,11.7
	c-0.3,0.5-0.5,1.4-0.3,1.9c3.9,9.9-0.4,20.7,2.9,30.6c2.4,7.3,3.6,14.3,2,21.8c-0.2,1.2,0.3,2.7,0.9,3.8
	c7.9,13.5,12.1,28.9,21.4,41.7c2.7,3.7,6,7.5,6.1,12.7c0,0.5,0.6,1.3,1.1,1.6c8,3.5,11.6,11.5,17.9,16.9c5.9,5.1,13.7,7.4,19.4,12.9
	c6.7,6.5,15.9,9,23.5,14.3c6.8,4.8,15.2,7.8,23.8,9.5c2.9,0.5,5.7,1.8,8.4,3c10.7,4.4,22.1,4.4,33.4,4.9c2.9,0.1,5.6,3.1,8.6,1.8
	c5.8-2.5,12.1-0.7,18-2.4c4.1-1.2,8.4,1.4,12.8-0.3c6.1-2.4,12.4-4.2,18.6-6.2c4.7-2,9.3-4.1,14.1-5.8c3.9-1.4,8.8-2.5,11.5-4.5
	c4.7-3.5,11.2-4.3,14.5-9.8c0.4-0.7,2.1-0.9,3.2-1.1C765.9-17.5,768.7-19.6,770.7-22.9z"/>
<path class="st1" d="M603.7-274.8c2.8,0.2,4.8-0.7,6.8-3c5.3-6,12.6-6.8,20.1-5.9c5.7,0.7,11.6,2.7,14.8-4.5
	c0.1-0.3,0.9-0.4,1.3-0.6c2,3.3,3.3,7.4,8,8c5.6,2.6,9.3-0.5,13-4c3.4,2.8,7.7,0.6,11.4,1.9c5,1.8,10.2,3,11,9.6
	c0.2,1.3,0.5,3.1,2.6,3c1.9-0.1,3.8,0.5,5.2-1.8c2-3.1,4.6-5.7,8.8-5.7c-1.4,2.9-4.3,4.5-6.5,6.7c-8.9,9.2-10.5,25.5-3.6,36.2
	c3.7,7.1,9.9,11,17,14c-1.6,3.3-3.3,0.2-4.9,0.1c-1.9-0.2-3.4-3.4-5.6-0.7c-1.8,2.2-1,4.4,0.2,6.5c2.4,4.2,1.7,7.8-1.7,11
	c-8.2,0.6-10.8,5.4-8,14.1c-1.9,1.4-2.5,0.3-3-1.5c-0.9-2.7,0.3-5.5-0.5-9.2c-4.6,4.8-6.5,10.3-9.7,15c-1.8,0.2-1.2-2.8-3.2-2.3
	c-2,3.8-3.9,7.7-5.9,11.4c-1.5,2.7-3.6,4.7-6.7,5.6c-1-0.1-2-0.1-3-0.3c-7.5-1.3-13.8,2.4-14.8,8.8c-1.1,6.6,3.2,11.9,10.8,13.4
	c0,0.4,0,0.7,0,1.1c-2.5,0-5,0-7.5-0.1c-26.5-0.8-45.3,28.8-32.9,53.3c1.3,2.6,2.9,5.2,4.4,7.7c-1.6,0-3.3,0-4.9,0
	c-1-6.9-4.7-11.3-10-12c-4.8-3.1-9.9-2.1-15-0.9c-0.3-0.4-0.7-0.9-1-1.3c-0.1,0.1-0.2,0.2-0.3,0.3c0.4,0.3,0.9,0.7,1.3,1
	c-2,2-4,4-6,6.1c-3.6-2.5-2.5-6.9-4.1-10.1c1.9-2.1,4-4,5.6-6.2c5.3-7.3,5.7-17,1.4-22.7c-0.2-1.1-0.8-1.8-2-2l0,0
	c-0.3-0.7-0.7-1.4-1-2l0,0c-3.2-6.4-8.6-9.2-15.4-10c-11.1-1.2-18.3,5-24.6,13c0.2-1.5,0.3-3,0.6-4.4c0.7-3.1,0.1-5.1-3.4-5.9
	c-1.9-0.4-3.7-1.6-4.3-3.7c1.1-0.4,2.2-0.8,3.2-1.3c12.9-6.3,15.9-23.1,5.7-31.6c-5.6-5.8-12.8-5.4-20-5c1.1-2.8,3.6-2,5.6-2
	c4.9-0.1,7.8-1.6,8.8-7.3c0.9-5.2,2.5-10,2.4-15.5c0-3.5,3.6-7.7,8.7-8.3c3.2-0.4,5.7-2.1,6.3-5.5c0.7-3.5-0.8-5.5-4.2-6.8
	c-3-1.2-3.1-6.1-0.1-6.6c6.4-0.9,7.2-6,9.4-10.2c0.5-1,1.1-1.6,2.2-1.9c-0.5,2.1-1.2,4.1-1.5,6.2c-1.6,9.8,0.8,14.9,8.5,18.8
	c5.5,5.1,15.2,5.1,20,0l0,0c10.7-3.7,11.9-23,0.9-29.9c-6.6-5.1-13.6-4.7-20.9-1.9c1.6-3.6,5.4-5.9,6-10.2c1.4,0.9,3.5,0.9,4,3
	c-0.7,0.8-1.2,1.9,0,2.5c1.2,0.6,1.7-0.5,2-1.5C595.5-259.9,603.6-265.2,603.7-274.8z M612.8-214.8c-0.8-0.9-1.9-1-3-1l0,0
	c-0.6-2.4-2.6-2.8-4.7-2.9c-6.1-0.4-11.3,1.6-14.9,6.5c-3.8,5.2-3.5,11.3-1.4,17.2c0.7,2.1,2.1,4.3,4.9,4.3c4,5.5,10,6.2,17.7,2.7
	c6.7-3.1,11.2-14.4,6.3-20.7C616.8-211.5,615.3-213.6,612.8-214.8L612.8-214.8z M629.7-199.8c-1.9,2.8-0.6,6-0.9,8.9
	c-0.2,6,4.5,8.8,7.9,12.6c8,8.9,22.8,6.4,30.4,0.7c10.9-8.2,11.4-31.9-4.4-39.2c-5-2.3-10.3-2.4-15.6-1.9
	C638.1-217.9,630-209,629.7-199.8L629.7-199.8z M581.7-160.8c3.2,3.7,7.1,2.4,10.2,0.6c3.5-2.1,3.6-5.9,1.9-9.6
	c-1.2-4.1-4.4-5.3-8.2-4.9c-3.2,0.3-6.9,1.4-7.1,5C578.4-166.7,577.1-162.4,581.7-160.8z M612.7-166.8c2.6,4.4,7,5.4,11.2,2.4
	c5.1-3.6,5.7-7.7,1.8-12.4c-5.4-3.6-9.7-4.1-12.5-0.7C610.5-174.3,609.5-170.6,612.7-166.8z"/>
<path class="st2" d="M770.7-22.9c-2,3.3-4.8,5.4-8.7,5.8c-1.1,0.1-2.7,0.3-3.2,1.1c-3.2,5.5-9.8,6.4-14.5,9.8
	c-2.7,2-7.6,3.1-11.5,4.5c-4.8,1.7-9.4,3.8-14.1,5.8c-2.5-3.1-5.9-1.7-8.3-0.8c-6.5,2.3-13,3.8-19.8,3.8c-5.8,0-11.5,1.1-17.3,1.6
	C665.7,9.4,658.3,8.2,651,7c-15.7-2.7-31.1-5.9-45.8-12.9c-19.7-9.5-36.7-22.3-52.1-37.5c-2.8-2.7-3-6.9-5.6-9.9
	c-1.2-1.3,0.2-2.5,1.8-2.5c1.3,0,2.6,0.5,3.9,0.7c1.2,0.1,2.6,0,2.7-1.4c0.1-1.3-1.3-1.2-2.2-1.3c-4.6-0.6-8.3-2.3-9.9-7
	c0.8-0.3,1.7-0.6,1.7-1.5c0.2-6.1,4.1-8,9.3-8.4c1.4-0.1,2.5-0.5,3-2c5.2,2.9,7.4,7,4.9,12.9c-0.3,0.7-0.4,1.8,0,2.3
	c0.7,1,1.8,0.4,2.7,0c2.5-1.3,4.9-2.8,7.4-4.1c7.1-3.7,11.7-3.3,16.9,2.6c3.9,4.4,7.8,6.7,13.8,4.6c2.3-0.8,4.3,0.1,4.3,3.1
	c0,1.3,0.6,2.2,1.9,2.6c-2,8.5-1.8,16.5,5.1,23c-1.6,2.5-3.3,1.7-4.8,0c-1.8-2-3.6-4-5.2-6.1c-1.7-2.2-2.9-1.6-4.1,0.4
	c-2.7,4.5-1.5,9.8,3.1,13c3.1,2.2,6.3,4.2,9.3,6.6c4.5,3.5,9.3,6.8,14.7,8.6c4.3,1.4,8.5,2.6,12.8,4.1c3.9,1.3,7.2,4.1,11.6,4.4
	c21.7,1.4,43.5,3.4,64.4-4.9c2.4-1,5.4,0.3,7.2-1.1c7.9-6.3,18.6-6,26.9-11.6c3.3-2.2,6.5-4.5,9.9-6.6c11.3-7,22.3-14.4,30.3-25.3
	c8.7-11.9,17.2-23.9,24.6-36.8c6.3-10.9,9.8-22.5,12.9-34.1c3.4-12.9,4.2-26.6,3.3-40.1c-0.5-8-0.1-16.4-5.4-23.4
	c-0.6-0.8-1-1.8-0.5-2.8c2.7-6.6,0-12.7-2.7-18.2c-2.9-5.9-7.1-10.8-8.6-17.9c-1-4.8-4.9-10.2-8.2-15c-2.6-3.7-6.8-5.3-8.8-9.1
	c-3.1-5.8-9.2-7.8-14.2-10.9c-5-3.1-12.9-1.1-15.1-8.9c-0.2-0.7-1.1-0.8-1.7-0.6c-1.3,0.6-1.4,1.8-1.1,3c1.4,4.3,1.7,8.8,1.6,13.3
	c-0.2,5.1,0.3,10.3-0.9,15.4c-0.3,1.4-0.5,3.1,1.1,4.1c1.6,0.9,2.8-0.2,4-1.1c1.8-1.4,3.7-2.8,5.6-4.2c2.5-1.8,4.9-0.8,6.9,0.9
	c2.5,2.1-0.3,3.4-1,5c-4.1,9.1-9.3,17.9-6,28.7c1.1,3.8,0.3,8.3-0.1,12.4c-0.1,1.5-0.2,4.7-3.6,2.8c3.3-6.8,2.9-13.3-2-19.3
	c-1.4-1.8-4-2.4-5-4.6c-0.2-0.6-0.3-1.4-1.2-1.3c-0.3,0.1-0.5,0.7-0.8,1.1c-2.4-0.1-4.8-0.1-7.1-0.2c-0.5-1.3-1.5-1.8-2.8-1.7
	c-4.2,0.3-4.7-1.6-4.4-5.4c0.5-6.2,0.2-12.4,0.2-18.6c3.2-9,4.7-18,0.5-27.3c-2.5-5.4-7-9-10.4-13.6c0-0.8,0-1.7,0-2.5
	c0.2-3.5-0.8-5.2-4.6-3.3c-2.6,1.2-5.5,1.1-9.3,0.1c6-2.2,8.3-6.6,10.8-11.2c1.9-3.3,5.6-2.3,8.6-1.7c15.9,3.5,28.3,13.1,40.4,23.1
	c14.5,11.9,22.4,28.6,32.7,43.7c10.3,15,11.9,32.2,16.3,48.7c2.7,10.1,2.8,21.2,1.4,32c-0.9,7.3-1.6,14.8-1.8,22.3
	c-0.1,2.8-2.6,3.7-3,6.1c-1.2,7.1-4,14-5,21.2c-0.4,2.9-2.8,4.8-4.1,7.3c-0.6,1.2-2.2,2.5-2,3.3c1.8,5.6-4,7.1-5.3,10.8
	c-2.8,8-9.1,13.7-13.2,20.9c-1.8,3.3-4.2,6.1-5.8,9.7c-1.5,3.4-5.9,4.3-8.5,7.1C782.2-33.5,776.3-28.3,770.7-22.9z"/>
<path class="st2" d="M636.7-63.9c2.9-3.4,7.6-5.2,9-10c24.4,2.1,43.9-17.4,42-41c1.7-3.3,1.3-6.5-0.1-9.9c-1-2.4-2-5.2,2.7-3.9
	c1.9,0.5,2.1-1,2.4-2.3c15.3-4.6,17.9-7.6,18-20c3.3,0.2,5.5-1,6.1-4.4c0.3-1.8,1.5-3,3.3-3.5c5.5-1.7,7.9-5.7,8.7-11
	c0.4-2.8,1.2-5.2,4.8-5.2c2.3,0,3.9-1.5,4-3.8c0.1-5,3-6.2,7.2-6.1c9,8.5,13.7,9.1,24.9,3c1.7,3.9,0.9,7.2-2.8,9.3
	c-6.2,3.5-8.7,9-10.4,15.7c-1.9,7.4-8.2,12.4-12.4,18.6c-2.7,4.1-3,7.9-1.5,12.1c0.7,2,1.8,3.9,2.7,5.8c2.3,4.9-0.2,12.1-4.7,13.5
	c-0.6-0.7-1.3-1.4-1.9-2.2c-4.2-6.4-9.8-10.3-17.7-9.7c-7.6,0.6-14.1,6.3-16.4,13.4c-3,9,2.2,21.7,15,24.6
	c-7.6,4.5-11.9,12.9-20.3,16.5c-1,0.4-1.5,1.3-1.4,2.4c0.8,4.6-1.6,7.9-4.3,11.1c-0.9-0.9-1.9-1.8-2.8-2.7c-8-7.5-18.4-5.3-22.2,4.6
	c-1.7-0.5-1.5-1.7-1.4-3.1c0.8-9.4,6-16.2,12.5-22.4c1.3-1.2,3-3.1,1.1-4.6c-1.9-1.5-2.6,1.1-3.7,2c-6.3,5.5-10.6,13.5-20.4,14.7
	c-3.3,0.4-6.2,3.8-5.3,8.3c0.5,2.3-0.2,4.3-2.7,5.1C646.8-55.6,643-60.7,636.7-63.9z"/>
<path class="st3" d="M687.7-114.8c1.9,23.6-17.6,43.1-42,41c-9.3-1.9-17.3-6.3-23.9-13c-1.5-2.6-3.1-5.1-4.4-7.7
	c-12.4-24.5,6.4-54.1,32.9-53.3c2.5,0.1,5,0.1,7.5,0.1c0.9,0.4,1.8,0.7,2.7,1.1c9.9,4.1,18.4,9.9,23.8,19.7
	C686.3-123.2,686.1-118.8,687.7-114.8z M676.7-111.1c-0.1-4.9,0.4-9.5-3.4-14c-5.3-6.4-12.9-6.3-19.6-8.7c-4.7-1.7-8,1.4-11.9,3.2
	c-8.1,3.6-12,10.3-14,18.2c-2,8,0.9,15.5,3.3,23c0.2,0.7,1,1.4,1.7,1.8c7.3,4.4,15.5,5.8,23.4,4C668.6-86.3,676.7-98.2,676.7-111.1z
	"/>
<path class="st2" d="M565.7-99.9c0.3,1,1.1,1.5,2,2.1c3.5,2.3,4.1,6,1.1,8.7c-6.6,6-13.8,10.1-23.4,7.7c-6-1.5-6.7-0.8-7.7,5
	c-0.2,1.2-0.3,2.4-1.6,2.8c-1.3,0.4-2.1-0.7-3-1.5c-7.9-7.2-10.7-21-6.3-30.7c0.3-0.7,0.6-1.5,0.8-2.3c0.5-2.3-1-5.7,2.3-6.4
	c3.2-0.6,6.5,0.9,9,3.1c2.6,2.3,4.7,5.1,7.1,7.6c3.3,3.4,6.5,3.6,9.7,0.7C559.3-102.7,562-99.7,565.7-99.9z"/>
<path class="st3" d="M739.7-276.8c3.4,4.6,8,8.2,10.4,13.6c4.2,9.3,2.7,18.3-0.5,27.3c0,0,0,0,0,0c-0.3,0-0.7,0-1,0
	c0.1-2.6-0.7-5.5,0.6-7.9c4.1-7.4-0.3-13.3-4.2-18.1c-8.3-10-20.7-11.5-32.9-5.5c-11.1,5.4-17,16.9-15,29.1c0.2,1.2,0.5,2.3-0.5,3.3
	c-6.9-10.8-5.3-27,3.6-36.2c2.2-2.2,5.1-3.8,6.5-6.7c2.1-0.5,4.3-0.7,6.3-1.4C722.4-282.5,731.1-280.6,739.7-276.8z"/>
<path class="st4" d="M636.7-63.9c6.2,3.2,10.1,8.3,12,15c0,1.3,0,2.6,0,4c0,9.2-5.2,16.8-14,19.3c-7.3,2.1-14,0.4-20-4.3
	c-6.9-6.5-7.1-14.5-5.1-23C615.8-63.9,622.2-66.4,636.7-63.9z M629.3-29.9c7.5,0,15.4-8.9,15.9-17.7c0.2-3.4-7.9-10.1-12.1-10.2
	c-6.2-0.1-14.3,8.9-14.3,15.9C618.7-33,621.5-29.9,629.3-29.9z"/>
<path class="st2" d="M588.7-132.9c4.4,5.8,3.9,15.4-1.4,22.7c-1.6,2.3-3.8,4.2-5.6,6.2c-2.5,0.6-4.3,3-7,3c-1-2.3-1.9-2.3-2.9,0
	c-0.7,0-1.4,0-2,0c-3.7-1.3-7.7-2.1-9-6.7c-0.2-0.6-1.2-1.1-1.9-1.5c-4.9-3.4-6.9-11.4-4-16.8c6.8-12.9,18.2-16.9,31-11c0,0,0,0,0,0
	c0.3,0.7,0.7,1.4,1,2c0,0,0,0,0,0C586.9-133.8,587.6-133.1,588.7-132.9z M574.5-108.9c3.3,0.2,6.1-0.9,8.3-4
	c5.5-7.8,5.3-10.5-1.7-17.1c-4.5-4.3-7.6-5-11.4-2.3c-5.6,3.9-9.4,11.5-7.7,15.7C563.9-111.7,568.4-108.9,574.5-108.9z"/>
<path class="st3" d="M585.8-136.9c-12.8-5.9-24.1-1.9-31,11c-2.8,5.3-0.9,13.3,4,16.8c0.7,0.5,1.7,0.9,1.9,1.5
	c1.3,4.6,5.3,5.4,9,6.7c-1.2,1.1-2.6,0.9-4,1c-3.7,0.2-6.4-2.8-9.9-3c-10.2-6.9-13.1-16.4-10.2-28c0.1-1,0.1-2,0.1-2.9c0,0,0,0,0,0
	c6.3-8,13.5-14.2,24.6-13C577.1-146.1,582.6-143.2,585.8-136.9z"/>
<path class="st2" d="M603.7-274.8c-0.2,9.6-8.2,15-18,12c-0.7-0.3-1.3-0.7-2-1c-0.5-2.1-2.6-2.1-4-3c-0.8-2.5-1.1-5.1-1-7.8
	c0.1-7.1,4.6-11.9,11.6-12.1C597.7-287,603.4-281.9,603.7-274.8z"/>
<path class="st2" d="M547.7-180.8c10.2,8.5,7.2,25.4-5.7,31.6c-1,0.5-2.1,0.9-3.2,1.3c-5.3,0.4-10.2-0.5-14.9-2.9
	c-1.5-0.8-2.4-1.7-3.1-3c2.1-3.2,0.6-7.2,0.2-10.1c-0.9-7.3,5-10.4,8.3-13.1c3.8-3,10.2-5.5,16.3-2.6
	C546.7-179,547.4-179.6,547.7-180.8z M527.8-162c0,1.7,0,3.3,1.2,4.7c5.1,5.7,14.6,5.4,19.3-0.7c2.7-3.5,3.1-9.5,0.8-12.6
	c-3.5-4.8-7.2-6.3-11.8-4.8C534.2-174.5,527.7-165.4,527.8-162z"/>
<path class="st3" d="M606.8-98.9c5.4,0.7,9.1,5.1,10,12c0.5,8.3-2.2,15.1-10.3,17.9c-8,2.8-16,1.9-19.8-6.8c0.2-0.6,0.6-1.4,0.4-1.9
	c-3.6-9.6,3.1-16.5,10-20.5C600.3-100,603.6-97.7,606.8-98.9z M614.7-84.2c-0.1-5.4-5.8-10.3-11.9-10.3c-4,0-11.3,9.6-11,14.6
	c0.1,2.6,7.5,9.9,10.1,9.9C606.8-69.9,614.8-78.8,614.7-84.2z"/>
<path class="st3" d="M573.7-224.8c-7.7-3.9-10.1-9-8.5-18.8c0.3-2.1,1-4.1,1.5-6.2c0,0,0,0,0,0c1.3-0.7,2.2-1.7,2.9-3
	c1.3-1.3,2.7-2.6,4-3.9c7.3-2.8,14.3-3.2,20.9,1.9c-1.2,1.3-2.7,1.8-4.4,1.9c-5.5,0.2-10.1,2.7-14.2,6.2c-6.1,5.1-7.1,12.8-2.5,19.3
	C574.2-226.5,574.5-225.7,573.7-224.8z"/>
<path class="st3" d="M547.7-180.8c-0.3,1.2-1,1.8-2.2,1.2c-6-2.9-12.5-0.4-16.3,2.6c-3.3,2.6-9.2,5.8-8.3,13.1
	c0.3,2.9,1.9,6.8-0.2,10.1c-6.4-5.6-8.8-21.7,3.3-29.5c1.2-0.8,2.5-1.6,3.7-2.4C534.9-186.2,542.1-186.6,547.7-180.8z"/>
<path class="st2" d="M667.7-284.8c-3.6,3.6-7.4,6.7-13,4c-0.3-2.7-3.6-4.2-2.7-7.7c1.6-6.1,6.7-8.6,13.7-6.4
	C669.6-292.1,667-288.2,667.7-284.8z"/>
<path class="st3" d="M665.7-294.8c-7-2.3-12.1,0.3-13.7,6.4c-0.9,3.4,2.4,4.9,2.7,7.7c-4.7-0.7-5.9-4.7-8-8c1.2-1.3,0.8-3.2,1.5-4.6
	c1.7-3.5,3.8-6.6,8.4-6.4C660.6-299.6,664.5-299.6,665.7-294.8z"/>
<path class="st4" d="M606.8-98.9c-3.1,1.2-6.5-1-9.6,0.8c-6.9,4-13.6,10.9-10,20.5c0.2,0.5-0.3,1.3-0.4,1.9
	c-3.1-3.1-4.1-10.3-2.2-14.7c0.5-1,0.8-2.1,1.2-3.2c2-2,4-4,6-6.1l0,0C596.9-101,602-102,606.8-98.9z"/>
<path class="st3" d="M557.8-76.9c-0.4,1.5-1.6,1.9-3,2c-5.2,0.5-9.1,2.4-9.3,8.4c0,0.9-0.9,1.3-1.7,1.5c0.2-3.4-0.7-6.8,2.1-9.8
	C549.5-78.4,553.5-77.9,557.8-76.9z"/>
<path class="st1" d="M809.6-257.2c-3.5-0.1-4.5-2-4.5-5.9C807-260.5,808.3-258.8,809.6-257.2z"/>
<path class="st1" d="M800.4-265.5c-1.3-0.3-1.8-1.3-2.1-2.5c-0.2-0.7,0.1-1.4,1-1.3c1.2,0.2,2.1,0.9,2.2,2.3
	C801.5-266.2,801.3-265.6,800.4-265.5z"/>
<path class="st2" d="M524.3-118.9c-0.1,1-0.6,1.6-1.6,1.5c-0.9-0.1-1.5-0.8-1.3-1.7c0.1-0.5,0.8-1.1,1.3-1.2
	C523.6-120.5,524.1-119.8,524.3-118.9z"/>
<path class="st1" d="M545.8-133.9c0,1-0.1,2-0.1,2.9C543.2-132,543.6-133,545.8-133.9z"/>
<path class="st1" d="M569.7-252.8c-0.7,1.3-1.7,2.3-2.9,3C566.7-251.8,567.7-252.9,569.7-252.8z"/>
<path class="st3" d="M571.8-100.9c1-2.3,1.9-2.3,2.9,0C573.7-100.9,572.8-100.9,571.8-100.9z"/>
<path class="st1" d="M791.3-277.9c0.1-0.1,0.2-0.2,0.2-0.3c0.2,0.1,0.4,0.3,0.5,0.5c0,0-0.1,0.2-0.2,0.3
	C791.6-277.6,791.5-277.7,791.3-277.9z"/>
<path class="st1" d="M792.3-281.9c0.1-0.1,0.2-0.2,0.2-0.3c0.2,0.1,0.4,0.3,0.5,0.5c0,0-0.1,0.2-0.2,0.3
	C792.6-281.6,792.5-281.7,792.3-281.9z"/>
<path class="st2" d="M721.5-283.5c0,0.1,0,0.3-0.1,0.4c-0.1,0.1-0.3,0.1-0.4,0.1c-0.4-0.2-0.4-0.4,0.1-0.5
	C721.3-283.6,721.4-283.5,721.5-283.5z"/>
<path class="st0" d="M687.7-114.8c-1.6-4-1.4-8.3-3.5-12.2c-5.3-9.8-13.8-15.6-23.8-19.7c-0.9-0.4-1.8-0.7-2.7-1.1
	c0-0.4,0-0.7,0-1.1c1.1,0,2.2-0.1,3-1c4.4-0.2,6.5-2.8,7-7c3.2-5.6-1.1-9.5-3.1-13.9c3-0.9,5.2-2.9,6.7-5.6c2-3.7,3.9-7.6,5.9-11.4
	c2-0.5,1.5,2.5,3.2,2.3c3.2-4.6,5.2-10.2,9.7-15c0.7,3.7-0.4,6.5,0.5,9.2c0.6,1.8,1.1,2.8,3,1.5c1.3,0.7,2.7,1.4,4,2.1
	c0.3,0.3,0.7,0.6,1,0.9c1.7,0,3.3,0,5,0c5.9-2.1,7.4-4.3,6-9c-0.7-5.8-2.5-7.6-8.1-8.1c3.4-3.2,4.1-6.8,1.7-11c-1.2-2-2-4.3-0.2-6.5
	c2.2-2.7,3.7,0.5,5.6,0.7c1.6,0.2,3.3,3.2,4.9-0.1c1.6,0.2,3.3,0.4,4.9,0.7c9.7,1.8,24.6-3.7,29.2-13.7c0.3-0.4,0.7-0.7,1-1.1
	c0.3-0.3,0.6-0.7,1-1c0,0,0,0,0,0c0,6.2,0.4,12.5-0.2,18.6c-0.3,3.8,0.1,5.8,4.4,5.4c1.2-0.1,2.3,0.4,2.8,1.7
	c-5.3,0.5-9.2,3.3-12,7.8c-3.6,5.9-2.1,11.7,0.1,17.5c-4.2-0.1-7.1,1.1-7.2,6.1c0,2.3-1.7,3.7-4,3.8c-3.6,0-4.4,2.4-4.8,5.2
	c-0.8,5.4-3.2,9.4-8.7,11c-1.7,0.5-2.9,1.7-3.3,3.5c-0.6,3.5-2.9,4.6-6.1,4.4c-1.1-3-1.6-6.4-4.9-8c-6.5-7.2-15.2-8-22.4-1.9
	c-5.2,4.4-6.6,10.3-5.4,16.7c1,4.8,3.2,9.2,8.7,10.3c1.6,1.8,3.4,3.1,6,2.9c-0.3,1.3-0.6,2.8-2.4,2.3c-4.7-1.3-3.7,1.5-2.7,3.9
	C689-121.4,689.3-118.1,687.7-114.8z"/>
<path class="st2" d="M747.7-233.8c-4.6,10-19.5,15.4-29.2,13.7c-1.6-0.3-3.3-0.5-4.9-0.7c-7-3-13.3-7-17-14c0.9-1,0.7-2.1,0.5-3.3
	c-2-12.2,3.9-23.7,15-29.1c12.2-6,24.7-4.5,32.9,5.5c3.9,4.7,8.3,10.7,4.2,18.1c-1.3,2.4-0.5,5.2-0.6,7.9c0,0,0,0,0,0
	C747.5-235.6,746.7-235.1,747.7-233.8z"/>
<path class="st2" d="M662.7-216.8c15.9,7.3,15.3,31,4.4,39.2c-7.6,5.7-22.4,8.2-30.4-0.7c-3.4-3.8-8.1-6.6-7.9-12.6
	c1.8-2.8,0.7-6,0.9-8.9c0,0,0,0,0,0c3.6-1.8,3.9-6,6.4-8.8c6.6-7.4,13.8-9.8,23-6.9C660.7-215.1,662.1-214.6,662.7-216.8z
	 M653.6-178.9c10.6,0.1,14.9-9.7,14.9-17.4c0-3.1-7.8-8.8-12.1-9.3c-3.8-0.5-9.5,2.8-11.5,6.7c-0.7,1.3-1.2,2.8-1.8,4.1
	C640.2-188.3,646.3-178.9,653.6-178.9z"/>
<path class="st0" d="M617.8-208.8c5,6.3,0.4,17.6-6.3,20.7c-7.7,3.5-13.7,2.8-17.7-2.7c-0.5-1.6-1-3.2-1.5-4.7
	c-1.1-2.9,0.8-11.8,3.1-13.5c4.3-3.3,8.6-6.7,14.5-6.8c0,0,0,0,0,0c0.8,0.9,1.9,1,3,1c0,0,0,0,0,0
	C613.4-212,614.5-209.5,617.8-208.8z"/>
<path class="st2" d="M573.7-224.8c0.8-0.9,0.5-1.7-0.1-2.6c-4.5-6.5-3.6-14.2,2.5-19.3c4.1-3.4,8.6-6,14.2-6.2
	c1.7-0.1,3.2-0.6,4.4-1.9c11,6.9,9.8,26.2-0.9,29.9c0.3-2.4,2-4.1,3.3-6c1.7-2.6,3.5-5.2,1.8-8.8c-2.2-4.8-8.2-7.6-12.8-5.6
	c-6.2,2.6-10.8,9.8-8.9,14.4c1.3,3.1,4,5.3,6.5,7.4c2.2,1.8,4.3-0.4,6.2-1.6c1.3-0.8,2.6,0.2,3.9,0.3
	C589-219.7,579.2-219.7,573.7-224.8z"/>
<path class="st3" d="M660.7-149.9c-0.8,0.8-1.9,1-3,1c-7.7-1.5-11.9-6.8-10.8-13.4c1-6.4,7.3-10.1,14.8-8.8c1,0.2,2,0.2,3,0.3
	c2,4.4,6.3,8.4,3.1,13.9c-1.1-1.2-0.8-2.8-1.1-4.3c-0.9-3.7-4.8-6.3-8.3-5.6c-4.3,1-7.5,5.7-6.7,9.5
	C652.7-152.2,656.9-151.3,660.7-149.9z"/>
<path class="st3" d="M609.8-215.8c-5.9,0-10.2,3.4-14.5,6.8c-2.3,1.8-4.1,10.6-3.1,13.5c0.6,1.5,1,3.1,1.5,4.7
	c-2.9,0-4.2-2.2-4.9-4.3c-2.1-5.9-2.4-11.9,1.4-17.2c3.6-4.8,8.8-6.9,14.9-6.5C607.1-218.6,609.1-218.3,609.8-215.8z"/>
<path class="st0" d="M625.8-176.9c3.9,4.8,3.3,8.9-1.8,12.4c-4.2,2.9-8.6,2-11.2-2.4c1.2-1.4,0.7-3.1,1.1-4.7c0.9-3.5,2.6-6.4,7-5.8
	C622.5-177.1,624.1-177,625.8-176.9z"/>
<path class="st0" d="M593.8-169.9c1.7,3.7,1.6,7.5-1.9,9.6c-3.1,1.9-7,3.1-10.2-0.6C582.8-170.6,585.9-173,593.8-169.9z"/>
<path class="st3" d="M662.7-216.8c-0.6,2.1-2,1.7-3.5,1.2c-9.2-2.9-16.5-0.5-23,6.9c-2.5,2.8-2.8,7-6.4,8.8
	c0.3-9.1,8.4-18,17.4-18.8C652.4-219.2,657.7-219.1,662.7-216.8z"/>
<path class="st3" d="M701.7-204c5.6,0.5,7.4,2.4,8.1,8.1c-1-0.2-1.7-0.9-2.3-1.7c-3.6-4.2-6.4-3.9-9.9,0.2c-2.9,3.5-1,6.3,0.2,9.5
	c-1.3-0.7-2.7-1.4-4-2.1C690.8-198.6,693.5-203.4,701.7-204z"/>
<path class="st2" d="M593.8-169.9c-7.8-3.1-11-0.8-12.1,9c-4.7-1.6-3.4-5.9-3.2-8.9c0.2-3.7,3.9-4.7,7.1-5
	C589.4-175.1,592.6-174,593.8-169.9z"/>
<path class="st3" d="M625.8-176.9c-1.6-0.1-3.3-0.2-4.9-0.5c-4.4-0.6-6.1,2.3-7,5.8c-0.4,1.5,0.1,3.3-1.1,4.7
	c-3.3-3.7-2.2-7.5,0.5-10.7C616-180.9,620.4-180.5,625.8-176.9z"/>
<path class="st3" d="M617.8-208.8c-3.3-0.7-4.4-3.2-5-6C615.3-213.6,616.8-211.5,617.8-208.8z"/>
<path class="st0" d="M583.8-263.8c0.7,0.3,1.3,0.7,2,1c-0.3,1-0.8,2.1-2,1.5C582.6-262,583.1-263,583.8-263.8z"/>
<path class="st3" d="M629.7-199.8c-0.2,3,0.9,6.1-0.9,8.9C629.1-193.9,627.8-197,629.7-199.8z"/>
<path class="st0" d="M591.8-99.8c-0.4-0.3-0.9-0.7-1.3-1c0.1-0.1,0.2-0.2,0.3-0.3C591.1-100.7,591.5-100.3,591.8-99.8
	C591.8-99.8,591.8-99.8,591.8-99.8z"/>
<path class="st3" d="M588.7-132.9c-1.1-0.2-1.8-0.9-2-2C587.9-134.7,588.5-134,588.7-132.9z"/>
<path class="st3" d="M612.8-214.8c-1.1,0-2.2-0.1-3-1C610.9-215.9,611.9-215.7,612.8-214.8z"/>
<path class="st3" d="M586.8-134.9c-0.3-0.7-0.7-1.4-1-2C586.1-136.2,586.4-135.5,586.8-134.9z"/>
<path class="st3" d="M614.7-29.9c6,4.7,12.7,6.5,20,4.3c8.7-2.6,13.9-10.1,14-19.3c0-1.3,0-2.6,0-4c2.6-0.8,3.2-2.8,2.7-5.1
	c-0.9-4.6,2-7.9,5.3-8.3c9.8-1.2,14.1-9.2,20.4-14.7c1.2-1,1.8-3.6,3.7-2c1.9,1.5,0.2,3.4-1.1,4.6c-6.5,6.2-11.7,13-12.5,22.4
	c-0.1,1.5-0.4,2.6,1.4,3.1c-1.5,7.3,0.8,13.2,6.3,15.8c6.2,3,12.8,1.2,17.2-4.6c3.1-4,1.1-8.7,1.6-13c2.7-3.2,5.1-6.5,4.3-11.1
	c-0.2-1.1,0.4-2,1.4-2.4c8.4-3.5,12.7-12,20.3-16.5c9.3-0.2,16.6-3.4,20.8-12.4c2.2-4.7,0.4-9.1,0.2-13.6c4.5-1.3,7-8.6,4.7-13.5
	c-0.9-1.9-2-3.8-2.7-5.8c-1.5-4.2-1.2-8,1.5-12.1c4.1-6.2,10.5-11.2,12.4-18.6c1.7-6.7,4.2-12.2,10.4-15.7c3.8-2.1,4.5-5.4,2.8-9.3
	c0.8-1.5,1.4-3.1,3-4c3.4,1.9,3.4-1.3,3.6-2.8c0.4-4.1,1.2-8.6,0.1-12.4c-3.3-10.9,2-19.6,6-28.7c0.7-1.6,3.5-2.9,1-5
	c-2-1.7-4.3-2.6-6.9-0.9c-1.9,1.3-3.8,2.7-5.6,4.2c-1.2,0.9-2.4,2.1-4,1.1c-1.6-0.9-1.4-2.7-1.1-4.1c1.2-5.1,0.7-10.3,0.9-15.4
	c0.1-4.5-0.2-9-1.6-13.3c-0.4-1.2-0.3-2.4,1.1-3c0.7-0.3,1.5-0.1,1.7,0.6c2.2,7.8,10.2,5.9,15.1,8.9c5.1,3.2,11.2,5.1,14.2,10.9
	c2,3.8,6.2,5.4,8.8,9.1c3.3,4.8,7.2,10.2,8.2,15c1.6,7.1,5.7,12,8.6,17.9c2.7,5.5,5.4,11.6,2.7,18.2c-0.4,1-0.1,2,0.5,2.8
	c5.3,7,4.9,15.4,5.4,23.4c0.8,13.5,0.1,27.2-3.3,40.1c-3.1,11.6-6.6,23.2-12.9,34.1c-7.4,12.9-15.9,24.9-24.6,36.8
	c-8,10.9-19,18.3-30.3,25.3c-3.4,2.1-6.6,4.4-9.9,6.6c-8.3,5.6-18.9,5.3-26.9,11.6c-1.8,1.4-4.8,0.2-7.2,1.1
	c-20.9,8.3-42.7,6.3-64.4,4.9c-4.4-0.3-7.7-3-11.6-4.4c-4.2-1.5-8.5-2.7-12.8-4.1c-5.4-1.7-10.2-5-14.7-8.6c-3-2.3-6.2-4.4-9.3-6.6
	c-4.6-3.2-5.8-8.5-3.1-13c1.2-2,2.4-2.6,4.1-0.4c1.6,2.1,3.4,4.1,5.2,6.1C611.5-28.2,613.1-27.4,614.7-29.9z M729.5-58.1
	c-3.9-1.5-6.4-3.7-9.7-3.9c-7.6-0.4-13.5,2.8-16.7,9.4c-3.1,6.3-1.9,14.9,2.6,20.1c1.3,1.4,3.6,2.6,2.5,4.9
	c-1.1,2.2-3.5,1.6-5.4,1.6c-5.8,0-11.6,0.3-17.4,1.1c-3.5,0.5-7.9,2.2-10.7-2.3c-0.5-0.8-1.8-0.9-2.7-0.3c-1,0.6-1.2,1.7-0.7,2.6
	c1.2,2.6,1.5,5.4,2.1,8.2c0.6,2.7,2.5,3.8,5.2,3.6c10.7-0.7,21.2,1.2,31.9,1.1c6.2,0,11-1.1,14.2-7c1.6-2.9,4-4.8,7.7-2.2
	c1.6,1.1,3.8,1.5,5.8,0.8c5.6-2.1,11.6-3.3,16.5-6.9c5.2-3.8,11-7.2,15.5-11.7c4.6-4.5,11.1-7.6,12.3-15.1c0.4-2.6,3-3.4,5.1-4.4
	c4.5-2.2,7.6-5.2,8.5-10.7c1.2-7.1,5.6-13.4,9.9-18.6c3.1-3.7,5.2-7.6,7.7-11.6c3.6-5.6,4.4-11.8,5.6-17.8c1.3-6.2,4.1-12.9-1.2-19
	c-1.3-1.5-1.7-4.1,0.7-6.3c4.4-4,4.1-5.2-1.2-7.9c-4.3-2.2-4.9-5.7-1.7-9.3c3.2-3.7,5.7-7.8,6.9-12.5c2.1-7.7,1.4-14.8-3.9-21.1
	c-5.9-6.9-13.2-10.9-22.4-9.4c-12.5,2.1-19,10.8-20,23.2c-0.9,11.5,9.3,23.3,19.8,24.4c1.3,0.1,2.8,0.1,3.2,1.8
	c0.3,1.3-0.4,2.2-1.4,2.9c-1.4,0.9-2.7,1.2-4.1-0.1c-1.6-1.5-3.1-3-4.8-4.3c-1.3-1-2.7-1.4-3.4,1c-1,4-2.8,2.8-4.8,0.6
	c-1.5-1.7-2.6-1.8-3.4,0.7c-0.4,1.4-1.5,2.6-2.4,3.7c-2,2.6-2.7,4.3,1.8,5.1c3.4,0.6,7-0.1,10.1,2.2c1.4,1,3.9,1.1,3.3,3.6
	c-0.6,2.5-2.9,1.7-4.6,1.8c-12.3,0.7-20,8.8-20,21c0,2.5,0.4,5,0.5,7.5c0,2-0.9,3.9-2.9,4.1c-2.6,0.2-2.5-2.2-2.5-4
	c0-1.5,0.3-3,0.7-4.4c1.5-6.4,3.5-12.8,2.2-19.6c-0.3-1.3-0.4-2.9-2.1-2.9c-2-0.1-1.9,1.6-1.8,2.9c0.1,4.7-2,8.1-5.7,11
	c-2.9,2.3-4.5,5.5-4,9.7c0.6,4.1-0.9,7.9-3.9,10.9c-2.6,2.5-3.1,4.5,0.4,6.7c1.8,1.1,2.7,3,0,4.1c-3.3,1.3-3.8,3.7-4,6.7
	c-0.4,6.4-3.4,11-9.9,12.8c-1.8,0.5-2.9,1.6-3,3.5C729.6-63.7,728.5-61.3,729.5-58.1z"/>
<path class="st4" d="M772.7-185.9c-1.6,0.9-2.2,2.5-3,4c-11.2,6.1-15.9,5.5-24.9-3c-2.2-5.8-3.7-11.7-0.1-17.5
	c2.8-4.5,6.6-7.2,12-7.8c2.4,0.1,4.8,0.1,7.1,0.2c0.6,0,1.3,0.1,1.9,0.1c1.1,2.2,3.6,2.9,5,4.6C775.6-199.2,776-192.7,772.7-185.9z
	 M749.4-190.4c-0.1,7.3,2.2,9.2,9.4,9.7c5.1,0.4,6.6-3.4,9.5-5.9c4.4-3.8,3.3-12.5-2.1-14.7c-5.2-2.1-9.8,0.7-14.2,2.8
	C749-197.1,748.9-193.7,749.4-190.4z"/>
<path class="st0" d="M765.7-209.8c-0.6,0-1.3-0.1-1.9-0.1c0.3-0.4,0.5-1.1,0.8-1.1C765.4-211.3,765.5-210.4,765.7-209.8z"/>
<path class="st4" d="M740.7-106.9c0.2,4.5,2,8.9-0.2,13.6c-4.2,9-11.5,12.2-20.8,12.4c-12.7-2.9-18-15.6-15-24.6
	c2.4-7.1,8.9-12.8,16.4-13.4c7.9-0.6,13.5,3.3,17.7,9.7C739.4-108.3,740.1-107.6,740.7-106.9z M721.8-85.9c7,0,15.7-7.1,15.8-12.9
	c0.1-5.2-7.3-12.1-12.9-12.1c-5.6,0-14,8.2-13.9,13.5C710.8-91.7,716.4-85.9,721.8-85.9z"/>
<path class="st4" d="M693.7-50.9c-0.5,4.4,1.5,9-1.6,13c-4.4,5.8-11,7.6-17.2,4.6c-5.5-2.6-7.8-8.4-6.3-15.8
	c3.8-9.9,14.3-12.1,22.2-4.6C691.8-52.7,692.7-51.8,693.7-50.9z"/>
<path class="st3" d="M705.8-158.9c3.3,1.6,3.8,5,4.9,8c-0.1,12.4-2.7,15.3-18,20c-2.5,0.1-4.4-1.1-6-2.9c-0.2-1.8-1.5-2.9-2.6-4.1
	c-5.2-5.5-1.2-20,6.3-21.2C695.4-160,700.7-161.4,705.8-158.9z M698.3-155.8c-1.8,0.5-4.2,0.9-6.2,1.9c-3.8,1.9-5.6,5.1-5.3,9.3
	c0.4,4.7,2.6,8.5,6.7,10.3c3.7,1.7,6.1-1.4,8.2-4.1c0.8-1,2-1.7,2.9-2.7c2.6-3,2.6-6.4,0.9-9.8C704.1-153.5,702.2-155.8,698.3-155.8
	z"/>
<path class="st2" d="M676.7-111.1c0,12.8-8.1,24.7-20.5,27.5c-7.9,1.8-16.1,0.4-23.4-4c-0.7-0.4-1.4-1.1-1.7-1.8
	c-2.4-7.5-5.3-15.1-3.3-23c2-7.9,5.9-14.6,14-18.2c3.9-1.7,7.1-4.9,11.9-3.2c6.7,2.4,14.2,2.3,19.6,8.7
	C677.1-120.6,676.6-116,676.7-111.1z"/>
<path class="st2" d="M749.7-235.9c-0.3,0.3-0.6,0.7-1,1c0-0.3,0-0.7,0-1c0,0,0,0,0,0C749-235.8,749.4-235.9,749.7-235.9z"/>
<path class="st3" d="M629.3-29.9c-7.8,0-10.6-3.1-10.6-12c0-7,8.1-16,14.3-15.9c4.2,0,12.3,6.8,12.1,10.2
	C644.8-38.8,636.8-29.9,629.3-29.9z"/>
<path class="st0" d="M574.5-108.9c-6.1,0-10.6-2.9-12.5-7.8c-1.6-4.2,2.1-11.8,7.7-15.7c3.8-2.6,6.8-2,11.4,2.3
	c7,6.7,7.2,9.4,1.7,17.1C580.6-109.8,577.8-108.7,574.5-108.9z"/>
<path class="st0" d="M527.8-162c0-3.4,6.4-12.4,9.6-13.5c4.6-1.5,8.3,0.1,11.8,4.8c2.3,3.2,1.9,9.1-0.8,12.6
	c-4.7,6.1-14.2,6.4-19.3,0.7C527.8-158.7,527.8-160.3,527.8-162z"/>
<path class="st2" d="M614.7-84.2c0.1,5.4-7.9,14.3-12.8,14.2c-2.6-0.1-9.9-7.3-10.1-9.9c-0.3-4.9,7-14.6,11-14.6
	C608.9-94.6,614.6-89.6,614.7-84.2z"/>
<path class="st2" d="M660.7-149.9c-3.8-1.4-8-2.3-9.1-7.3c-0.8-3.9,2.4-8.6,6.7-9.5c3.4-0.8,7.3,1.9,8.3,5.6c0.3,1.4,0,3,1.1,4.3
	C667.2-152.7,665.1-150.1,660.7-149.9z"/>
<path class="st4" d="M705.8-158.9c-5.1-2.5-10.4-1.1-15.4-0.3c-7.4,1.2-11.4,15.8-6.3,21.2c1.1,1.2,2.4,2.3,2.6,4.1
	c-5.6-1.2-7.8-5.5-8.7-10.3c-1.3-6.4,0.2-12.3,5.4-16.7C690.6-166.9,699.3-166.1,705.8-158.9z"/>
<path class="st2" d="M697.7-187.8c-1.2-3.1-3.1-6-0.2-9.5c3.4-4.1,6.2-4.4,9.9-0.2c0.7,0.8,1.3,1.4,2.3,1.7c1.4,4.7-0.1,6.9-6,9
	c-1.6-3.1-3.3-2-5,0C698.4-187.2,698.1-187.5,697.7-187.8z"/>
<path class="st3" d="M698.7-186.9c1.7-2,3.3-3.1,5,0C702-186.9,700.4-186.9,698.7-186.9z"/>
<path class="st3" d="M748.7-235.8c0,0.3,0,0.7,0,1c-0.3,0.4-0.7,0.7-1,1.1C746.7-235.1,747.5-235.6,748.7-235.8z"/>
<path class="st0" d="M653.6-178.9c-7.3-0.1-13.4-9.4-10.4-16c0.6-1.4,1.1-2.8,1.8-4.1c2-3.9,7.8-7.2,11.5-6.7
	c4.2,0.6,12.1,6.3,12.1,9.3C668.6-188.5,664.2-178.8,653.6-178.9z"/>
<path class="st0" d="M593.7-224.8c-1.3-0.1-2.6-1.1-3.9-0.3c-1.9,1.3-4,3.4-6.2,1.6c-2.5-2-5.3-4.2-6.5-7.4
	c-1.9-4.6,2.7-11.8,8.9-14.4c4.6-1.9,10.6,0.8,12.8,5.6c1.6,3.5-0.1,6.1-1.8,8.8C595.7-229,594.1-227.3,593.7-224.8
	C593.7-224.9,593.7-224.8,593.7-224.8z"/>
<path class="st4" d="M729.5-58.1c-1-3.3,0.1-5.6,0.3-8.1c0.1-1.9,1.2-3,3-3.5c6.5-1.8,9.5-6.3,9.9-12.8c0.2-3.1,0.7-5.4,4-6.7
	c2.7-1.1,1.8-3,0-4.1c-3.5-2.2-3-4.2-0.4-6.7c3-3,4.5-6.8,3.9-10.9c-0.6-4.2,1.1-7.4,4-9.7c3.7-2.9,5.8-6.2,5.7-11
	c0-1.3-0.1-3,1.8-2.9c1.7,0.1,1.8,1.6,2.1,2.9c1.3,6.8-0.7,13.2-2.2,19.6c-0.3,1.4-0.7,2.9-0.7,4.4c0,1.8-0.1,4.2,2.5,4
	c2-0.2,2.9-2.1,2.9-4.1c0-2.5-0.5-5-0.5-7.5c0-12.2,7.8-20.3,20-21c1.7-0.1,4.1,0.7,4.6-1.8c0.6-2.5-1.9-2.5-3.3-3.6
	c-3.1-2.3-6.8-1.6-10.1-2.2c-4.5-0.8-3.8-2.4-1.8-5.1c0.9-1.2,1.9-2.4,2.4-3.7c0.8-2.5,1.9-2.4,3.4-0.7c1.9,2.2,3.7,3.4,4.8-0.6
	c0.6-2.4,2.1-1.9,3.4-1c1.7,1.3,3.3,2.8,4.8,4.3c1.3,1.3,2.7,1,4.1,0.1c1-0.7,1.7-1.6,1.4-2.9c-0.4-1.7-1.8-1.7-3.2-1.8
	c-10.5-1.1-20.6-12.9-19.8-24.4c0.9-12.3,7.4-21.1,20-23.2c9.2-1.5,16.5,2.4,22.4,9.4c5.3,6.3,6,13.4,3.9,21.1
	c-1.3,4.8-3.7,8.9-6.9,12.5c-3.2,3.7-2.6,7.1,1.7,9.3c5.3,2.7,5.6,3.9,1.2,7.9c-2.4,2.1-1.9,4.8-0.7,6.3c5.3,6.2,2.4,12.9,1.2,19
	c-1.2,6-2,12.2-5.6,17.8c-2.5,3.9-4.6,7.8-7.7,11.6c-4.4,5.2-8.7,11.5-9.9,18.6c-0.9,5.5-4,8.5-8.5,10.7c-2.1,1-4.7,1.8-5.1,4.4
	c-1.2,7.5-7.7,10.6-12.3,15.1c-4.6,4.5-10.3,7.8-15.5,11.7c-5,3.6-10.9,4.8-16.5,6.9c-2,0.7-4.2,0.3-5.8-0.8
	c-3.7-2.6-6.2-0.7-7.7,2.2c-3.2,5.9-8.1,7-14.2,7c-10.7,0.1-21.2-1.8-31.9-1.1c-2.7,0.2-4.6-1-5.2-3.6c-0.6-2.8-0.9-5.6-2.1-8.2
	c-0.4-0.9-0.3-2,0.7-2.6c0.9-0.6,2.2-0.5,2.7,0.3c2.8,4.5,7.2,2.8,10.7,2.3c5.8-0.9,11.6-1.1,17.4-1.1c1.9,0,4.3,0.6,5.4-1.6
	c1.1-2.4-1.2-3.5-2.5-4.9c-4.5-5.2-5.7-13.8-2.6-20.1c3.2-6.6,9.2-9.8,16.7-9.4C723.1-61.7,725.5-59.6,729.5-58.1z"/>
<path class="st3" d="M749.4-190.4c-0.5-3.3-0.4-6.7,2.6-8.1c4.4-2.1,9-4.8,14.2-2.8c5.4,2.2,6.5,10.9,2.1,14.7
	c-2.8,2.5-4.4,6.3-9.5,5.9C751.6-181.3,749.3-183.1,749.4-190.4z"/>
<path class="st3" d="M721.8-85.9c-5.4,0-11-5.8-11-11.5c-0.1-5.3,8.3-13.4,13.9-13.5c5.6,0,13,6.9,12.9,12.1
	C737.4-93,728.8-85.9,721.8-85.9z"/>
<path class="st2" d="M698.3-155.8c3.9,0,5.9,2.3,7.2,5.1c1.7,3.3,1.7,6.8-0.9,9.8c-0.9,1-2.1,1.7-2.9,2.7c-2.2,2.6-4.6,5.7-8.2,4.1
	c-4.1-1.8-6.3-5.7-6.7-10.3c-0.3-4.3,1.5-7.5,5.3-9.3C694.1-154.9,696.4-155.3,698.3-155.8z"/>
<g>
	<path class="st5" d="M275.4,403.9c5.6-0.5,11.1-0.9,16.7-1.5c3.7-0.3,6.7,0.9,7.2,4.9c0.5,4-1.2,7.1-5.5,8
		c-6.3,1.4-12.8,2.2-20.8,2.8c5.9,3.7,10.8,6.8,15.7,9.8c2.9,1.8,4.7,4.2,4,7.7c-1,4.9-5.8,7.4-10.2,4.7
		c-12.7-7.7-25.3-15.6-37.8-23.6c-4.9-3.2-4.8-9.2,0.3-12.1c9.9-5.6,19.4-12,29.7-16.9c2.2-1.1,4-2.9,6.1-3.9
		c3.7-1.7,6.9-0.6,8.9,2.8c2.1,3.5,1.3,6.8-2,9c-4,2.7-8.3,5.1-12.5,7.6C275.3,403.5,275.4,403.7,275.4,403.9z"/>
	<path class="st5" d="M350.4,388.2c-0.1,2.6-1.7,4.2-3.7,5.5c-7.9,5.3-16.4,9.6-25.2,13.1c-4,1.6-7.1,0.1-8.9-3.6
		c-1.7-3.5-0.4-7.2,3.4-9c8.2-3.7,16.2-7.7,23.8-12.5c2.4-1.5,4.9-1.3,7.4,0.3C349.6,383.5,350.4,385.6,350.4,388.2z"/>
	<path class="st5" d="M420.8,265.7c-0.2,2.9-0.4,5.9-0.7,8.8c-0.5,4.1-3.2,6.1-7.1,6.1c-4.1,0-6.1-2.7-6.6-6.6
		c-0.2-1.4,0-2.9,0.2-4.4c0.7-7.3,0.8-14.7,0.1-22.1c-0.4-3.9,1-7.1,4.8-8c5.2-1.2,8.4,1.3,9,6.6
		C421.2,252.6,421.2,259.2,420.8,265.7z"/>
	<path class="st5" d="M358.7,368.3c6.2-6.7,12.5-13.2,18-20.4c1.5-1.9,3.3-3.7,5.5-4.3c2.7-0.8,5.2,0.2,7,2.4
		c1.9,2.4,2.3,5.2,0.4,7.7c-6.4,8.7-13.2,17.1-21.9,23.7c-0.9,0.2-1.8,0.4-2.7,0.6c-4.7-1-6.7-4-6.8-8.6
		C358.3,369,358.5,368.7,358.7,368.3z"/>
	<path class="st5" d="M414.7,303c-2.3,8.8-5.9,18.4-10.8,27.4c-1.6,2.9-4.7,3.9-8.1,2.6c-3.4-1.3-4.7-3.7-3.9-7.3
		c0.3-1.4,0.4-2.8,1-4.2c3.3-7.1,6.3-14.3,8.3-21.9c1-3.8,3.7-6.4,8-5.5C413.1,295,415.5,297.3,414.7,303z"/>
</g>
<path class="st5" d="M216.8,86.7c1.9,3.6,0.2,8.2-3.5,9c-8,1.8-15.9,3.6-23.6,6.3c-3.2,1.1-6-0.5-7.2-3.8c-1.2-3.1-0.4-5.8,2.7-7.2
	c8.3-3.7,17.1-5.7,26.1-7.1C213.6,83.5,215.6,84.9,216.8,86.7z"/>
<path class="st5" d="M135,135.3c0.7,2.2,0.8,4.5-1,6.6c-4.8,5.9-8.9,12.3-12.6,18.9c-1.7,2.9-4.5,4.5-7.6,2.8
	c-2.5-1.3-4.6-3.3-3.2-7.2c3.5-9.3,9.3-16.9,16.1-23.8C128.8,130.6,133.5,132.2,135,135.3z"/>
<path class="st5" d="M111.6,185.2c-2.5,5.7-3.4,11.8-4.4,17.9c-0.9,5-3.2,7.3-7.1,6.9c-3.9-0.5-6-3.8-5-8.8
	c1.2-6.5,2.8-12.9,4.2-19.3c0.2-0.5,0.4-1,0.5-1.5c1.3-1.4,1-3.9,3-4.8c2.4-1.1,4.7-2,7.2-0.1c2.4,1.8,2.7,4.2,2.2,6.9
	C112,183.3,111.8,184.2,111.6,185.2C111.6,185.2,111.6,185.2,111.6,185.2z"/>
<path class="st5" d="M97.3,254.6c-1.2-2.1-1.4-4.9-1.8-7.6c-0.9-5.9-1.6-11.9-2-17.9c-0.3-4.1,2.3-6.9,5.9-7.1
	c3.5-0.1,6.1,2.2,6.3,6.2c0.5,7.6,1.5,15.1,3,22.5c0.7,3.3-0.6,6.1-4,7.2C101.7,258.9,99.1,257.9,97.3,254.6z"/>
<path class="st5" d="M150,125.4c-3.9,2.1-7.5,1.1-9-2.1c-1.5-3.1,0.2-5.8,2.9-8.2c4.2-3.7,8.7-6.9,13.2-10.2
	c1.9-1.3,3.8-2.6,5.8-3.7c3.5-1.8,7.1-0.8,8.5,2.3c1.5,3.3,0.9,6.1-2.4,8.1C162.1,115.9,155.6,120.7,150,125.4z"/>
<path class="st5" d="M249.1,95.2c-4.3-0.3-8.6-0.7-12.8-1c-4.2-0.3-6.7-2.6-6.7-6.3c0-3.5,2.7-6,6.9-5.9c5.6,0.2,11.1,0.7,16.7,1.1
	c0.9,1.7,2.1,0.2,3.2,0.4c5.6,1.6,6,8.4,1.7,11.4c-2,1.4-4.4,0.5-6.6,0.7C250.7,95.2,250,94.8,249.1,95.2z"/>
<g>
	<circle class="st0" cx="389.6" cy="111.3" r="109.4"/>
	<path class="st2" d="M368.8,209.1c-19.4-0.2-35.5-9.5-51.5-19.1c-5.3-3.2-11.6-6.3-11.6-13.4c0.1-8.9,9.4-9.1,13.9-9.1
		c46.8,0.2,67.8-35.1,92.7-65.6c24.4-29.9,26.8-55.7,6.7-88.2c24.6-4.8,51.4,36.1,50.1,41.4c-6.3,3.8-10.9,9.1-12.3,16.4
		c-8.9,46.7-36.9,80.5-74.6,106.5C369.9,186.6,366.7,196,368.8,209.1z"/>
	<path class="st4" d="M474.7,76.5c18.8,22.6,4.3,47.9,5.9,71.8c1,1-46.4,48.6-70.6,53.8c-13.7,2.9-26.8,8.4-41.2,6.9
		c-2-13.2,1.2-22.5,13.5-31c37.8-26,65.7-59.8,74.6-106.5c1.4-7.3,6-12.6,12.3-16.4c1.9,5.3,3.7,10.6,5.6,15.9
		C474.7,73,474.7,74.8,474.7,76.5"/>
	<path class="st2" d="M474.7,76.6c0-1.8,0-3.6,0.1-5.4c3.8-0.1,7.6-0.2,11.5-0.3c9,26.6,10.8,52.7-5.7,77.5
		C478.9,124.4,493.4,99.1,474.7,76.6L474.7,76.6z"/>
	<path class="st1" d="M354.3,23.3c10.8-0.4,21.2,0.6,30.9,6.2c25,14.5,26.5,24.4,8,46.3c-12,14.2-23.7,28.8-34.1,44.2
		c-11.3,16.8-26,26.1-45,18.2c-19.4-8-21.9-27.7-19.7-45.5c3-24.3,22.4-41.5,32.7-62.9C331.1,21.2,344.5,23.4,354.3,23.3z"/>
	<path class="st2" d="M474.7,76.6C474.7,76.6,474.7,76.5,474.7,76.6"/>
</g>
<path class="st6" d="M13.4,338.8c8.3-18.4,22.1-32,38.7-42.8c18.4-12,39-17.6,60.8-17c55.2,1.5,99.3,42.4,106.2,94.6
	c2.9,21.9-0.1,42.9-9.9,62.8c-2.9-1.1-4.2,1.5-5.9,2.8c-20.2,14.9-43.3,21.8-68,22.4c-15.7,0.4-31.3-2.7-46-8.9
	c-15.9-6.6-30.2-15.9-42-28.5c-9.3-9.9-17-21.2-22.3-34c-4.5-10.9-7.8-21.8-9.4-33.4C14.5,350.8,16.3,344.5,13.4,338.8z"/>
<path class="st7" d="M13.4,338.8c3,5.7,1.2,12,2,18c1.7,11.7,4.9,22.5,9.4,33.4c5.4,12.9,13,24.1,22.3,34
	c11.8,12.5,26.1,21.8,42,28.5c14.7,6.1,30.3,9.3,46,8.9c24.7-0.6,47.8-7.5,68-22.4c1.7-1.3,3-3.9,5.9-2.8
	c-18.4,36.3-47.8,57.3-88.3,61.1c-41.7,4-75.1-12.3-99.9-45.8C-2.5,420.1-5.6,370.3,13.4,338.8z"/>
<g>
	<path class="st8" d="M-487-344.6c7.4-16.5,19.8-28.6,34.6-38.3c16.5-10.7,34.9-15.7,54.5-15.2c49.5,1.3,89,38,95.2,84.7
		c2.6,19.7-0.1,38.4-8.9,56.2c-2.6-1-3.8,1.3-5.3,2.5c-18.1,13.4-38.8,19.5-60.9,20.1c-14.1,0.4-28-2.4-41.2-7.9
		c-14.3-5.9-27.1-14.3-37.6-25.5c-8.4-8.9-15.2-19-20-30.5c-4.1-9.7-7-19.5-8.4-29.9C-486-333.8-484.4-339.5-487-344.6z"/>
	<path class="st9" d="M-487-344.6c2.7,5.1,1.1,10.7,1.8,16.1c1.5,10.5,4.4,20.2,8.4,29.9c4.8,11.5,11.6,21.6,20,30.5
		c10.6,11.2,23.4,19.5,37.6,25.5c13.2,5.5,27.1,8.3,41.2,7.9c22.1-0.6,42.8-6.7,60.9-20.1c1.6-1.2,2.7-3.5,5.3-2.5
		c-16.5,32.5-42.8,51.3-79.1,54.8c-37.4,3.5-67.3-11-89.5-41C-501.3-271.7-504-316.4-487-344.6z"/>
	<path class="st10" d="M-391.1-464.3c0,10.2,0.1,20.3,0,30.5c-0.1,6.1-3.2,9.5-8.4,9.7c-5.2,0.2-9.1-3-9.1-8.4
		c-0.2-21.1-0.1-42.3,0-63.4c0-4.9,4.1-8.3,8.9-8.3c4.7,0,8.5,3.6,8.6,8.5C-391-485.3-391.1-474.8-391.1-464.3
		C-391.1-464.3-391.1-464.3-391.1-464.3z"/>
	<path class="st10" d="M-391.1-136c0,10,0,20,0,29.9c0,6.8-3.1,10.6-8.6,10.7c-5.7,0.1-9-3.8-9-10.7c0-19.8-0.1-39.6,0-59.4
		c0-6.2,2.9-9.7,8.1-10c5.5-0.4,9.5,3.3,9.5,9C-391-156.3-391.1-146.2-391.1-136z"/>
	<path class="st9" d="M-235.7-291.3c-10.2,0-20.3,0-30.5,0c-5.6,0-9.6-3.8-9.6-8.6c0.1-5.1,3.8-8.5,9.7-8.5
		c20.1-0.1,40.3-0.1,60.4,0c6.6,0,10.4,3.5,10.3,8.9c-0.1,5-4.1,8.2-10.4,8.2C-215.8-291.3-225.7-291.3-235.7-291.3z"/>
	<path class="st9" d="M-564-291.3c-10.1,0-20.3,0-30.4,0c-6,0-10.1-3.6-10.1-8.7c0-4.9,4-8.4,9.8-8.5c20.3-0.1,40.6-0.1,60.9,0
		c5.7,0,9.7,3.6,9.8,8.5c0.1,5-4,8.6-10,8.6C-544.1-291.3-554.1-291.3-564-291.3z"/>
	<path class="st9" d="M-277.9-413.2c-3.6,0.2-6.1-1.3-7.8-4.4c-1.9-3.3-1.6-6.7,0.8-9.3c5.9-6.3,11.9-12.5,18.3-18.3
		c3.8-3.3,8.3-2.4,11.6,1.1c3.1,3.4,3.1,8.1-0.3,11.7c-5.5,5.7-11.2,11.3-16.8,16.9C-273.7-413.8-275.6-413-277.9-413.2z"/>
	<path class="st9" d="M-522-186.6c7.5,0.3,11.1,6.9,7.6,13c-2.3,4-6.3,6.3-9.2,9.8c-2.5,3-5.5,5.7-8.5,8.4
		c-3.8,3.5-8.8,3.6-12.2,0.5c-3.5-3.2-3.9-8.7-0.4-12.5c5.4-5.9,11.2-11.4,16.8-17C-526-186.1-523.8-186.8-522-186.6z"/>
	<path class="st9" d="M-521.9-413.2c-4.3,0.7-6.5-2.8-9.1-5.2c-4.6-4.3-8.9-8.9-13.2-13.5c-3.8-4-3.9-8.9-0.5-12.4
		c3.6-3.7,8.3-3.9,12.4,0c5.8,5.5,11.4,11.2,16.9,16.9c2.6,2.6,2.9,5.9,1.4,9.2C-515.4-414.7-518-413.1-521.9-413.2z"/>
	<path class="st9" d="M-277.9-186.5c2.3-0.1,4.2,0.7,5.8,2.3c5.5,5.5,11.1,11,16.5,16.6c3.8,3.9,3.7,8.9,0.2,12.4
		c-3.5,3.4-8.7,3.4-12.5-0.3c-5.2-5.1-10.4-10.2-15.5-15.4c-3-3-4.4-6.5-2.5-10.8C-284.3-185.4-281.4-186.4-277.9-186.5z"/>
</g>
</svg>
