<?xml version="1.0" encoding="utf-8"?>
<!-- Generator: Adobe Illustrator 26.2.1, SVG Export Plug-In . SVG Version: 6.00 Build 0)  -->
<svg version="1.1" id="Layer_1" xmlns="http://www.w3.org/2000/svg" xmlns:xlink="http://www.w3.org/1999/xlink" x="0px" y="0px"
	 viewBox="0 0 500 500" style="enable-background:new 0 0 500 500;" xml:space="preserve">
<style type="text/css">
	.st0{fill:#FFFFFF;}
</style>
<g>
	<path class="st0" d="M109.8,246.4c-0.1-79,63.6-142.9,144-140.5c82.7,2.5,136.4,69.1,136.5,140.1c0.1,68.2-50.2,137-136.2,140.5
		C174.5,389.8,109.9,325.2,109.8,246.4z M251.8,246L251.8,246c0-32.4-0.5-64.9,0.3-97.3c0.3-11.5-4-13.3-14.1-12.3
		c-55.5,5.8-98.9,54.6-98.3,111.2c0.6,56.2,45.7,104.5,101.1,108.7c8.7,0.7,11.2-2.1,11.1-10.7C251.5,312.4,251.8,279.2,251.8,246z"
		/>
	<path class="st0" d="M1,260.6c0-10.2,0-19.2,0-28.9c22.9,0,45.2,0,68.3,0c0,9.5,0,18.8,0,28.9C46.5,260.6,24.2,260.6,1,260.6z"/>
	<path class="st0" d="M82.7,431.1c-5.9-5.6-12.4-11.9-19.3-18.3c16.9-16.4,32.9-32,49.7-48.3c5.4,5.8,11.7,12.6,17.5,18.8
		C115.1,398.7,99.3,414.5,82.7,431.1z"/>
	<path class="st0" d="M66.2,77.4c4.4-4.4,10.9-10.7,17.9-17.6C99.8,76.7,115,93,130.9,110.1c-5.1,4.4-11.9,10.2-18.7,16.1
		C98.1,111.3,82.7,94.9,66.2,77.4z"/>
	<path class="st0" d="M264,490.9c-9.3,0-17.9,0-27.7,0c0-21.4,0-42.7,0-64.5c9.3,0,18,0,27.7,0C264,447.6,264,468.6,264,490.9z"/>
	<path class="st0" d="M264,73.6c-9.3,0-17.9,0-27.7,0c0-21.4,0-42.7,0-64.5c9.3,0,18,0,27.7,0C264,30.2,264,51.3,264,73.6z"/>
	<polygon class="st0" points="375.9,422 357.7,415.2 341.9,426.5 342.6,407 327.1,395.3 345.7,390 351.9,371.5 362.7,387.7 
		382.1,388 370.1,403.3 	"/>
	<polygon class="st0" points="444.3,381.9 433.2,362.3 410.8,361.2 426,343.7 420.9,321.5 441.3,330.2 460.6,317.6 458.1,340.5 
		475,354.9 453,360.4 	"/>
	<polygon class="st0" points="471.2,259.8 455.8,241.1 431.7,244 444.6,222.6 435.2,200.1 458.6,205.5 476.7,188.7 478.3,213.4 
		499,225.6 476.5,235.4 	"/>
	<polygon class="st0" points="368,104.1 360.8,88.8 344,86.7 356.4,74.4 353.8,57.6 368.7,65.2 383.9,56.9 380.7,73.9 392.7,85.7 
		375.8,88.5 	"/>
	<polygon class="st0" points="402.3,148.2 399.7,139.1 390.6,136.4 398.6,130.7 398.7,121.2 406.2,126.8 415.4,123.5 412.1,132.7 
		417.6,140.2 408,140.3 	"/>
</g>
</svg>
