<?xml version="1.0" encoding="utf-8"?>
<!-- Generator: Adobe Illustrator 26.2.1, SVG Export Plug-In . SVG Version: 6.00 Build 0)  -->
<svg version="1.1" id="Layer_1" xmlns="http://www.w3.org/2000/svg" xmlns:xlink="http://www.w3.org/1999/xlink" x="0px" y="0px"
	 viewBox="0 0 500 500" style="enable-background:new 0 0 500 500;" xml:space="preserve">
<style type="text/css">
	.st0{fill:#F0F0F2;}
	.st1{fill:#F7F7F7;}
	.st2{fill:#E6E6EA;}
	.st3{fill:#DBDBE0;}
	.st4{fill:#D0D1D7;}
	.st5{fill:#4D4D4C;}
	.st6{fill:#FDE06C;}
	.st7{fill:#FCCB0A;}
	.st8{fill:#FEDF83;}
	.st9{fill:#FDD44F;}
	.st10{fill:#FCD553;}
</style>
<g>
	<path class="st0" d="M463.9,35.3c2,0.1,2.2,2.2,3.3,3.3c13.2,13.9,22.1,30.4,26.7,49c3.6,14.8,3.9,29.9,1.3,44.9
		c-1.8,10.5-5.3,20.5-10,30.1c-3.2,6.6-7.4,12.5-11.8,18.4c-3.6,4.8-7.8,9.1-12.1,13.2c-2.6,2.5-5.4,4.5-8.3,6.6
		c-0.2-1-0.2-2.1-1.4-2.4c3.5-3.3,7.1-6.5,10.4-10.1c1.6-1.8,4.4-2.3,5.3-4.4c1-2.2,2.4-4,3.6-6c2.5-4.4,6.4-7.9,8.1-12.9
		c0.8-2.3,4.4-3.2,3.3-6.7c-0.2-0.5,0.8-1.3,1.2-2.1c0.8-1.5,2.3-2.7,2.5-4.5c0.6-4.5,2.3-8.7,3.1-13.1c0.3-1.5,1.8-2,1.8-3.8
		c0.1-4.6,0.5-9.2,1.1-13.7c0.8-6.7,0.8-13.5-0.9-19.8c-2.7-10.2-3.8-20.8-10.1-30.1c-6.4-9.3-11.3-19.7-20.2-27
		c-7.5-6.1-15.2-12.1-25-14.3c-1.9-0.4-4.2-1-5.3,1c-1.5,2.8-3,5.5-6.7,6.9c2.4,0.6,4.1,0.7,5.7,0c2.4-1.1,3-0.1,2.8,2.1
		c0,0.5,0,1,0,1.5c-5.3-2.4-10.7-3.5-16.4-1.5c-1.2,0.4-2.6,0.6-3.9,0.9c-2.6,0-4.2,1.6-5.4,3.5c-0.9,1.4-2.1,1-3.2,1.1
		c-1.3,0.1-1.5-1-1.6-1.8c-0.5-4.1-3.7-4.8-6.8-5.9c-2.3-0.8-4.9,0.5-7.1-1.2c-0.4-2,1.1-4.5-1.2-6.2c-0.8-2.9-3.2-3-5.5-3.1
		c-2.9-0.2-4.2,1.7-5.2,3.9c-0.4,0.9-0.2,2-0.9,2.9c-0.3,0.1-0.7,0.1-0.8,0.3c-2,4.4-5.6,3.2-9.1,2.8c-4.6-0.5-9.1-0.1-12.4,3.7
		c-1.3,1.4-2.5,2-4.2,1.8c-0.2-4.4-3.7-7.5-8.3-7.4c-4.3,0.1-7.1,3.1-7.1,7.5c0,1.7,0.2,3.3,0.6,4.8c-0.3,2.6-2.7,4-3.7,6.3
		c-0.8,0.8-1.7,1.6-2.5,2.4c-1.3,0-1.9,0.6-1.8,1.9l0,0c-0.7,0.1-1,0.6-1.3,1.1c-1.4,2.6-1.9,5.7-5.8,6.3c-1.8,0.3-1.8,3.3,0.1,4.1
		c2.1,0.8,3,2.1,2.6,4.2c-0.4,2.1-1.9,3.1-3.9,3.4c-3.1,0.4-5.4,2.9-5.4,5.1c0,3.4-1,6.4-1.5,9.6c-0.6,3.5-2.4,4.4-5.4,4.5
		c-1.2,0-2.8-0.5-3.4,1.2c-0.8,0.5-1.5,1-2.3,1.5c-7.4,4.8-6,14.8-2,18.2c0.4,0.8,1,1.4,1.9,1.9c2.9,1.5,6,2.1,9.2,1.8
		c0.4,1.3,1.4,2.1,2.6,2.3c2.2,0.5,2.5,1.7,2.1,3.6c-0.2,0.9-0.3,1.8-0.4,2.7c0,0,0,0,0,0c-1.4,0.5-1.6,1.1-0.1,1.8
		c-1.8,7.2,0,13,6.3,17.3c-2,1.8-3.9,1.7-6-0.4c-1.5-1.5-2.8-3.3-4.4-4.7c-1.5-1.4-3.6-2.3-5.6-1.9c-2,0.4-1.1,2.5-1.4,3.9
		c-0.1,0.5-0.3,1-0.5,1.4c-2.8,6-1,14.5,3.9,18.9c0.5,0.5,1,1.2,1.8,0.9c0.8-0.2,0.9-1,1-1.7c0.6-3.6,1-4,4.7-3.1
		c5.9,1.5,10.4-1.1,14.4-4.8c1.8-1.7,1.5-4-0.7-5.4c-0.5-0.4-1-0.6-1.2-1.3c0.9,0,1.8,0.1,2.5-0.6c0.4,0,0.8,0,1.3,0
		c0.6,0,1.2,0,1.8,0c1.7,0,2.8-1.4,4.3-1.8c1,2,0.3,4.7,2.5,6.3c-0.3,0.7-0.5,1.3-0.8,2c-1.2,2.7-0.5,7.2,1.3,9.1
		c2.3,5.4,7.3,5.9,12.2,4.2c5-1.8,6.7-6,6.4-11.1c1,0,2,0,3,0c4.1,4.2,9,6.9,14.8,8c-0.9,2.9-3.7,4.1-5.5,6.2
		c-9-1.6-12.9,0-16.7,6.8c-0.8-0.2-1.1-0.8-1.2-1.6c0-1.9-1.3-2.4-2.7-1.9c-3.7,1.3-6.1-0.1-8.5-2.9c-3.2-3.6-6.1-3.8-10.4-1.6
		c-1.5,0.8-3,1.7-4.6,2.5c-0.5,0.3-1.2,0.7-1.6,0c-0.2-0.3-0.1-1,0-1.4c1.5-3.6,0.1-6.1-3.1-7.9c-2.6-0.6-5.1-1-7.3,1.4
		c-1.8,1.9-1.2,4-1.3,6c1,2.9,3.3,4,6.1,4.3c0.6,0.1,1.5,0,1.4,0.8c-0.1,0.9-0.9,1-1.7,0.9c-0.8-0.1-1.6-0.4-2.4-0.4
		c-1,0-1.8,0.7-1.1,1.5c1.6,1.8,1.8,4.4,3.5,6.1c9.5,9.4,20,17.3,32.2,23.2c9.1,4.4,18.6,6.3,28.3,8c4.5,0.8,9.1,1.5,13.7,1.1
		c3.6-0.3,7.1-1,10.7-1c4.2,0,8.3-0.9,12.3-2.3c1.5-0.5,3.6-1.4,5.2,0.5c-3.8,1.3-7.7,2.4-11.5,3.8c-2.7,1-5.4-0.6-7.9,0.2
		c-3.6,1.1-7.5,0-11.1,1.5c-1.8,0.8-3.5-1-5.3-1.1c-7-0.4-14-0.3-20.6-3c-1.7-0.7-3.4-1.5-5.2-1.8c-5.3-1-10.5-2.9-14.7-5.9
		c-4.7-3.3-10.4-4.8-14.5-8.8c-3.5-3.4-8.3-4.9-12-8c-3.9-3.3-6.1-8.2-11-10.4c-0.3-0.1-0.7-0.6-0.7-1c0-3.2-2.1-5.6-3.7-7.8
		c-5.8-7.9-8.4-17.4-13.2-25.8c-0.4-0.7-0.7-1.6-0.6-2.4c1-4.6,0.3-9-1.3-13.5c-2-6.1,0.6-12.7-1.8-18.9c-0.1-0.3,0-0.9,0.2-1.2
		c1.2-2.3,0.7-4.8,1-7.2c0.6-4.5-0.2-9,0.5-13.4c0.4-2.3,2.1-4.6,0.5-7.1c-0.4-0.6,0.4-1.7,1.4-2.2c0.9-0.4,1.4-1.2,1.7-2.1
		c1.6-5.7,5.5-10.3,7.4-15.9c0.5-1.4,1.4-2.5,2.3-3.6c3.8-4.8,7.5-9.7,11.3-14.5c2-2.4,4.5-4.2,7.5-5.5c2.8-1.2,5.7-2.5,8.2-4.8
		c3.4-3.2,7.4-5.9,11.7-7.7c2.5-1.1,4.8-2.6,7.3-3.6c3-1.2,4.4-5.2,8.8-4.4c1.4,0.3,4.2-0.4,5.6-2c2-2.4,4.5-2.6,7.2-2.5
		c1.8,0.1,3.7-0.3,5.5-0.3c3.7-0.1,6.7-2.3,10.5-2.2c7.2,0.2,14.3,0.9,21.4,1.7c7.1,0.7,13.8,1.6,20.5,4.3
		c6.8,2.8,13.9,4.9,19.9,9.3c4,3,8.7,4.9,12.3,8.6C460.3,39.2,460.6,39.1,463.9,35.3z M475.5,53.6c-0.8-1-1.6-2-2.8-3.7
		C472.8,52.4,473.4,53.5,475.5,53.6z M469.9,48.5c0.6-0.1,0.7-0.5,0.7-0.9c0-0.9-0.6-1.3-1.3-1.4c-0.5-0.1-0.7,0.3-0.6,0.8
		C468.8,47.7,469.1,48.3,469.9,48.5z M299.3,139c-0.1-0.5-0.4-1-1-0.9c-0.3,0.1-0.7,0.4-0.8,0.7c-0.2,0.6,0.2,1,0.8,1
		C298.9,140,299.2,139.6,299.3,139z M464.3,40.8c0.1,0.1,0.2,0.2,0.3,0.3c0-0.1,0.1-0.2,0.1-0.2c-0.1-0.1-0.2-0.2-0.3-0.3
		C464.4,40.7,464.3,40.8,464.3,40.8z M464.9,38.4c0.1,0.1,0.2,0.2,0.3,0.3c0-0.1,0.1-0.2,0.1-0.2c-0.1-0.1-0.2-0.2-0.3-0.3
		C465,38.2,464.9,38.3,464.9,38.4z M421.2,37.4c-0.1,0-0.2-0.1-0.2-0.1c-0.3,0.1-0.3,0.2,0,0.3c0.1,0,0.2,0,0.2,0
		C421.2,37.6,421.2,37.4,421.2,37.4z"/>
	<path class="st1" d="M451.5,198.3c1.2,0.4,1.3,1.4,1.4,2.4c-13.9,11-29.9,17.2-47.2,20.4c-11.8,2.2-23.8,2-35.6,0.3
		c-7.2-1-14.3-3.2-21.2-5.7c-11.1-4.1-21-10.2-30.3-17.4c-5.8-4.5-11.3-9.6-15.8-15.3c-10.8-13.9-18.7-29.4-22.4-46.9
		c-4.2-19.9-2.8-39.4,3.7-58.6c4.2-12.5,10.8-23.7,19-34c4.9-6.2,10.9-11.2,16.8-16.3c4.7-4.1,10-7.1,15.3-10
		c19.3-10.6,40-14.7,61.8-12.8c25.9,2.3,48.1,12.6,66.7,30.8c-3.3,3.8-3.6,3.8-7,0.2c-3.5-3.7-8.2-5.6-12.3-8.6
		c-6-4.4-13.1-6.5-19.9-9.3c-6.6-2.7-13.4-3.6-20.5-4.3c-7.1-0.7-14.2-1.4-21.4-1.7c-3.8-0.1-6.8,2.2-10.5,2.2
		c-1.8,0-3.7,0.4-5.5,0.3c-2.8-0.1-5.2,0.1-7.2,2.5c-1.4,1.7-4.2,2.3-5.6,2c-4.4-0.8-5.8,3.2-8.8,4.4c-2.5,1-4.8,2.6-7.3,3.6
		c-4.3,1.8-8.3,4.5-11.7,7.7c-2.5,2.3-5.4,3.6-8.2,4.8c-3.1,1.3-5.5,3-7.5,5.5c-3.9,4.8-7.5,9.7-11.3,14.5c-0.9,1.1-1.9,2.2-2.3,3.6
		c-1.9,5.5-5.9,10.1-7.4,15.9c-0.2,0.9-0.8,1.7-1.7,2.1c-1,0.4-1.7,1.5-1.4,2.2c1.6,2.6-0.1,4.8-0.5,7.1c-0.7,4.5,0.1,9-0.5,13.4
		c-0.3,2.4,0.3,4.9-1,7.2c-0.2,0.3-0.3,0.9-0.2,1.2c2.4,6.1-0.2,12.8,1.8,18.9c1.5,4.5,2.2,8.8,1.3,13.5c-0.2,0.7,0.2,1.7,0.6,2.4
		c4.9,8.4,7.5,17.9,13.2,25.8c1.7,2.3,3.7,4.7,3.7,7.8c0,0.3,0.4,0.8,0.7,1c4.9,2.2,7.2,7.1,11,10.4c3.7,3.1,8.4,4.6,12,8
		c4.1,4,9.8,5.6,14.5,8.8c4.2,2.9,9.4,4.8,14.7,5.9c1.8,0.3,3.5,1.1,5.2,1.8c6.6,2.7,13.6,2.7,20.6,3c1.8,0.1,3.5,1.9,5.3,1.1
		c3.6-1.5,7.5-0.4,11.1-1.5c2.5-0.7,5.2,0.9,7.9-0.2c3.8-1.5,7.6-2.6,11.5-3.8c2.9-1.2,5.8-2.5,8.7-3.6c2.4-0.9,5.4-1.5,7.1-2.8
		c2.9-2.1,6.9-2.7,8.9-6.1c0.3-0.5,1.3-0.6,2-0.7C448.6,201.6,450.3,200.4,451.5,198.3z"/>
	<path class="st1" d="M348.4,42.7c1.7,0.1,3-0.4,4.2-1.8c3.3-3.7,7.8-4.2,12.4-3.7c3.5,0.4,7.1,1.6,9.1-2.8c0.1-0.2,0.5-0.2,0.8-0.3
		c1.3,2,2,4.5,4.9,5c3.4,1.6,5.8-0.3,8-2.5c2.1,1.7,4.7,0.4,7.1,1.2c3.1,1.1,6.3,1.9,6.8,5.9c0.1,0.8,0.3,1.9,1.6,1.8
		c1.2-0.1,2.3,0.3,3.2-1.1c1.2-1.9,2.9-3.5,5.4-3.5c-0.9,1.8-2.7,2.8-4,4.1c-5.5,5.7-6.5,15.7-2.2,22.4c2.3,4.4,6.1,6.8,10.5,8.7
		c-1,2-2,0.2-3,0c-1.2-0.1-2.1-2.1-3.5-0.4c-1.1,1.3-0.6,2.7,0.1,4c1.5,2.6,1.1,4.8-1.1,6.8c-5,0.4-6.7,3.3-4.9,8.7
		c-1.2,0.8-1.5,0.2-1.9-0.9c-0.6-1.7,0.2-3.4-0.3-5.7c-2.8,3-4,6.4-6,9.2c-1.1,0.2-0.8-1.7-2-1.4c-1.2,2.4-2.4,4.7-3.7,7.1
		c-0.9,1.7-2.2,2.9-4.1,3.5c-0.6-0.1-1.2-0.1-1.8-0.2c-4.7-0.8-8.5,1.5-9.1,5.4c-0.7,4.1,2,7.3,6.7,8.3c0,0.2,0,0.4,0,0.6
		c-1.5,0-3.1,0-4.6-0.1c-16.4-0.5-28,17.8-20.3,32.9c0.8,1.6,1.8,3.2,2.7,4.8c-1,0-2,0-3,0c-0.6-4.3-2.9-7-6.2-7.4
		c-3-1.9-6.1-1.3-9.2-0.6c-0.2-0.3-0.4-0.6-0.6-0.8c-0.1,0.1-0.1,0.1-0.2,0.2c0.3,0.2,0.5,0.4,0.8,0.6c-1.2,1.2-2.5,2.5-3.7,3.7
		c-2.2-1.5-1.5-4.2-2.5-6.3c1.2-1.3,2.5-2.5,3.5-3.8c3.2-4.5,3.5-10.5,0.8-14c-0.1-0.7-0.5-1.1-1.2-1.3l0,0
		c-0.2-0.4-0.4-0.8-0.6-1.3l0,0c-2-3.9-5.3-5.7-9.5-6.1c-6.8-0.7-11.3,3.1-15.2,8c0.1-0.9,0.2-1.8,0.4-2.7c0.4-1.9,0.1-3.1-2.1-3.6
		c-1.2-0.3-2.3-1-2.6-2.3c0.7-0.3,1.3-0.5,2-0.8c8-3.9,9.8-14.3,3.5-19.5c-3.5-3.6-7.9-3.3-12.3-3.1c0.7-1.8,2.2-1.2,3.4-1.2
		c3.1,0,4.8-1,5.4-4.5c0.5-3.2,1.5-6.2,1.5-9.6c0-2.2,2.2-4.7,5.4-5.1c2-0.2,3.5-1.3,3.9-3.4c0.4-2.1-0.5-3.4-2.6-4.2
		c-1.9-0.7-1.9-3.8-0.1-4.1c3.9-0.6,4.4-3.7,5.8-6.3c0.3-0.6,0.7-1,1.3-1.1c-0.3,1.3-0.7,2.5-1,3.8c-1,6.1,0.5,9.2,5.2,11.6
		c3.4,3.2,9.4,3.1,12.4,0l0,0c6.6-2.3,7.4-14.2,0.6-18.5c-4.1-3.1-8.4-2.9-12.9-1.2c1-2.3,3.4-3.7,3.7-6.3c0.9,0.6,2.2,0.6,2.5,1.9
		c-0.4,0.5-0.7,1.1,0,1.5c0.7,0.4,1-0.3,1.2-0.9C343.3,52,348.3,48.6,348.4,42.7z M354,79.8c-0.5-0.5-1.2-0.6-1.9-0.6l0,0
		c-0.4-1.5-1.6-1.7-2.9-1.8c-3.7-0.3-7,1-9.2,4c-2.4,3.2-2.1,7-0.9,10.6c0.5,1.3,1.3,2.6,3.1,2.7c2.5,3.4,6.2,3.8,11,1.7
		c4.2-1.9,6.9-8.9,3.9-12.8C356.5,81.8,355.6,80.5,354,79.8L354,79.8z M364.5,89c-1.2,1.7-0.4,3.7-0.6,5.5c-0.1,3.7,2.8,5.4,4.9,7.8
		c4.9,5.5,14.1,3.9,18.8,0.4c6.8-5.1,7.1-19.7-2.7-24.2c-3.1-1.4-6.4-1.5-9.6-1.2C369.6,77.9,364.7,83.4,364.5,89L364.5,89z
		 M334.8,113.1c2,2.3,4.4,1.5,6.3,0.3c2.2-1.3,2.3-3.7,1.2-5.9c-0.8-2.5-2.7-3.2-5-3c-2,0.2-4.3,0.8-4.4,3.1
		C332.7,109.5,331.9,112.2,334.8,113.1z M354,109.4c1.6,2.7,4.3,3.3,6.9,1.5c3.2-2.2,3.5-4.7,1.1-7.7c-3.3-2.2-6-2.5-7.7-0.5
		C352.6,104.8,352,107.1,354,109.4z"/>
	<path class="st2" d="M451.5,198.3c-1.2,2.1-3,3.3-5.4,3.6c-0.7,0.1-1.7,0.2-2,0.7c-2,3.4-6,3.9-8.9,6.1c-1.7,1.2-4.7,1.9-7.1,2.8
		c-3,1.1-5.8,2.4-8.7,3.6c-1.5-1.9-3.6-1-5.2-0.5c-4,1.4-8,2.4-12.3,2.3c-3.6,0-7.1,0.7-10.7,1c-4.6,0.5-9.2-0.3-13.7-1.1
		c-9.7-1.7-19.2-3.6-28.3-8c-12.2-5.9-22.7-13.8-32.2-23.2c-1.7-1.7-1.9-4.3-3.5-6.1c-0.7-0.8,0.1-1.5,1.1-1.5
		c0.8,0,1.6,0.3,2.4,0.4c0.7,0.1,1.6,0,1.7-0.9c0.1-0.8-0.8-0.8-1.4-0.8c-2.8-0.4-5.1-1.4-6.1-4.3c0.5-0.2,1-0.4,1.1-0.9
		c0.1-3.8,2.5-4.9,5.8-5.2c0.9-0.1,1.6-0.3,1.8-1.3c3.2,1.8,4.6,4.3,3.1,7.9c-0.2,0.4-0.2,1.1,0,1.4c0.4,0.6,1.1,0.3,1.6,0
		c1.5-0.8,3-1.7,4.6-2.5c4.4-2.3,7.2-2,10.4,1.6c2.4,2.7,4.8,4.1,8.5,2.9c1.4-0.5,2.7,0.1,2.7,1.9c0,0.8,0.4,1.4,1.2,1.6
		c-1.2,5.2-1.1,10.2,3.1,14.2c-1,1.6-2,1.1-3,0c-1.1-1.2-2.2-2.4-3.2-3.7c-1.1-1.4-1.8-1-2.6,0.3c-1.7,2.8-0.9,6.1,1.9,8.1
		c1.9,1.4,3.9,2.6,5.8,4.1c2.8,2.2,5.7,4.2,9.1,5.3c2.6,0.8,5.3,1.6,7.9,2.5c2.4,0.8,4.5,2.5,7.2,2.7c13.4,0.9,26.8,2.1,39.8-3
		c1.5-0.6,3.3,0.2,4.4-0.7c4.9-3.9,11.5-3.7,16.6-7.2c2-1.4,4-2.8,6.1-4.1c7-4.3,13.8-8.9,18.7-15.6c5.4-7.4,10.6-14.7,15.2-22.7
		c3.9-6.7,6-13.9,8-21.1c2.1-8,2.6-16.4,2.1-24.8c-0.3-4.9,0-10.1-3.3-14.5c-0.4-0.5-0.6-1.1-0.3-1.7c1.7-4.1,0-7.9-1.7-11.2
		c-1.8-3.7-4.4-6.7-5.3-11.1c-0.6-2.9-3-6.3-5.1-9.2c-1.6-2.3-4.2-3.3-5.4-5.6c-1.9-3.6-5.7-4.8-8.8-6.8c-3.1-1.9-7.9-0.7-9.3-5.5
		c-0.1-0.4-0.7-0.5-1.1-0.3c-0.8,0.4-0.9,1.1-0.7,1.8c0.8,2.7,1.1,5.4,1,8.2c-0.1,3.2,0.2,6.4-0.6,9.5c-0.2,0.8-0.3,1.9,0.7,2.5
		c1,0.6,1.7-0.1,2.5-0.7c1.1-0.9,2.3-1.7,3.5-2.6c1.6-1.1,3-0.5,4.2,0.5c1.5,1.3-0.2,2.1-0.6,3.1c-2.5,5.6-5.7,11-3.7,17.7
		c0.7,2.3,0.2,5.1-0.1,7.7c-0.1,0.9-0.1,2.9-2.2,1.7c2-4.2,1.8-8.2-1.2-11.9c-0.9-1.1-2.4-1.5-3.1-2.9c-0.1-0.4-0.2-0.9-0.7-0.8
		c-0.2,0-0.3,0.5-0.5,0.7c-1.5,0-2.9-0.1-4.4-0.1c-0.3-0.8-0.9-1.1-1.7-1c-2.6,0.2-2.9-1-2.7-3.4c0.3-3.8,0.1-7.7,0.1-11.5
		c2-5.6,2.9-11.1,0.3-16.9c-1.5-3.3-4.3-5.6-6.4-8.4c0-0.5,0-1,0-1.5c0.1-2.2-0.5-3.2-2.8-2.1c-1.6,0.8-3.4,0.7-5.7,0
		c3.7-1.4,5.1-4.1,6.7-6.9c1.1-2.1,3.5-1.4,5.3-1c9.8,2.1,17.5,8.1,25,14.3c9,7.3,13.8,17.7,20.2,27c6.3,9.2,7.4,19.9,10.1,30.1
		c1.7,6.3,1.7,13.1,0.9,19.8c-0.6,4.5-1,9.2-1.1,13.7c0,1.7-1.6,2.3-1.8,3.8c-0.8,4.4-2.5,8.6-3.1,13.1c-0.2,1.8-1.7,3-2.5,4.5
		c-0.4,0.7-1.4,1.6-1.2,2.1c1.1,3.5-2.5,4.4-3.3,6.7c-1.8,5-5.6,8.5-8.1,12.9c-1.1,2-2.6,3.8-3.6,6c-0.9,2.1-3.6,2.6-5.3,4.4
		C458.7,191.8,455,195,451.5,198.3z"/>
	<path class="st2" d="M368.8,173c1.8-2.1,4.7-3.2,5.5-6.2c15.1,1.3,27.1-10.7,25.9-25.3c1-2,0.8-4-0.1-6.1c-0.6-1.5-1.2-3.2,1.7-2.4
		c1.1,0.3,1.3-0.6,1.5-1.4c9.4-2.9,11.1-4.7,11.1-12.3c2,0.1,3.4-0.6,3.8-2.7c0.2-1.1,1-1.8,2-2.1c3.4-1,4.9-3.5,5.4-6.8
		c0.3-1.7,0.7-3.2,3-3.2c1.4,0,2.4-0.9,2.4-2.3c0-3.1,1.9-3.8,4.5-3.8c5.6,5.2,8.5,5.6,15.4,1.8c1,2.4,0.6,4.4-1.8,5.7
		c-3.8,2.1-5.4,5.5-6.4,9.7c-1.2,4.6-5.1,7.6-7.6,11.5c-1.7,2.5-1.8,4.9-0.9,7.5c0.4,1.2,1.1,2.4,1.7,3.6c1.5,3-0.1,7.5-2.9,8.3
		c-0.4-0.5-0.8-0.9-1.2-1.4c-2.6-4-6-6.3-10.9-6c-4.7,0.4-8.7,3.9-10.1,8.3c-1.9,5.6,1.4,13.4,9.2,15.2c-4.7,2.8-7.4,8-12.5,10.2
		c-0.6,0.3-1,0.8-0.8,1.5c0.5,2.8-1,4.9-2.7,6.9c-0.6-0.6-1.2-1.1-1.8-1.7c-4.9-4.6-11.4-3.3-13.7,2.8c-1.1-0.3-0.9-1-0.9-1.9
		c0.5-5.8,3.7-10,7.7-13.8c0.8-0.8,1.8-1.9,0.7-2.8c-1.2-0.9-1.6,0.7-2.3,1.3c-3.9,3.4-6.6,8.3-12.6,9.1c-2,0.3-3.8,2.3-3.3,5.1
		c0.3,1.4-0.1,2.7-1.7,3.2C375,178.1,372.6,175,368.8,173z"/>
	<path class="st3" d="M400.3,141.5c1.2,14.6-10.9,26.6-25.9,25.3c-5.8-1.2-10.7-3.9-14.8-8c-0.9-1.6-1.9-3.1-2.7-4.8
		c-7.7-15.1,3.9-33.4,20.3-32.9c1.5,0,3.1,0,4.6,0.1c0.6,0.2,1.1,0.5,1.7,0.7c6.1,2.5,11.4,6.1,14.7,12.1
		C399.4,136.4,399.3,139.1,400.3,141.5z M393.5,143.9c-0.1-3,0.2-5.9-2.1-8.7c-3.3-3.9-7.9-3.9-12.1-5.4c-2.9-1.1-5,0.9-7.3,2
		c-5,2.2-7.4,6.4-8.6,11.3c-1.2,4.9,0.6,9.6,2,14.2c0.1,0.4,0.6,0.9,1,1.1c4.5,2.7,9.6,3.6,14.5,2.5
		C388.5,159.1,393.5,151.8,393.5,143.9z"/>
	<path class="st2" d="M324.9,150.8c0.2,0.6,0.7,0.9,1.2,1.3c2.2,1.4,2.5,3.7,0.7,5.4c-4.1,3.7-8.5,6.2-14.4,4.8
		c-3.7-0.9-4.1-0.5-4.7,3.1c-0.1,0.7-0.2,1.5-1,1.7c-0.8,0.3-1.3-0.4-1.8-0.9c-4.9-4.4-6.6-13-3.9-18.9c0.2-0.5,0.4-1,0.5-1.4
		c0.3-1.4-0.6-3.5,1.4-3.9c2-0.4,4,0.5,5.6,1.9c1.6,1.4,2.9,3.2,4.4,4.7c2.1,2.1,4,2.2,6,0.4C321,149,322.7,150.9,324.9,150.8z"/>
	<path class="st3" d="M432.4,41.5c2.1,2.8,4.9,5.1,6.4,8.4c2.6,5.7,1.7,11.3-0.3,16.9c0,0,0,0,0,0c-0.2,0-0.4,0-0.6,0
		c0.1-1.6-0.4-3.4,0.4-4.9c2.5-4.5-0.2-8.2-2.6-11.2c-5.1-6.2-12.8-7.1-20.3-3.4c-6.8,3.4-10.5,10.5-9.3,18c0.1,0.7,0.3,1.4-0.3,2
		c-4.3-6.7-3.3-16.7,2.2-22.4c1.3-1.4,3.1-2.3,4-4.1c1.3-0.3,2.7-0.4,3.9-0.9C421.7,38,427.1,39.2,432.4,41.5z"/>
	<path class="st4" d="M368.8,173c3.9,2,6.2,5.1,7.4,9.3c0,0.8,0,1.6,0,2.5c0,5.7-3.2,10.4-8.6,11.9c-4.5,1.3-8.7,0.2-12.4-2.7
		c-4.3-4-4.4-9-3.1-14.2C355.9,173,359.8,171.4,368.8,173z M364.2,194c4.6,0,9.5-5.5,9.8-11c0.1-2.1-4.9-6.3-7.5-6.3
		c-3.9,0-8.9,5.5-8.9,9.8C357.7,192.1,359.4,194,364.2,194z"/>
	<path class="st2" d="M339.2,130.4c2.7,3.6,2.4,9.5-0.8,14c-1,1.4-2.3,2.6-3.5,3.8c-1.5,0.4-2.6,1.8-4.3,1.8c-0.6-1.4-1.2-1.4-1.8,0
		c-0.4,0-0.8,0-1.3,0c-2.3-0.8-4.7-1.3-5.6-4.1c-0.1-0.4-0.8-0.7-1.2-0.9c-3.1-2.1-4.2-7.1-2.5-10.4c4.2-8,11.2-10.4,19.1-6.8
		c0,0,0,0,0,0c0.2,0.4,0.4,0.8,0.6,1.3c0,0,0,0,0,0C338,129.8,338.5,130.3,339.2,130.4z M330.4,145.2c2,0.1,3.8-0.6,5.1-2.5
		c3.4-4.8,3.3-6.5-1-10.6c-2.8-2.7-4.7-3.1-7-1.4c-3.5,2.4-5.8,7.1-4.8,9.7C323.8,143.5,326.6,145.2,330.4,145.2z"/>
	<path class="st3" d="M337.3,127.9c-7.9-3.6-14.9-1.2-19.1,6.8c-1.8,3.3-0.6,8.2,2.5,10.4c0.4,0.3,1.1,0.6,1.2,0.9
		c0.8,2.8,3.3,3.4,5.6,4.1c-0.7,0.7-1.6,0.6-2.5,0.6c-2.3,0.2-3.9-1.7-6.1-1.9c-6.3-4.2-8.1-10.1-6.3-17.3c0-0.6,0.1-1.2,0.1-1.8
		c0,0,0,0,0,0c3.9-4.9,8.3-8.8,15.2-8C332,122.2,335.4,124,337.3,127.9z"/>
	<path class="st2" d="M348.4,42.7c-0.1,5.9-5.1,9.2-11.1,7.4c-0.4-0.2-0.8-0.4-1.2-0.6c-0.3-1.3-1.6-1.3-2.5-1.9
		c-0.5-1.6-0.7-3.2-0.6-4.8c0.1-4.4,2.9-7.4,7.1-7.5C344.7,35.2,348.2,38.3,348.4,42.7z"/>
	<path class="st2" d="M313.8,100.8c6.3,5.3,4.4,15.7-3.5,19.5c-0.6,0.3-1.3,0.5-2,0.8c-3.2,0.3-6.3-0.3-9.2-1.8
		c-0.9-0.5-1.5-1-1.9-1.9c1.3-2,0.3-4.4,0.1-6.2c-0.5-4.5,3.1-6.4,5.1-8.1c2.3-1.8,6.3-3.4,10-1.6
		C313.2,101.9,313.6,101.5,313.8,100.8z M301.5,112.4c0,1,0,2,0.8,2.9c3.2,3.5,9,3.3,11.9-0.4c1.7-2.2,1.9-5.9,0.5-7.8
		c-2.1-2.9-4.5-3.9-7.3-3C305.5,104.7,301.5,110.3,301.5,112.4z"/>
	<path class="st3" d="M350.3,151.4c3.3,0.4,5.6,3.1,6.2,7.4c0.3,5.1-1.3,9.3-6.4,11.1c-4.9,1.7-9.9,1.2-12.2-4.2
		c0.1-0.4,0.4-0.9,0.3-1.2c-2.2-5.9,1.9-10.2,6.2-12.6C346.3,150.7,348.4,152.1,350.3,151.4z M355.2,160.4c-0.1-3.3-3.6-6.4-7.3-6.4
		c-2.5,0-7,5.9-6.8,9c0.1,1.6,4.6,6.1,6.2,6.1C350.3,169.3,355.3,163.8,355.2,160.4z"/>
	<path class="st3" d="M329.9,73.6c-4.8-2.4-6.2-5.6-5.2-11.6c0.2-1.3,0.6-2.5,1-3.8c0,0,0,0,0,0c0.8-0.4,1.4-1.1,1.8-1.9
		c0.8-0.8,1.7-1.6,2.5-2.4c4.5-1.7,8.9-2,12.9,1.2c-0.7,0.8-1.7,1.1-2.7,1.2c-3.4,0.1-6.2,1.7-8.7,3.8c-3.8,3.2-4.4,7.9-1.6,11.9
		C330.2,72.5,330.4,73,329.9,73.6z"/>
	<path class="st3" d="M313.8,100.8c-0.2,0.7-0.6,1.1-1.3,0.7c-3.7-1.8-7.7-0.2-10,1.6c-2.1,1.6-5.7,3.6-5.1,8.1
		c0.2,1.8,1.2,4.2-0.1,6.2c-4-3.5-5.4-13.4,2-18.2c0.8-0.5,1.5-1,2.3-1.5C305.9,97.5,310.3,97.2,313.8,100.8z"/>
	<path class="st2" d="M387.9,36.5c-2.2,2.2-4.6,4.1-8,2.5c-0.2-1.7-2.2-2.6-1.7-4.7c1-3.8,4.2-5.3,8.5-3.9
		C389.1,32,387.5,34.5,387.9,36.5z"/>
	<path class="st3" d="M386.7,30.4c-4.3-1.4-7.5,0.2-8.5,3.9c-0.6,2.1,1.5,3,1.7,4.7c-2.9-0.4-3.7-2.9-4.9-5c0.7-0.8,0.5-2,0.9-2.9
		c1-2.2,2.4-4.1,5.2-3.9C383.5,27.4,385.9,27.4,386.7,30.4z"/>
	<path class="st4" d="M350.3,151.4c-1.9,0.7-4-0.6-5.9,0.5c-4.2,2.4-8.4,6.7-6.2,12.6c0.1,0.3-0.2,0.8-0.3,1.2
		c-1.9-1.9-2.5-6.4-1.3-9.1c0.3-0.6,0.5-1.3,0.8-2c1.2-1.2,2.5-2.5,3.7-3.7l0,0C344.2,150.1,347.3,149.5,350.3,151.4z"/>
	<path class="st3" d="M320,165c-0.3,0.9-1,1.2-1.8,1.3c-3.2,0.3-5.6,1.5-5.8,5.2c0,0.5-0.6,0.8-1.1,0.9c0.1-2.1-0.5-4.2,1.3-6
		C314.9,164,317.4,164.4,320,165z"/>
	<path class="st1" d="M475.5,53.6c-2.2-0.1-2.8-1.2-2.8-3.7C474,51.6,474.8,52.6,475.5,53.6z"/>
	<path class="st1" d="M469.9,48.5c-0.8-0.2-1.1-0.8-1.3-1.5c-0.1-0.4,0.1-0.9,0.6-0.8c0.8,0.1,1.3,0.6,1.3,1.4
		C470.6,48,470.4,48.4,469.9,48.5z"/>
	<path class="st2" d="M299.3,139c-0.1,0.6-0.4,1-1,0.9c-0.6-0.1-0.9-0.5-0.8-1c0.1-0.3,0.5-0.7,0.8-0.7
		C298.9,138,299.2,138.5,299.3,139z"/>
	<path class="st1" d="M312.6,129.8c0,0.6-0.1,1.2-0.1,1.8C311,130.9,311.3,130.3,312.6,129.8z"/>
	<path class="st1" d="M327.4,56.3c-0.4,0.8-1,1.4-1.8,1.9C325.5,56.9,326.1,56.3,327.4,56.3z"/>
	<path class="st3" d="M328.7,150.1c0.6-1.4,1.2-1.4,1.8,0C329.9,150.1,329.3,150.1,328.7,150.1z"/>
	<path class="st1" d="M464.3,40.8c0-0.1,0.1-0.1,0.1-0.2c0.1,0.1,0.2,0.2,0.3,0.3c0,0-0.1,0.1-0.1,0.2
		C464.5,41,464.4,40.9,464.3,40.8z"/>
	<path class="st1" d="M464.9,38.4c0-0.1,0.1-0.1,0.1-0.2c0.1,0.1,0.2,0.2,0.3,0.3c0,0-0.1,0.1-0.1,0.2
		C465.1,38.6,465,38.5,464.9,38.4z"/>
	<path class="st2" d="M421.2,37.4c0,0.1,0,0.2,0,0.2c-0.1,0-0.2,0.1-0.2,0c-0.3-0.1-0.2-0.2,0-0.3C421,37.3,421.1,37.3,421.2,37.4z"
		/>
	<path class="st0" d="M400.3,141.5c-1-2.4-0.9-5.1-2.2-7.6c-3.3-6-8.5-9.6-14.7-12.1c-0.6-0.2-1.1-0.5-1.7-0.7c0-0.2,0-0.4,0-0.6
		c0.7,0,1.3-0.1,1.8-0.6c2.7-0.1,4-1.7,4.3-4.3c2-3.4-0.7-5.9-1.9-8.6c1.9-0.5,3.2-1.8,4.1-3.5c1.3-2.3,2.4-4.7,3.7-7.1
		c1.2-0.3,0.9,1.6,2,1.4c2-2.9,3.2-6.3,6-9.2c0.4,2.3-0.3,4,0.3,5.7c0.4,1.1,0.7,1.8,1.9,0.9c0.8,0.4,1.7,0.8,2.5,1.3
		c0.2,0.2,0.4,0.4,0.6,0.6c1,0,2,0,3.1,0c3.7-1.3,4.6-2.6,3.7-5.5c-0.4-3.6-1.5-4.7-5-5c2.1-2,2.5-4.2,1.1-6.8
		c-0.7-1.3-1.2-2.6-0.1-4c1.4-1.6,2.3,0.3,3.5,0.4c1,0.1,2.1,2,3,0c1,0.1,2,0.2,3,0.4c6,1.1,15.2-2.3,18-8.4
		c0.2-0.2,0.4-0.4,0.6-0.7c0.2-0.2,0.4-0.4,0.6-0.6c0,0,0,0,0,0c0,3.8,0.2,7.7-0.1,11.5c-0.2,2.4,0.1,3.6,2.7,3.4
		c0.8-0.1,1.4,0.2,1.7,1c-3.3,0.3-5.7,2-7.4,4.8c-2.2,3.6-1.3,7.2,0.1,10.8c-2.6,0-4.4,0.7-4.5,3.8c0,1.4-1.1,2.3-2.4,2.3
		c-2.2,0-2.7,1.5-3,3.2c-0.5,3.3-2,5.8-5.4,6.8c-1.1,0.3-1.8,1-2,2.1c-0.4,2.1-1.8,2.9-3.8,2.7c-0.7-1.9-1-3.9-3-4.9
		c-4-4.4-9.4-4.9-13.9-1.2c-3.2,2.7-4.1,6.4-3.3,10.3c0.6,3,1.9,5.7,5.4,6.4c1,1.1,2.1,1.9,3.7,1.8c-0.2,0.8-0.4,1.7-1.5,1.4
		c-2.9-0.8-2.3,0.9-1.7,2.4C401.1,137.5,401.3,139.5,400.3,141.5z"/>
	<path class="st2" d="M437.4,68.1c-2.8,6.2-12,9.5-18,8.4c-1-0.2-2-0.3-3-0.4c-4.4-1.8-8.2-4.3-10.5-8.7c0.6-0.6,0.4-1.3,0.3-2
		c-1.2-7.5,2.4-14.6,9.3-18c7.5-3.7,15.2-2.8,20.3,3.4c2.4,2.9,5.1,6.6,2.6,11.2c-0.8,1.5-0.3,3.2-0.4,4.9c0,0,0,0,0,0
		C437.2,67,436.7,67.3,437.4,68.1z"/>
	<path class="st2" d="M384.8,78.6c9.8,4.5,9.5,19.1,2.7,24.2c-4.7,3.5-13.9,5.1-18.8-0.4c-2.1-2.3-5-4.1-4.9-7.8
		c1.1-1.7,0.4-3.7,0.6-5.5c0,0,0,0,0,0c2.2-1.1,2.4-3.7,4-5.5c4.1-4.6,8.5-6,14.2-4.3C383.6,79.6,384.5,79.9,384.8,78.6z M379.2,102
		c6.5,0.1,9.2-6,9.2-10.8c0-1.9-4.8-5.4-7.5-5.8c-2.3-0.3-5.9,1.7-7.1,4.1c-0.4,0.8-0.7,1.7-1.1,2.5C371,96.2,374.7,101.9,379.2,102
		z"/>
	<path class="st0" d="M357.1,83.5c3.1,3.9,0.3,10.9-3.9,12.8c-4.8,2.2-8.5,1.7-11-1.7c-0.3-1-0.6-1.9-0.9-2.9
		c-0.7-1.8,0.5-7.3,1.9-8.4c2.7-2,5.3-4.2,8.9-4.2c0,0,0,0,0,0c0.5,0.6,1.2,0.6,1.9,0.6c0,0,0,0,0,0C354.4,81.5,355,83.1,357.1,83.5
		z"/>
	<path class="st2" d="M329.9,73.6c0.5-0.6,0.3-1.1-0.1-1.6c-2.8-4-2.2-8.8,1.6-11.9c2.5-2.1,5.3-3.7,8.7-3.8c1.1,0,2-0.4,2.7-1.2
		c6.8,4.3,6,16.2-0.6,18.5c0.2-1.5,1.2-2.5,2-3.7c1.1-1.6,2.1-3.2,1.1-5.4c-1.4-3-5.1-4.7-7.9-3.5c-3.9,1.6-6.7,6-5.5,8.9
		c0.8,1.9,2.5,3.3,4,4.6c1.4,1.1,2.6-0.2,3.8-1c0.8-0.5,1.6,0.1,2.4,0.2C339.3,76.8,333.3,76.8,329.9,73.6z"/>
	<path class="st3" d="M383.6,119.9c-0.5,0.5-1.2,0.6-1.8,0.6c-4.7-0.9-7.4-4.2-6.7-8.3c0.6-3.9,4.5-6.2,9.1-5.4
		c0.6,0.1,1.2,0.1,1.8,0.2c1.2,2.7,3.9,5.2,1.9,8.6c-0.7-0.8-0.5-1.7-0.7-2.6c-0.6-2.3-3-3.9-5.1-3.4c-2.7,0.6-4.6,3.5-4.1,5.9
		C378.6,118.5,381.2,119,383.6,119.9z"/>
	<path class="st3" d="M352.1,79.1c-3.6,0-6.3,2.1-8.9,4.2c-1.4,1.1-2.6,6.6-1.9,8.4c0.3,1,0.6,1.9,0.9,2.9c-1.8,0-2.6-1.4-3.1-2.7
		c-1.3-3.6-1.5-7.4,0.9-10.6c2.2-3,5.4-4.3,9.2-4C350.5,77.4,351.7,77.6,352.1,79.1z"/>
	<path class="st0" d="M362,103.2c2.4,3,2.1,5.5-1.1,7.7c-2.6,1.8-5.3,1.2-6.9-1.5c0.7-0.8,0.4-1.9,0.7-2.9c0.6-2.2,1.6-3.9,4.3-3.6
		C360,103.1,361,103.1,362,103.2z"/>
	<path class="st0" d="M342.3,107.6c1.1,2.3,1,4.6-1.2,5.9c-1.9,1.2-4.3,1.9-6.3-0.3C335.5,107.1,337.4,105.6,342.3,107.6z"/>
	<path class="st3" d="M384.8,78.6c-0.4,1.3-1.2,1-2.2,0.7c-5.7-1.8-10.2-0.3-14.2,4.3c-1.6,1.7-1.7,4.3-4,5.5
		c0.2-5.6,5.2-11.1,10.7-11.6C378.5,77.1,381.7,77.1,384.8,78.6z"/>
	<path class="st3" d="M408.9,86.5c3.4,0.3,4.6,1.5,5,5c-0.6-0.2-1-0.5-1.4-1c-2.2-2.6-4-2.4-6.1,0.2c-1.8,2.1-0.6,3.9,0.1,5.8
		c-0.8-0.4-1.7-0.8-2.5-1.3C402.2,89.8,403.9,86.9,408.9,86.5z"/>
	<path class="st2" d="M342.3,107.6c-4.8-1.9-6.8-0.5-7.5,5.6c-2.9-1-2.1-3.6-2-5.5c0.1-2.3,2.4-2.9,4.4-3.1
		C339.6,104.3,341.5,105,342.3,107.6z"/>
	<path class="st3" d="M362,103.2c-1-0.1-2-0.2-3-0.3c-2.7-0.4-3.8,1.4-4.3,3.6c-0.3,1,0.1,2-0.7,2.9c-2-2.3-1.4-4.6,0.3-6.6
		C356,100.7,358.7,101,362,103.2z"/>
	<path class="st3" d="M357.1,83.5c-2-0.4-2.7-2-3.1-3.7C355.6,80.5,356.5,81.8,357.1,83.5z"/>
	<path class="st0" d="M336.1,49.5c0.4,0.2,0.8,0.4,1.2,0.6c-0.2,0.6-0.5,1.3-1.2,0.9C335.3,50.7,335.7,50,336.1,49.5z"/>
	<path class="st3" d="M364.5,89c-0.1,1.8,0.5,3.8-0.6,5.5C364.1,92.7,363.3,90.8,364.5,89z"/>
	<path class="st0" d="M341,150.8c-0.3-0.2-0.5-0.4-0.8-0.6c0.1-0.1,0.1-0.1,0.2-0.2C340.6,150.3,340.8,150.5,341,150.8
		C341.1,150.8,341,150.8,341,150.8z"/>
	<path class="st3" d="M339.2,130.4c-0.7-0.1-1.1-0.6-1.2-1.3C338.6,129.3,339,129.7,339.2,130.4z"/>
	<path class="st3" d="M354,79.8c-0.7,0-1.4-0.1-1.9-0.6C352.8,79.1,353.5,79.2,354,79.8z"/>
	<path class="st3" d="M337.9,129.2c-0.2-0.4-0.4-0.8-0.6-1.3C337.5,128.3,337.7,128.8,337.9,129.2z"/>
	<path class="st3" d="M355.2,194c3.7,2.9,7.8,4,12.4,2.7c5.4-1.6,8.6-6.2,8.6-11.9c0-0.8,0-1.6,0-2.5c1.6-0.5,2-1.7,1.7-3.2
		c-0.6-2.8,1.2-4.9,3.3-5.1c6-0.8,8.7-5.7,12.6-9.1c0.7-0.6,1.1-2.2,2.3-1.3c1.2,1,0.1,2.1-0.7,2.8c-4,3.8-7.2,8-7.7,13.8
		c-0.1,0.9-0.2,1.6,0.9,1.9c-0.9,4.5,0.5,8.1,3.9,9.7c3.8,1.8,7.9,0.8,10.6-2.9c1.9-2.5,0.7-5.4,1-8.1c1.7-2,3.2-4,2.7-6.9
		c-0.1-0.7,0.2-1.2,0.8-1.5c5.2-2.2,7.9-7.4,12.5-10.2c5.7-0.1,10.3-2.1,12.9-7.7c1.4-2.9,0.2-5.6,0.1-8.4c2.8-0.8,4.3-5.3,2.9-8.3
		c-0.6-1.2-1.3-2.4-1.7-3.6c-0.9-2.6-0.8-5,0.9-7.5c2.5-3.9,6.5-6.9,7.6-11.5c1-4.1,2.6-7.5,6.4-9.7c2.3-1.3,2.8-3.3,1.8-5.7
		c0.5-0.9,0.8-1.9,1.8-2.5c2.1,1.2,2.1-0.8,2.2-1.7c0.2-2.5,0.8-5.3,0.1-7.7c-2-6.7,1.2-12.1,3.7-17.7c0.5-1,2.1-1.8,0.6-3.1
		c-1.2-1-2.7-1.6-4.2-0.5c-1.2,0.8-2.3,1.7-3.5,2.6c-0.7,0.6-1.5,1.3-2.5,0.7c-1-0.6-0.9-1.7-0.7-2.5c0.7-3.2,0.5-6.3,0.6-9.5
		c0.1-2.8-0.1-5.5-1-8.2c-0.2-0.7-0.2-1.5,0.7-1.8c0.4-0.2,0.9-0.1,1.1,0.3c1.4,4.8,6.3,3.6,9.3,5.5c3.1,1.9,6.9,3.2,8.8,6.8
		c1.3,2.4,3.9,3.3,5.4,5.6c2,3,4.4,6.3,5.1,9.2c1,4.4,3.5,7.4,5.3,11.1c1.7,3.4,3.4,7.2,1.7,11.2c-0.3,0.6,0,1.2,0.3,1.7
		c3.3,4.3,3,9.5,3.3,14.5c0.5,8.3,0.1,16.8-2.1,24.8c-1.9,7.2-4.1,14.3-8,21.1c-4.6,8-9.8,15.4-15.2,22.7
		c-4.9,6.8-11.8,11.3-18.7,15.6c-2.1,1.3-4.1,2.7-6.1,4.1c-5.1,3.5-11.7,3.3-16.6,7.2c-1.1,0.9-2.9,0.1-4.4,0.7
		c-12.9,5.1-26.4,3.9-39.8,3c-2.7-0.2-4.7-1.9-7.2-2.7c-2.6-0.9-5.3-1.7-7.9-2.5c-3.3-1.1-6.3-3.1-9.1-5.3c-1.9-1.4-3.8-2.7-5.8-4.1
		c-2.8-2-3.6-5.3-1.9-8.1c0.8-1.3,1.5-1.6,2.6-0.3c1,1.3,2.1,2.5,3.2,3.7C353.2,195.1,354.2,195.6,355.2,194z M426.1,176.6
		c-2.4-1-3.9-2.3-6-2.4c-4.7-0.3-8.4,1.7-10.3,5.8c-1.9,3.9-1.2,9.2,1.6,12.4c0.8,0.9,2.2,1.6,1.5,3c-0.7,1.4-2.1,1-3.3,1
		c-3.6,0-7.2,0.2-10.7,0.7c-2.2,0.3-4.9,1.4-6.6-1.4c-0.3-0.5-1.1-0.5-1.7-0.2c-0.6,0.4-0.7,1.1-0.5,1.6c0.7,1.6,0.9,3.3,1.3,5.1
		c0.3,1.7,1.5,2.3,3.2,2.2c6.6-0.4,13.1,0.7,19.7,0.7c3.8,0,6.8-0.7,8.8-4.3c1-1.8,2.5-3,4.8-1.4c1,0.7,2.3,0.9,3.6,0.5
		c3.5-1.3,7.1-2,10.2-4.2c3.2-2.4,6.8-4.4,9.6-7.2c2.8-2.8,6.9-4.7,7.6-9.3c0.2-1.6,1.9-2.1,3.2-2.7c2.8-1.4,4.7-3.2,5.3-6.6
		c0.7-4.4,3.5-8.3,6.1-11.5c1.9-2.3,3.2-4.7,4.8-7.2c2.2-3.5,2.7-7.3,3.5-11c0.8-3.8,2.5-7.9-0.7-11.8c-0.8-0.9-1-2.6,0.4-3.9
		c2.7-2.5,2.6-3.2-0.7-4.9c-2.7-1.4-3-3.5-1.1-5.8c2-2.3,3.5-4.8,4.3-7.7c1.3-4.7,0.8-9.1-2.4-13c-3.6-4.3-8.1-6.7-13.8-5.8
		c-7.7,1.3-11.8,6.7-12.3,14.3c-0.5,7.1,5.7,14.4,12.2,15.1c0.8,0.1,1.7,0,1.9,1.1c0.2,0.8-0.2,1.4-0.9,1.8
		c-0.9,0.6-1.7,0.7-2.5-0.1c-1-0.9-1.9-1.9-3-2.7c-0.8-0.6-1.7-0.9-2.1,0.6c-0.6,2.5-1.8,1.7-2.9,0.4c-0.9-1-1.6-1.1-2.1,0.4
		c-0.3,0.8-0.9,1.6-1.5,2.3c-1.2,1.6-1.7,2.7,1.1,3.1c2.1,0.3,4.3-0.1,6.2,1.4c0.9,0.6,2.4,0.7,2.1,2.2c-0.3,1.5-1.8,1-2.9,1.1
		c-7.6,0.4-12.4,5.4-12.4,13c0,1.5,0.3,3.1,0.3,4.6c0,1.2-0.6,2.4-1.8,2.5c-1.6,0.1-1.6-1.3-1.5-2.5c0-0.9,0.2-1.8,0.4-2.7
		c0.9-4,2.2-7.9,1.4-12.1c-0.2-0.8-0.2-1.8-1.3-1.8c-1.2-0.1-1.1,1-1.1,1.8c0.1,2.9-1.2,5-3.5,6.8c-1.8,1.4-2.8,3.4-2.4,6
		c0.3,2.5-0.6,4.9-2.4,6.7c-1.6,1.6-1.9,2.8,0.3,4.1c1.1,0.7,1.7,1.9,0,2.5c-2,0.8-2.3,2.3-2.5,4.1c-0.2,4-2.1,6.8-6.1,7.9
		c-1.1,0.3-1.8,1-1.8,2.2C426.2,173.1,425.5,174.6,426.1,176.6z"/>
	<path class="st4" d="M452.8,97.7c-1,0.5-1.4,1.5-1.8,2.5c-6.9,3.7-9.8,3.4-15.4-1.8c-1.4-3.6-2.3-7.2-0.1-10.8
		c1.7-2.8,4.1-4.5,7.4-4.8c1.5,0,2.9,0.1,4.4,0.1c0.4,0,0.8,0.1,1.2,0.1c0.7,1.4,2.2,1.8,3.1,2.9C454.6,89.4,454.8,93.4,452.8,97.7z
		 M438.4,94.9c0,4.5,1.4,5.7,5.8,6c3.1,0.2,4.1-2.1,5.9-3.6c2.7-2.4,2.1-7.7-1.3-9.1c-3.2-1.3-6.1,0.4-8.8,1.7
		C438.1,90.7,438.1,92.8,438.4,94.9z"/>
	<path class="st0" d="M448.4,82.9c-0.4,0-0.8-0.1-1.2-0.1c0.2-0.2,0.3-0.7,0.5-0.7C448.3,82,448.3,82.5,448.4,82.9z"/>
	<path class="st4" d="M433,146.5c0.1,2.8,1.2,5.5-0.1,8.4c-2.6,5.6-7.1,7.5-12.9,7.7c-7.9-1.8-11.1-9.6-9.2-15.2
		c1.5-4.4,5.5-7.9,10.1-8.3c4.9-0.4,8.4,2,10.9,6C432.2,145.6,432.6,146,433,146.5z M421.3,159.4c4.3,0,9.7-4.4,9.7-8
		c0.1-3.2-4.5-7.5-8-7.4c-3.4,0-8.6,5-8.6,8.3C414.5,155.8,418,159.4,421.3,159.4z"/>
	<path class="st4" d="M404,181c-0.3,2.7,0.9,5.6-1,8.1c-2.7,3.6-6.8,4.7-10.6,2.9c-3.4-1.6-4.8-5.2-3.9-9.7
		c2.4-6.1,8.8-7.5,13.7-2.8C402.8,179.9,403.4,180.5,404,181z"/>
	<path class="st3" d="M411.5,114.3c2,1,2.3,3.1,3,4.9c0,7.7-1.7,9.5-11.1,12.3c-1.6,0.1-2.7-0.7-3.7-1.8c-0.1-1.1-0.9-1.8-1.6-2.5
		c-3.2-3.4-0.7-12.4,3.9-13.1C405,113.7,408.3,112.8,411.5,114.3z M406.8,116.2c-1.1,0.3-2.6,0.6-3.9,1.2c-2.3,1.1-3.5,3.1-3.3,5.8
		c0.2,2.9,1.6,5.2,4.1,6.4c2.3,1,3.7-0.9,5.1-2.5c0.5-0.6,1.3-1.1,1.8-1.7c1.6-1.9,1.6-4,0.6-6C410.4,117.7,409.2,116.2,406.8,116.2
		z"/>
	<path class="st2" d="M393.5,143.9c0,7.9-5,15.3-12.6,17c-4.9,1.1-10,0.2-14.5-2.5c-0.4-0.3-0.9-0.7-1-1.1c-1.5-4.6-3.3-9.3-2-14.2
		c1.2-4.9,3.6-9,8.6-11.3c2.4-1.1,4.4-3,7.3-2c4.1,1.5,8.8,1.4,12.1,5.4C393.7,138,393.4,140.8,393.5,143.9z"/>
	<path class="st2" d="M438.6,66.8c-0.2,0.2-0.4,0.4-0.6,0.6c0-0.2,0-0.4,0-0.6c0,0,0,0,0,0C438.2,66.8,438.4,66.8,438.6,66.8z"/>
	<path class="st3" d="M364.2,194c-4.8,0-6.6-1.9-6.6-7.4c0-4.3,5-9.9,8.9-9.8c2.6,0,7.6,4.2,7.5,6.3
		C373.8,188.5,368.8,194,364.2,194z"/>
	<path class="st0" d="M330.4,145.2c-3.8,0-6.5-1.8-7.7-4.8c-1-2.6,1.3-7.3,4.8-9.7c2.4-1.6,4.2-1.2,7,1.4c4.3,4.1,4.4,5.8,1,10.6
		C334.1,144.7,332.4,145.3,330.4,145.2z"/>
	<path class="st0" d="M301.5,112.4c0-2.1,4-7.7,5.9-8.3c2.8-0.9,5.2,0,7.3,3c1.4,1.9,1.2,5.6-0.5,7.8c-2.9,3.8-8.8,4-11.9,0.4
		C301.5,114.5,301.5,113.4,301.5,112.4z"/>
	<path class="st2" d="M355.2,160.4c0.1,3.4-4.9,8.8-7.9,8.7c-1.6,0-6.1-4.5-6.2-6.1c-0.2-3.1,4.3-9,6.8-9
		C351.6,154.1,355.1,157.1,355.2,160.4z"/>
	<path class="st2" d="M383.6,119.9c-2.4-0.9-5-1.4-5.6-4.5c-0.5-2.4,1.5-5.3,4.1-5.9c2.1-0.5,4.5,1.1,5.1,3.4c0.2,0.9,0,1.9,0.7,2.6
		C387.6,118.2,386.3,119.8,383.6,119.9z"/>
	<path class="st4" d="M411.5,114.3c-3.1-1.6-6.4-0.7-9.5-0.2c-4.6,0.7-7,9.7-3.9,13.1c0.7,0.7,1.5,1.4,1.6,2.5
		c-3.5-0.7-4.8-3.4-5.4-6.4c-0.8-3.9,0.1-7.6,3.3-10.3C402.1,109.4,407.4,109.9,411.5,114.3z"/>
	<path class="st2" d="M406.5,96.5c-0.8-1.9-1.9-3.7-0.1-5.8c2.1-2.5,3.8-2.7,6.1-0.2c0.4,0.5,0.8,0.9,1.4,1c0.9,2.9-0.1,4.3-3.7,5.5
		c-1-1.9-2-1.2-3.1,0C406.9,96.9,406.7,96.7,406.5,96.5z"/>
	<path class="st3" d="M407.1,97c1-1.2,2-1.9,3.1,0C409.1,97,408.1,97,407.1,97z"/>
	<path class="st3" d="M438,66.8c0,0.2,0,0.4,0,0.6c-0.2,0.2-0.4,0.4-0.6,0.7C436.7,67.3,437.2,67,438,66.8z"/>
	<path class="st0" d="M379.2,102c-4.5,0-8.3-5.8-6.4-9.9c0.4-0.8,0.7-1.7,1.1-2.5c1.2-2.4,4.8-4.4,7.1-4.1c2.6,0.4,7.5,3.9,7.5,5.8
		C388.5,96,385.8,102,379.2,102z"/>
	<path class="st0" d="M342.2,73.6c-0.8,0-1.6-0.7-2.4-0.2c-1.2,0.8-2.5,2.1-3.8,1c-1.6-1.3-3.3-2.6-4-4.6c-1.2-2.9,1.7-7.3,5.5-8.9
		c2.8-1.2,6.5,0.5,7.9,3.5c1,2.2-0.1,3.8-1.1,5.4C343.5,71.1,342.4,72.1,342.2,73.6C342.2,73.6,342.2,73.6,342.2,73.6z"/>
	<path class="st4" d="M426.1,176.6c-0.6-2,0.1-3.5,0.2-5c0.1-1.2,0.7-1.9,1.8-2.2c4-1.1,5.9-3.9,6.1-7.9c0.1-1.9,0.4-3.4,2.5-4.1
		c1.7-0.7,1.1-1.8,0-2.5c-2.2-1.3-1.8-2.6-0.3-4.1c1.9-1.8,2.8-4.2,2.4-6.7c-0.3-2.6,0.7-4.6,2.4-6c2.3-1.8,3.6-3.9,3.5-6.8
		c0-0.8-0.1-1.8,1.1-1.8c1,0,1.1,1,1.3,1.8c0.8,4.2-0.4,8.1-1.4,12.1c-0.2,0.9-0.4,1.8-0.4,2.7c0,1.1-0.1,2.6,1.5,2.5
		c1.2-0.1,1.8-1.3,1.8-2.5c0-1.5-0.3-3.1-0.3-4.6c0-7.5,4.8-12.5,12.4-13c1-0.1,2.5,0.5,2.9-1.1c0.3-1.5-1.2-1.6-2.1-2.2
		c-1.9-1.4-4.2-1-6.2-1.4c-2.8-0.5-2.3-1.5-1.1-3.1c0.6-0.7,1.2-1.5,1.5-2.3c0.5-1.6,1.2-1.5,2.1-0.4c1.2,1.3,2.3,2.1,2.9-0.4
		c0.4-1.5,1.3-1.2,2.1-0.6c1.1,0.8,2,1.8,3,2.7c0.8,0.8,1.7,0.6,2.5,0.1c0.6-0.4,1.1-1,0.9-1.8c-0.2-1.1-1.1-1-1.9-1.1
		c-6.5-0.7-12.7-8-12.2-15.1c0.6-7.6,4.6-13,12.3-14.3c5.7-0.9,10.2,1.5,13.8,5.8c3.3,3.9,3.7,8.3,2.4,13c-0.8,2.9-2.3,5.5-4.3,7.7
		c-2,2.3-1.6,4.4,1.1,5.8c3.3,1.7,3.5,2.4,0.7,4.9c-1.5,1.3-1.2,3-0.4,3.9c3.3,3.8,1.5,7.9,0.7,11.8c-0.8,3.7-1.2,7.6-3.5,11
		c-1.6,2.4-2.8,4.8-4.8,7.2c-2.7,3.2-5.4,7.1-6.1,11.5c-0.6,3.4-2.5,5.3-5.3,6.6c-1.3,0.6-2.9,1.1-3.2,2.7c-0.7,4.6-4.8,6.5-7.6,9.3
		c-2.8,2.8-6.4,4.8-9.6,7.2c-3.1,2.2-6.7,3-10.2,4.2c-1.2,0.5-2.6,0.2-3.6-0.5c-2.3-1.6-3.8-0.4-4.8,1.4c-2,3.6-5,4.3-8.8,4.3
		c-6.6,0-13.1-1.1-19.7-0.7c-1.7,0.1-2.9-0.6-3.2-2.2c-0.4-1.7-0.5-3.4-1.3-5.1c-0.3-0.6-0.2-1.3,0.5-1.6c0.6-0.4,1.4-0.3,1.7,0.2
		c1.7,2.8,4.5,1.7,6.6,1.4c3.6-0.5,7.1-0.7,10.7-0.7c1.2,0,2.7,0.4,3.3-1c0.7-1.5-0.8-2.2-1.5-3c-2.8-3.2-3.5-8.5-1.6-12.4
		c2-4.1,5.7-6.1,10.3-5.8C422.1,174.3,423.6,175.7,426.1,176.6z"/>
	<path class="st3" d="M438.4,94.9c-0.3-2-0.3-4.1,1.6-5c2.7-1.3,5.6-3,8.8-1.7c3.4,1.4,4,6.7,1.3,9.1c-1.8,1.5-2.7,3.9-5.9,3.6
		C439.8,100.5,438.4,99.4,438.4,94.9z"/>
	<path class="st3" d="M421.3,159.4c-3.3,0-6.8-3.6-6.8-7.1c0-3.3,5.2-8.3,8.6-8.3c3.5,0,8,4.2,8,7.4
		C431,155.1,425.6,159.4,421.3,159.4z"/>
	<path class="st2" d="M406.8,116.2c2.4,0,3.6,1.4,4.5,3.1c1,2.1,1.1,4.2-0.6,6c-0.5,0.6-1.3,1.1-1.8,1.7c-1.3,1.6-2.8,3.5-5.1,2.5
		c-2.5-1.1-3.9-3.5-4.1-6.4c-0.2-2.6,0.9-4.6,3.3-5.8C404.2,116.8,405.7,116.6,406.8,116.2z"/>
</g>
<g>
	<path class="st5" d="M275.4,403.9c5.6-0.5,11.1-0.9,16.7-1.5c3.7-0.3,6.7,0.9,7.2,4.9c0.5,4-1.2,7.1-5.5,8
		c-6.3,1.4-12.8,2.2-20.8,2.8c5.9,3.7,10.8,6.8,15.7,9.8c2.9,1.8,4.7,4.2,4,7.7c-1,4.9-5.8,7.4-10.2,4.7
		c-12.7-7.7-25.3-15.6-37.8-23.6c-4.9-3.2-4.8-9.2,0.3-12.1c9.9-5.6,19.4-12,29.7-16.9c2.2-1.1,4-2.9,6.1-3.9
		c3.7-1.7,6.9-0.6,8.9,2.8c2.1,3.5,1.3,6.8-2,9c-4,2.7-8.3,5.1-12.5,7.6C275.3,403.5,275.4,403.7,275.4,403.9z"/>
	<path class="st5" d="M350.4,388.2c-0.1,2.6-1.7,4.2-3.7,5.5c-7.9,5.3-16.4,9.6-25.2,13.1c-4,1.6-7.1,0.1-8.9-3.6
		c-1.7-3.5-0.4-7.2,3.4-9c8.2-3.7,16.2-7.7,23.8-12.5c2.4-1.5,4.9-1.3,7.4,0.3C349.6,383.5,350.4,385.6,350.4,388.2z"/>
	<path class="st5" d="M420.8,265.7c-0.2,2.9-0.4,5.9-0.7,8.8c-0.5,4.1-3.2,6.1-7.1,6.1c-4.1,0-6.1-2.7-6.6-6.6
		c-0.2-1.4,0-2.9,0.2-4.4c0.7-7.3,0.8-14.7,0.1-22.1c-0.4-3.9,1-7.1,4.8-8c5.2-1.2,8.4,1.3,9,6.6
		C421.2,252.6,421.2,259.2,420.8,265.7z"/>
	<path class="st5" d="M358.7,368.3c6.2-6.7,12.5-13.2,18-20.4c1.5-1.9,3.3-3.7,5.5-4.3c2.7-0.8,5.2,0.2,7,2.4
		c1.9,2.4,2.3,5.2,0.4,7.7c-6.4,8.7-13.2,17.1-21.9,23.7c-0.9,0.2-1.8,0.4-2.7,0.6c-4.7-1-6.7-4-6.8-8.6
		C358.3,369,358.5,368.7,358.7,368.3z"/>
	<path class="st5" d="M414.7,303c-2.3,8.8-5.9,18.4-10.8,27.4c-1.6,2.9-4.7,3.9-8.1,2.6c-3.4-1.3-4.7-3.7-3.9-7.3
		c0.3-1.4,0.4-2.8,1-4.2c3.3-7.1,6.3-14.3,8.3-21.9c1-3.8,3.7-6.4,8-5.5C413.1,295,415.5,297.3,414.7,303z"/>
</g>
<path class="st5" d="M216.8,86.7c1.9,3.6,0.2,8.2-3.5,9c-8,1.8-15.9,3.6-23.6,6.3c-3.2,1.1-6-0.5-7.2-3.8c-1.2-3.1-0.4-5.8,2.7-7.2
	c8.3-3.7,17.1-5.7,26.1-7.1C213.6,83.5,215.6,84.9,216.8,86.7z"/>
<path class="st5" d="M135,135.3c0.7,2.2,0.8,4.5-1,6.6c-4.8,5.9-8.9,12.3-12.6,18.9c-1.7,2.9-4.5,4.5-7.6,2.8
	c-2.5-1.3-4.6-3.3-3.2-7.2c3.5-9.3,9.3-16.9,16.1-23.8C128.8,130.6,133.5,132.2,135,135.3z"/>
<path class="st5" d="M111.6,185.2c-2.5,5.7-3.4,11.8-4.4,17.9c-0.9,5-3.2,7.3-7.1,6.9c-3.9-0.5-6-3.8-5-8.8
	c1.2-6.5,2.8-12.9,4.2-19.3c0.2-0.5,0.4-1,0.5-1.5c1.3-1.4,1-3.9,3-4.8c2.4-1.1,4.7-2,7.2-0.1c2.4,1.8,2.7,4.2,2.2,6.9
	C112,183.3,111.8,184.2,111.6,185.2C111.6,185.2,111.6,185.2,111.6,185.2z"/>
<path class="st5" d="M97.3,254.6c-1.2-2.1-1.4-4.9-1.8-7.6c-0.9-5.9-1.6-11.9-2-17.9c-0.3-4.1,2.3-6.9,5.9-7.1
	c3.5-0.1,6.1,2.2,6.3,6.2c0.5,7.6,1.5,15.1,3,22.5c0.7,3.3-0.6,6.1-4,7.2C101.7,258.9,99.1,257.9,97.3,254.6z"/>
<path class="st5" d="M150,125.4c-3.9,2.1-7.5,1.1-9-2.1c-1.5-3.1,0.2-5.8,2.9-8.2c4.2-3.7,8.7-6.9,13.2-10.2
	c1.9-1.3,3.8-2.6,5.8-3.7c3.5-1.8,7.1-0.8,8.5,2.3c1.5,3.3,0.9,6.1-2.4,8.1C162.1,115.9,155.6,120.7,150,125.4z"/>
<path class="st5" d="M249.1,95.2c-4.3-0.3-8.6-0.7-12.8-1c-4.2-0.3-6.7-2.6-6.7-6.3c0-3.5,2.7-6,6.9-5.9c5.6,0.2,11.1,0.7,16.7,1.1
	c0.9,1.7,2.1,0.2,3.2,0.4c5.6,1.6,6,8.4,1.7,11.4c-2,1.4-4.4,0.5-6.6,0.7C250.7,95.2,250,94.8,249.1,95.2z"/>
<g>
	<circle class="st0" cx="331.1" cy="-424.1" r="109.4"/>
	<path class="st2" d="M310.3-326.3c-19.4-0.2-35.5-9.5-51.5-19.1c-5.3-3.2-11.6-6.3-11.6-13.4c0.1-8.9,9.4-9.1,13.9-9.1
		c46.8,0.2,67.8-35.1,92.7-65.6c24.4-29.9,26.8-55.7,6.7-88.2c24.6-4.8,51.4,36.1,50.1,41.4c-6.3,3.8-10.9,9.1-12.3,16.4
		c-8.9,46.7-36.9,80.5-74.6,106.5C311.5-348.8,308.3-339.5,310.3-326.3z"/>
	<path class="st4" d="M416.2-458.9c18.8,22.6,4.3,47.9,5.9,71.8c1,1-46.4,48.6-70.6,53.8c-13.7,2.9-26.8,8.4-41.2,6.9
		c-2-13.2,1.2-22.5,13.5-31c37.8-26,65.7-59.8,74.6-106.5c1.4-7.3,6-12.6,12.3-16.4c1.9,5.3,3.7,10.6,5.6,15.9
		C416.3-462.4,416.3-460.6,416.2-458.9"/>
	<path class="st2" d="M416.2-458.8c0-1.8,0-3.6,0.1-5.4c3.8-0.1,7.6-0.2,11.5-0.3c9,26.6,10.8,52.7-5.7,77.5
		C420.5-411,434.9-436.3,416.2-458.8L416.2-458.8z"/>
	<path class="st1" d="M295.8-512.2c10.8-0.4,21.2,0.6,30.9,6.2c25,14.5,26.5,24.4,8,46.3c-12,14.2-23.7,28.8-34.1,44.2
		c-11.3,16.8-26,26.1-45,18.2c-19.4-8-21.9-27.7-19.7-45.5c3-24.3,22.4-41.5,32.7-62.9C272.6-514.2,286-512.1,295.8-512.2z"/>
	<path class="st2" d="M416.2-458.8C416.2-458.8,416.2-458.9,416.2-458.8"/>
</g>
<path class="st6" d="M13.4,338.8c8.3-18.4,22.1-32,38.7-42.8c18.4-12,39-17.6,60.8-17c55.2,1.5,99.3,42.4,106.2,94.6
	c2.9,21.9-0.1,42.9-9.9,62.8c-2.9-1.1-4.2,1.5-5.9,2.8c-20.2,14.9-43.3,21.8-68,22.4c-15.7,0.4-31.3-2.7-46-8.9
	c-15.9-6.6-30.2-15.9-42-28.5c-9.3-9.9-17-21.2-22.3-34c-4.5-10.9-7.8-21.8-9.4-33.4C14.5,350.8,16.3,344.5,13.4,338.8z"/>
<path class="st7" d="M13.4,338.8c3,5.7,1.2,12,2,18c1.7,11.7,4.9,22.5,9.4,33.4c5.4,12.9,13,24.1,22.3,34
	c11.8,12.5,26.1,21.8,42,28.5c14.7,6.1,30.3,9.3,46,8.9c24.7-0.6,47.8-7.5,68-22.4c1.7-1.3,3-3.9,5.9-2.8
	c-18.4,36.3-47.8,57.3-88.3,61.1c-41.7,4-75.1-12.3-99.9-45.8C-2.5,420.1-5.6,370.3,13.4,338.8z"/>
<g>
	<path class="st8" d="M-487-344.6c7.4-16.5,19.8-28.6,34.6-38.3c16.5-10.7,34.9-15.7,54.5-15.2c49.5,1.3,89,38,95.2,84.7
		c2.6,19.7-0.1,38.4-8.9,56.2c-2.6-1-3.8,1.3-5.3,2.5c-18.1,13.4-38.8,19.5-60.9,20.1c-14.1,0.4-28-2.4-41.2-7.9
		c-14.3-5.9-27.1-14.3-37.6-25.5c-8.4-8.9-15.2-19-20-30.5c-4.1-9.7-7-19.5-8.4-29.9C-486-333.8-484.4-339.5-487-344.6z"/>
	<path class="st9" d="M-487-344.6c2.7,5.1,1.1,10.7,1.8,16.1c1.5,10.5,4.4,20.2,8.4,29.9c4.8,11.5,11.6,21.6,20,30.5
		c10.6,11.2,23.4,19.5,37.6,25.5c13.2,5.5,27.1,8.3,41.2,7.9c22.1-0.6,42.8-6.7,60.9-20.1c1.6-1.2,2.7-3.5,5.3-2.5
		c-16.5,32.5-42.8,51.3-79.1,54.8c-37.4,3.5-67.3-11-89.5-41C-501.3-271.7-504-316.4-487-344.6z"/>
	<path class="st10" d="M-391.1-464.3c0,10.2,0.1,20.3,0,30.5c-0.1,6.1-3.2,9.5-8.4,9.7c-5.2,0.2-9.1-3-9.1-8.4
		c-0.2-21.1-0.1-42.3,0-63.4c0-4.9,4.1-8.3,8.9-8.3c4.7,0,8.5,3.6,8.6,8.5C-391-485.3-391.1-474.8-391.1-464.3
		C-391.1-464.3-391.1-464.3-391.1-464.3z"/>
	<path class="st10" d="M-391.1-136c0,10,0,20,0,29.9c0,6.8-3.1,10.6-8.6,10.7c-5.7,0.1-9-3.8-9-10.7c0-19.8-0.1-39.6,0-59.4
		c0-6.2,2.9-9.7,8.1-10c5.5-0.4,9.5,3.3,9.5,9C-391-156.3-391.1-146.2-391.1-136z"/>
	<path class="st9" d="M-235.7-291.3c-10.2,0-20.3,0-30.5,0c-5.6,0-9.6-3.8-9.6-8.6c0.1-5.1,3.8-8.5,9.7-8.5
		c20.1-0.1,40.3-0.1,60.4,0c6.6,0,10.4,3.5,10.3,8.9c-0.1,5-4.1,8.2-10.4,8.2C-215.8-291.3-225.7-291.3-235.7-291.3z"/>
	<path class="st9" d="M-564-291.3c-10.1,0-20.3,0-30.4,0c-6,0-10.1-3.6-10.1-8.7c0-4.9,4-8.4,9.8-8.5c20.3-0.1,40.6-0.1,60.9,0
		c5.7,0,9.7,3.6,9.8,8.5c0.1,5-4,8.6-10,8.6C-544.1-291.3-554.1-291.3-564-291.3z"/>
	<path class="st9" d="M-277.9-413.2c-3.6,0.2-6.1-1.3-7.8-4.4c-1.9-3.3-1.6-6.7,0.8-9.3c5.9-6.3,11.9-12.5,18.3-18.3
		c3.8-3.3,8.3-2.4,11.6,1.1c3.1,3.4,3.1,8.1-0.3,11.7c-5.5,5.7-11.2,11.3-16.8,16.9C-273.7-413.8-275.6-413-277.9-413.2z"/>
	<path class="st9" d="M-522-186.6c7.5,0.3,11.1,6.9,7.6,13c-2.3,4-6.3,6.3-9.2,9.8c-2.5,3-5.5,5.7-8.5,8.4
		c-3.8,3.5-8.8,3.6-12.2,0.5c-3.5-3.2-3.9-8.7-0.4-12.5c5.4-5.9,11.2-11.4,16.8-17C-526-186.1-523.8-186.8-522-186.6z"/>
	<path class="st9" d="M-521.9-413.2c-4.3,0.7-6.5-2.8-9.1-5.2c-4.6-4.3-8.9-8.9-13.2-13.5c-3.8-4-3.9-8.9-0.5-12.4
		c3.6-3.7,8.3-3.9,12.4,0c5.8,5.5,11.4,11.2,16.9,16.9c2.6,2.6,2.9,5.9,1.4,9.2C-515.4-414.7-518-413.1-521.9-413.2z"/>
	<path class="st9" d="M-277.9-186.5c2.3-0.1,4.2,0.7,5.8,2.3c5.5,5.5,11.1,11,16.5,16.6c3.8,3.9,3.7,8.9,0.2,12.4
		c-3.5,3.4-8.7,3.4-12.5-0.3c-5.2-5.1-10.4-10.2-15.5-15.4c-3-3-4.4-6.5-2.5-10.8C-284.3-185.4-281.4-186.4-277.9-186.5z"/>
</g>
</svg>
