<?xml version="1.0" encoding="utf-8"?>
<!-- Generator: Adobe Illustrator 26.2.1, SVG Export Plug-In . SVG Version: 6.00 Build 0)  -->
<svg version="1.1" id="Layer_1" xmlns="http://www.w3.org/2000/svg" xmlns:xlink="http://www.w3.org/1999/xlink" x="0px" y="0px"
	 viewBox="0 0 500 500" style="enable-background:new 0 0 500 500;" xml:space="preserve">
<g>
	<path d="M177,197.7c0-46.9-0.1-93.9,0.1-140.8c0.1-33.1,22.2-56.1,53.3-55.9c30.3,0.2,52.1,23.1,52.1,55.5
		c0.1,93.9-0.1,187.7,0.5,281.5c0,7.5,3.4,16.3,8.2,22.1c24.4,29.8,28.5,68.7,9.1,100c-18.3,29.5-55.8,44.9-89,36.6
		c-37.2-9.3-61.6-37.9-64-76.7c-1.4-22.5,6.8-42,21-59.7c4.7-5.9,8.3-14.5,8.4-22C177.3,291.5,176.9,244.6,177,197.7z M259.8,205.8
		c0,0-0.1,0-0.1,0c0-50.6,0.2-101.2-0.1-151.9c-0.1-16.2-11.8-28.6-26.8-30.1c-14.6-1.5-29.9,9.7-32.4,24.4
		c-1,5.7-0.6,11.6-0.6,17.4c0,94.9-0.2,189.8,0.1,284.7c0,9-1.9,15.1-9.2,21.5c-26.2,22.9-27.4,61.4-3.8,85.8
		c24.1,24.8,62.3,24.7,86-0.2c23.4-24.6,21.2-62.4-3.9-86.4c-4.9-4.6-8.7-12.9-8.8-19.5C259.5,302.9,259.8,254.3,259.8,205.8z"/>
	<path d="M218.4,270.5c0-31.1,0-62.2,0-93.3c0-8.7-0.5-18.3,12-17.8c11.3,0.4,10.8,9.4,10.8,17.5c0,61.7,0.1,123.3-0.1,185
		c0,9,1.2,14.9,10.5,20c16.7,9.1,22.8,28.2,17.6,46.6c-4.6,16.6-21,28.5-39.2,28.7c-18.2,0.1-34.5-11.5-39.5-28.3
		c-5.4-18.1,0.7-37.6,17.3-46.7c9.8-5.4,11-12,10.9-21.5C218.2,330.6,218.5,300.5,218.4,270.5C218.4,270.5,218.4,270.5,218.4,270.5z
		"/>
	<path d="M307.1,255.7c-3.3,0-6.5,0-9.8,0c-1.8,0-3-0.8-3.8-2.4c-0.9-2-0.9-4,0-6c0.7-1.6,1.9-2.4,3.8-2.4c6.5,0,13,0,19.5,0
		c1.9,0,3.1,0.8,3.8,2.4c1,2.1,0.9,4.1-0.1,6.2c-0.7,1.5-1.9,2.3-3.7,2.3C313.6,255.6,310.3,255.7,307.1,255.7z"/>
	<path d="M307.1,201.2c-3.3,0-6.5,0-9.8,0c-1.8,0-3-0.8-3.8-2.4c-0.9-2-0.9-4,0-6c0.7-1.6,1.9-2.4,3.8-2.4c6.5,0,13,0,19.5,0
		c1.9,0,3.1,0.8,3.8,2.4c1,2.1,0.9,4.1-0.1,6.2c-0.7,1.5-1.9,2.3-3.7,2.3C313.6,201.1,310.3,201.2,307.1,201.2z"/>
	<path d="M321.3,228.7c-7.2,0-14.5,0-21.7,0c-4.1,0-6.8-0.8-8.4-2.4c-2.1-2-2.1-4,0-6c1.6-1.6,4.3-2.4,8.4-2.4c14.5,0,28.9,0,43.4,0
		c4.1,0,6.8,0.8,8.4,2.4c2.1,2.1,2.1,4.1-0.1,6.2c-1.7,1.5-4.3,2.3-8.2,2.3C335.8,228.6,328.6,228.7,321.3,228.7z"/>
	<path d="M321.3,174.1c-7.2,0-14.5,0-21.7,0c-4.1,0-6.8-0.8-8.4-2.4c-2.1-2-2.1-4,0-6c1.6-1.6,4.3-2.4,8.4-2.4c14.5,0,28.9,0,43.4,0
		c4.1,0,6.8,0.8,8.4,2.4c2.1,2.1,2.1,4.1-0.1,6.2c-1.7,1.5-4.3,2.3-8.2,2.3C335.8,174,328.6,174.1,321.3,174.1z"/>
	<path d="M307.1,310.2c-3.3,0-6.5,0-9.8,0c-1.8,0-3-0.8-3.8-2.4c-0.9-2-0.9-4,0-6c0.7-1.6,1.9-2.4,3.8-2.4c6.5,0,13,0,19.5,0
		c1.9,0,3.1,0.8,3.8,2.4c1,2.1,0.9,4.1-0.1,6.2c-0.7,1.5-1.9,2.3-3.7,2.3C313.6,310.1,310.3,310.2,307.1,310.2z"/>
	<path d="M321.3,283.2c-7.2,0-14.5,0-21.7,0c-4.1,0-6.8-0.8-8.4-2.4c-2.1-2-2.1-4,0-6c1.6-1.6,4.3-2.4,8.4-2.4c14.5,0,28.9,0,43.4,0
		c4.1,0,6.8,0.8,8.4,2.4c2.1,2.1,2.1,4.1-0.1,6.2c-1.7,1.5-4.3,2.3-8.2,2.3C335.8,283.2,328.6,283.2,321.3,283.2z"/>
	<path d="M321.3,337.8c-7.2,0-14.5,0-21.7,0c-4.1,0-6.8-0.8-8.4-2.4c-2.1-2-2.1-4,0-6c1.6-1.6,4.3-2.4,8.4-2.4c14.5,0,28.9,0,43.4,0
		c4.1,0,6.8,0.8,8.4,2.4c2.1,2.1,2.1,4.1-0.1,6.2c-1.7,1.5-4.3,2.3-8.2,2.3C335.8,337.8,328.6,337.8,321.3,337.8z"/>
	<path d="M307.1,146.7c-3.3,0-6.5,0-9.8,0c-1.8,0-3-0.8-3.8-2.4c-0.9-2-0.9-4,0-6c0.7-1.6,1.9-2.4,3.8-2.4c6.5,0,13,0,19.5,0
		c1.9,0,3.1,0.8,3.8,2.4c1,2.1,0.9,4.1-0.1,6.2c-0.7,1.5-1.9,2.3-3.7,2.3C313.6,146.6,310.3,146.7,307.1,146.7z"/>
	<path d="M307.1,92.2c-3.3,0-6.5,0-9.8,0c-1.8,0-3-0.8-3.8-2.4c-0.9-2-0.9-4,0-6c0.7-1.6,1.9-2.4,3.8-2.4c6.5,0,13,0,19.5,0
		c1.9,0,3.1,0.8,3.8,2.4c1,2.1,0.9,4.1-0.1,6.2c-0.7,1.5-1.9,2.3-3.7,2.3C313.6,92.1,310.3,92.2,307.1,92.2z"/>
	<path d="M321.3,119.5c-7.2,0-14.5,0-21.7,0c-4.1,0-6.8-0.8-8.4-2.4c-2.1-2-2.1-4,0-6c1.6-1.6,4.3-2.4,8.4-2.4c14.5,0,28.9,0,43.4,0
		c4.1,0,6.8,0.8,8.4,2.4c2.1,2.1,2.1,4.1-0.1,6.2c-1.7,1.5-4.3,2.3-8.2,2.3C335.8,119.5,328.6,119.5,321.3,119.5z"/>
	<path d="M321.3,64.9c-7.2,0-14.5,0-21.7,0c-4.1,0-6.8-0.8-8.4-2.4c-2.1-2-2.1-4,0-6c1.6-1.6,4.3-2.4,8.4-2.4c14.5,0,28.9,0,43.4,0
		c4.1,0,6.8,0.8,8.4,2.4c2.1,2.1,2.1,4.1-0.1,6.2c-1.7,1.5-4.3,2.3-8.2,2.3C335.8,64.9,328.6,64.9,321.3,64.9z"/>
</g>
</svg>
