<?xml version="1.0" encoding="utf-8"?>
<!-- Generator: Adobe Illustrator 26.2.1, SVG Export Plug-In . SVG Version: 6.00 Build 0)  -->
<svg version="1.1" id="Layer_1" xmlns="http://www.w3.org/2000/svg" xmlns:xlink="http://www.w3.org/1999/xlink" x="0px" y="0px"
	 viewBox="0 0 500 500" style="enable-background:new 0 0 500 500;" xml:space="preserve">
<style type="text/css">
	.st0{fill:#717171;}
</style>
<g>
	<path class="st0" d="M480.8,301.7c-46.9,18.6-139.5,24.8-183.4-3.8c23.8-2.6,49.4-4.3,74.5-8.5c25.3-4.3,48.6-14.9,69.7-29.1
		C455.2,274.7,468.1,288.3,480.8,301.7z"/>
	<path class="st0" d="M340.8,333.7c-35.9-6.3-68-20-91.7-49.2c-32.4-39.9-26.1-102.3-1.2-143l0,0c5.9-9.6,12.8-18.1,20.6-24.7
		c12.8-11,26.7-18.5,42.5-18.1c5.2,0.1,10.6,1.1,16.2,3.1c23.1,8.3,33.2,27.2,37.7,49.9c1.1,5.7,1.9,11.4,3,18.8
		c2.7-3.9,4.7-6.5,6.3-9.2c26.7-46.2,13.3-103.7-31.1-135.8c-8.9-6.4-18.4-11-28.2-14.6c-8.9-3.2-18.1-5.6-27.4-7.7
		c-0.1,0-0.2,0-0.3,0c-1.3-0.2-2.5-0.3-3.8-0.5c-1.1-0.1-2.3-0.3-3.4-0.4c-1-0.1-2-0.3-3-0.3s-2-0.2-2.9-0.2c-1-0.1-1.9-0.1-2.9-0.2
		c-1.2-0.1-2.5-0.2-3.7-0.2c-0.1,0-0.3,0-0.4,0c-4-0.2-8.1-0.3-12.2-0.3c-1.3,0-2.7,0-4,0c-1,0-2,0-3,0.1c-1.1,0-2.3,0.1-3.4,0.1
		c-4.5,0.2-8.9,0.5-13.3,0.9c-1.3,0.1-2.6,0.3-3.9,0.4c-3.4,0.4-6.8,0.8-10.1,1.3c-1.1,0.2-2.1,0.3-3.2,0.5
		c-2.5,0.4-5.1,0.9-7.6,1.4c-1.7,0.3-3.4,0.7-5.1,1.1c-2.4,0.5-4.9,1.1-7.3,1.7c-1.1,0.3-2.2,0.5-3.2,0.8c-1.1,0.3-2.2,0.6-3.3,0.9
		c-1,0.3-2.1,0.6-3.1,0.9c-1.1,0.3-2.1,0.6-3.2,1c-5.8,1.8-11.5,3.8-17.2,6c-1.1,0.4-2.2,0.9-3.2,1.3s-2,0.8-3,1.2
		c-1.3,0.6-2.6,1.1-3.9,1.7c-1.1,0.5-2.3,1-3.4,1.5s-2.3,1.1-3.4,1.6s-2.2,1.1-3.3,1.6l0,0c-1.5,0.7-2.9,1.5-4.3,2.2
		c-1.9,1-3.7,2-5.6,3c-0.7,0.4-1.3,0.7-2,1.1c-1,0.6-2.1,1.2-3.1,1.8c-0.5,0.3-0.9,0.5-1.4,0.8c-0.6,0.3-1.1,0.7-1.7,1
		c-3.4,2.1-6.8,4.2-10.1,6.5c-1.3,0.9-2.6,1.8-3.8,2.6c-3.2,2.3-6.4,4.6-9.5,7.1c-0.8,0.6-1.6,1.2-2.4,1.8c-0.1,0.1-0.2,0.2-0.4,0.3
		c-1.2,0.9-2.4,1.9-3.5,2.9c-0.3,0.2-0.5,0.5-0.8,0.7c-1.3,1.1-2.5,2.1-3.8,3.2c-1.9,1.7-3.7,3.3-5.6,5c-1.5,1.4-3,2.8-4.5,4.3
		c-0.1,0.1-0.2,0.1-0.2,0.2c-1.5,1.5-3,2.9-4.4,4.5c-0.1,0.1-0.1,0.1-0.2,0.2c-1.5,1.5-2.9,3-4.3,4.6V81c-1.3,1.4-2.5,2.8-3.8,4.2
		c-0.2,0.2-0.4,0.4-0.5,0.6c-6.5,7.4-12.5,15.2-18.1,23.3C22.2,149.2,6.1,197.7,6.1,250c0,137.5,111.5,249,249,249
		c113.1,0,208.6-75.4,238.9-178.7C443.6,334.9,393,342.8,340.8,333.7z M128.6,153.7c-2,17.2-5.4,34.1-5.4,51
		c-0.1,17.4,1.3,35.3,5.4,52.1c4.2,17.2,10.9,34.2,19.5,49.6c8.5,15.1,19.8,29.1,32,41.5c12.1,12.4,26.9,22.2,39.9,32.7
		C121.8,363.2,72.8,243.6,128.6,153.7z M176.2,277.8c-17-35.8-19.6-82.6-5.2-124.2c13.4-38.9,41.8-73.1,87-89.5
		c13.1-4.7,27.5-6,41.9-7.3c-36.8,7.5-63.6,28.6-83.7,58.9c-7.8,11.8-14,24.1-18.7,36.9c-7.3,19.9-10.8,40.9-11.1,62.7
		c-0.5,39.3,11.8,74.4,38.7,103.5c26.6,28.8,60.6,44.2,97.8,53.8C259.7,363.2,205.3,339.1,176.2,277.8z"/>
	<path class="st0" d="M371.9,289.4c25.3-4.3,48.6-14.9,69.7-29.1c13.7,14.4,26.6,28.1,39.2,41.5c-46.9,18.6-139.5,24.8-183.4-3.8
		C321.2,295.3,346.8,293.7,371.9,289.4z"/>
</g>
</svg>
