<?xml version="1.0" encoding="utf-8"?>
<!-- Generator: Adobe Illustrator 26.2.1, SVG Export Plug-In . SVG Version: 6.00 Build 0)  -->
<svg version="1.1" id="Layer_1" xmlns="http://www.w3.org/2000/svg" xmlns:xlink="http://www.w3.org/1999/xlink" x="0px" y="0px"
	 viewBox="0 0 500 500" style="enable-background:new 0 0 500 500;" xml:space="preserve">
<style type="text/css">
	.st0{fill:#339DDE;}
	.st1{fill:#0577BC;}
	.st2{fill:#013859;}
</style>
<path class="st0" d="M273.9,417.8c-3.7,2.7-7.4,5.4-11.2,8c-21.1,14.6-43.4,26.5-68.5,32.7c-46.9,11.6-88,0.3-123.2-32.4
	c-24.5-22.7-40.9-50.8-52.6-81.9C6.2,311.9,0.2,278.4,1.1,243.8c0.7-26.5,5.4-52.2,17.6-76.1c9-17.7,21.6-32.2,38.6-42.7
	c14.7-9.1,29.6-17.7,46.4-22.3c8.9-2.4,17.9-3.7,27.1-2.6c0.8,0.1,1.9,0.4,2.3,1c3.4,5,7.7,9.1,13.7,11.7c-1.8,1.5-3.3,2.6-4.8,3.9
	c-33.5,27.6-58.2,61.3-70.5,103.2c-11.7,39.8-11,79.4,5.9,117.6c20.5,46.3,56.4,74.1,106,84.1c29.4,5.9,58.5,3.3,87.5-3.6
	c0.9-0.2,1.8-0.4,2.7-0.6C273.7,417.5,273.8,417.6,273.9,417.8z"/>
<path class="st1" d="M84.5,255.9c-0.4-16.2,2.2-31.9,7.5-47c13.2-38.2,37.8-67.3,71.7-88.8c6.9-4.4,14.3-8,21.6-11.8
	c0.9-0.5,2.4-0.6,3.3-0.2c15.3,6.4,28.6,3.2,39.1-9.6c0.2-0.2,0.3-0.4,0.5-0.7c14.9,21.8,42,19,52.5-0.4c3.2,3.7,6.3,7.6,9.8,11
	c10.4,9.8,22.5,14.3,36.7,10.5c9.1-2.5,16-8.2,20.9-16.5c0.7,0.2,1.4,0.4,2,0.7c19.9,8.6,37.9,20.2,53.7,35
	c9.8,9.2,17,20.2,19.4,33.8c3.3,18.7-7,35.7-25.3,42.2c-18.7,6.7-39.2,0.4-52.7-16.3c-2.3-2.9-4.4-5.9-6.3-9.1
	c-1.9-3.1-3.4-6.3-5.2-9.8c-0.6,1.2-1.1,2.2-1.6,3.2c-2.8,5.7-6.6,10.6-12.2,14c-10.4,6.2-23.3,3.7-31.1-6.5
	c-2.8-3.7-4.7-8.2-6.9-12.2c-4.7,13.6-13.4,23.8-29.3,24.2c-15.4,0.4-25.3-8.5-31.9-22c-2,18.1-11.7,29.6-29.3,32.8
	c-20,3.6-31.5-7.9-39.1-25.3c-0.7,4-1.2,7.5-2.1,10.9c-0.6,2.6-1.5,5.1-2.6,7.6c-2.1,4.7-5.9,7-11,7c-3,0-5.9,0-8.9-0.1
	c-9.1-0.3-16.7,3.1-23.1,9.5c-7.8,7.9-12.9,17.5-17.4,27.4C86.4,251.4,85.5,253.6,84.5,255.9z"/>
<path class="st0" d="M275.6,197c-6.4,6.7-12.4,13.6-17,21.7c-12.9,23-13.8,46.9-5.2,71.3c8.7,24.8,24.6,44.5,44.6,61.1
	c21.7,17.9,46.3,30,73.6,36.7c0.9,0.2,1.8,0.4,3,0.7c-0.5,0.3-0.8,0.6-1.2,0.7c-39.1,12.1-78.9,20.2-120.1,19.8
	c-28.6-0.3-56.4-4.6-82.7-16.3c-43.8-19.5-72.6-52-83.5-99.3c-1.6-7.2-2.1-14.6-3.1-21.9c-0.1-1.1-0.1-2.3,0.3-3.2
	c4.6-10.2,9-20.4,13.9-30.4c2.9-5.9,7.1-11,12.2-15.2c4.6-3.9,9.9-5.9,16-5.8c5.4,0,10.8,0,16.3,0c-0.5,4.2-1.2,8.9-1.5,13.7
	c-3,35.9,4.4,69.2,25.7,98.7c22.4,30.9,52.9,48.5,90.6,53.7c13.1,1.8,26.1,1.5,39.2-0.1c0.4-0.1,0.8-0.2,1.3-0.7
	c-2.2-0.5-4.4-0.9-6.5-1.4c-50.7-13.1-83.3-44.3-95.4-95.7c-5.4-23.1-3.3-46.2,4.3-68.7c0.3-0.9,0.9-2,1.6-2.4
	c9.6-4.6,16.6-11.8,21-22.5c0.6,1,1,1.6,1.4,2.1c13.3,15.1,35.5,17.1,50.2,3.7c0.2-0.2,0.5-0.3,0.7-0.4
	C275.4,196.9,275.5,196.9,275.6,197z"/>
<path class="st2" d="M177.5,92.6c-0.4,1-0.6,1.6-0.8,2.1c-3.3,8.4-9.1,13.9-18.2,15c-8.7,1.1-15.7-2.7-20.3-9.8
	c-2.5-3.7-5.3-4.6-9.3-4.8c-15.6-0.8-30.3,3-44.1,9.6c-10.4,5-20.2,11-30.3,16.6c-0.7,0.4-1.4,0.9-2.5,1c1-1.8,1.9-3.6,3-5.4
	c13.9-23.6,33.9-40.6,57.8-53.3c24.3-12.9,50.3-20.4,77.5-24c33-4.4,65.7-3.2,98.1,4.6c13,3.1,25.8,6.9,37.7,13.2
	c5.6,3,10.6,6.7,14.6,11.7c6.8,8.6,9,18.2,4.5,28.5c-4.7,10.7-13.2,16.7-24.7,17.9c-10.6,1.1-19.7-3-26.9-10.4
	c-4.5-4.6-8.1-10.2-12-15.4c-0.6-0.8-1-1.7-1.7-2.8c-3.6,11.6-10,20.3-22.5,21.4c-14.8,1.3-23.1-8-29-20.1
	C220.7,109.3,192.3,114.1,177.5,92.6z"/>
<path class="st0" d="M451.5,208.2c15.6,2.2,29.8,6,40.9,17.2c5,5,7.7,11,6.2,18.3c-1.9,9.2-10.8,14.4-19.8,11.6
	c-5.6-1.8-9.7-5.6-13-10.2c-6.2-8.5-9.4-18.3-12.1-28.3C452.9,214.1,452.3,211.5,451.5,208.2z"/>
<path class="st1" d="M432.3,119.4c10.8,1.4,20.5,4.2,28.3,11.5c3.1,2.9,5.2,6.5,5.2,10.9c0.1,8.4-7.8,14-15.3,10.4
	c-3-1.4-5.9-3.9-7.9-6.6C436.8,138.1,434.6,129,432.3,119.4z"/>
<path class="st0" d="M275.3,196.8c2.3-2.8,4.5-5.7,6.9-8.6c0.4,0.7,0.9,1.3,1.4,2.1c-2.7,2.3-5.3,4.6-8,6.8
	C275.5,196.9,275.4,196.9,275.3,196.8z"/>
</svg>
